<svg width="65" height="62" viewBox="0 0 65 62" fill="none" xmlns="http://www.w3.org/2000/svg">
<path d="M24.6573 20.0201H30.1675C30.6818 20.0201 31.1226 19.5793 31.1226 19.065V13.5547C31.1226 13.0404 30.6818 12.5996 30.1675 12.5996H24.6573C24.143 12.5996 23.7021 13.0404 23.7021 13.5547V19.065C23.7021 19.5793 24.143 20.0201 24.6573 20.0201ZM25.5389 14.5098H29.2124V18.1833H25.5389V14.5098Z" fill="#6BB4F8"/>
<path d="M35.6782 20.0201H41.1885C41.7028 20.0201 42.1436 19.5793 42.1436 19.065V13.5547C42.1436 13.0404 41.7028 12.5996 41.1885 12.5996H35.6782C35.164 12.5996 34.7231 13.0404 34.7231 13.5547V19.065C34.7231 19.5793 35.164 20.0201 35.6782 20.0201ZM36.5599 14.5098H40.2334V18.1833H36.5599V14.5098Z" fill="#6BB4F8"/>
<path d="M30.1675 29.2042C30.6818 29.2042 31.1226 28.7634 31.1226 28.2491V22.7388C31.1226 22.2245 30.6818 21.7837 30.1675 21.7837H24.6573C24.143 21.7837 23.7021 22.2245 23.7021 22.7388V28.2491C23.7021 28.7634 24.143 29.2042 24.6573 29.2042H30.1675ZM25.5389 23.6939H29.2124V27.3674H25.5389V23.6939Z" fill="#6BB4F8"/>
<path d="M35.6782 29.2042H41.1885C41.7028 29.2042 42.1436 28.7634 42.1436 28.2491V22.7388C42.1436 22.2245 41.7028 21.7837 41.1885 21.7837H35.6782C35.164 21.7837 34.7231 22.2245 34.7231 22.7388V28.2491C34.7231 28.7634 35.164 29.2042 35.6782 29.2042ZM36.5599 23.6939H40.2334V27.3674H36.5599V23.6939Z" fill="#6BB4F8"/>
<path d="M54.0452 25.5308H45.743V9.95511C45.743 9.44082 45.3022 9 44.7879 9H20.9836C20.4693 9 20.0285 9.44082 20.0285 9.95511V25.6043H11.7998C11.2855 25.6043 10.8447 26.0451 10.8447 26.5594V52.2739C10.8447 52.7882 11.2855 53.229 11.7998 53.229H54.0452C54.5595 53.229 55.0003 52.7882 55.0003 52.2739V26.5594C54.9268 25.9716 54.486 25.5308 54.0452 25.5308ZM12.6815 27.3675H20.0285V51.2453H12.6815V27.3675ZM21.8652 10.8368H43.9063V51.2453H39.2776V43.0167C39.2776 39.4901 36.4123 36.5513 32.8123 36.5513C29.2122 36.5513 26.3469 39.4166 26.3469 43.0167V51.3188H21.8652V10.8368ZM28.3306 51.2453V43.0167C28.3306 40.5187 30.3878 38.3881 32.9592 38.3881C35.5307 38.3881 37.5878 40.4452 37.5878 43.0167V51.3188H28.3306V51.2453ZM53.0901 51.2453H45.743V27.3675H53.0901V51.2453Z" fill="#6BB4F8"/>
</svg>
