<svg width="65" height="62" viewBox="0 0 65 62" fill="none" xmlns="http://www.w3.org/2000/svg">
<path d="M22.3151 38.468C20.6631 38.468 19.3257 39.8054 19.3257 41.4575C19.3257 43.1096 20.6631 44.4469 22.3151 44.4469C23.9672 44.4469 25.3046 43.1096 25.3046 41.4575C25.3046 39.8054 23.8885 38.468 22.3151 38.468ZM22.3151 42.4015C21.7644 42.4015 21.2924 41.9295 21.2924 41.3788C21.2924 40.8281 21.7644 40.3561 22.3151 40.3561C22.8658 40.3561 23.3378 40.8281 23.3378 41.3788C23.2592 41.9295 22.7872 42.4015 22.3151 42.4015Z" fill="#6BB4F8"/>
<path d="M43.9489 38.468C42.2969 38.468 40.9595 39.8054 40.9595 41.4575C40.9595 43.1096 42.2969 44.4469 43.9489 44.4469C45.601 44.4469 46.9384 43.1096 46.9384 41.4575C46.9384 39.8054 45.5223 38.468 43.9489 38.468ZM43.9489 42.4015C43.3982 42.4015 42.9262 41.9295 42.9262 41.3788C42.9262 40.8281 43.3982 40.3561 43.9489 40.3561C44.4996 40.3561 44.9716 40.8281 44.9716 41.3788C44.893 41.9295 44.4209 42.4015 43.9489 42.4015Z" fill="#6BB4F8"/>
<path d="M38.0488 40.4346H28.2151C27.6644 40.4346 27.1924 40.9066 27.1924 41.4573C27.1924 42.008 27.6644 42.48 28.2151 42.48H38.0488C38.5995 42.48 39.0715 42.008 39.0715 41.4573C38.9929 40.9066 38.5209 40.4346 38.0488 40.4346Z" fill="#6BB4F8"/>
<path d="M53.4601 21.79H51.7294V8.02271C51.7294 7.47202 51.2574 7 50.7067 7H15.3051C14.7544 7 14.2824 7.47202 14.2824 8.02271V21.79H12.5517C10.7423 21.79 9.32617 23.206 9.32617 25.0155V29.421C9.32617 31.2304 10.7423 32.6464 12.5517 32.6464H14.2824V46.4137C14.2824 46.9644 14.7544 47.4364 15.3051 47.4364H18.2946V53.3367C18.2946 53.8874 18.7666 54.3594 19.3173 54.3594H26.2402C26.7909 54.3594 27.2629 53.8874 27.2629 53.3367V47.4364H39.0635V53.3367C39.0635 53.8874 39.5355 54.3594 40.0862 54.3594H47.0092C47.5599 54.3594 48.0319 53.8874 48.0319 53.3367V47.4364H51.0213C51.572 47.4364 52.044 46.9644 52.044 46.4137V32.6464H53.7748C55.5842 32.6464 57.0003 31.2304 57.0003 29.421V25.0155C56.6856 23.206 55.2695 21.79 53.4601 21.79ZM16.4144 16.8338H49.8491V35.5572H16.4144V16.8338ZM49.8491 8.96675V14.867H16.4144V8.96675H49.8491ZM12.709 30.601C12.0009 30.601 11.4503 30.0503 11.4503 29.3423V24.9368C11.4503 24.2287 12.0009 23.6781 12.709 23.6781H14.4397V30.601H12.709ZM25.2175 52.2353H20.2613V47.2791H25.2175V52.2353ZM45.9156 52.2353H40.9594V47.2791H45.9156V52.2353ZM16.4144 45.391V37.524H49.8491V45.391H16.4144ZM54.7188 29.3423C54.7188 30.0503 54.1681 30.601 53.4601 30.601H51.7294V23.6781H53.4601C54.1681 23.6781 54.7188 24.2287 54.7188 24.9368V29.3423Z" fill="#6BB4F8"/>
<path d="M27.8221 28.2409L37.1839 20.5312C37.5772 20.2166 37.6559 19.5872 37.3412 19.1152C37.0265 18.7218 36.3972 18.6432 35.9251 18.9578L26.5634 26.6675C26.1701 26.9822 26.0914 27.6116 26.4061 28.0836C26.7994 28.4769 27.4288 28.5556 27.8221 28.2409Z" fill="#6BB4F8"/>
<path d="M36.7826 24.1498L27.4209 31.8595C27.0275 32.1742 26.9488 32.8035 27.2635 33.2755C27.5782 33.6689 28.2076 33.7476 28.6796 33.4329L38.0413 25.7232C38.4347 25.4085 38.5133 24.7792 38.1987 24.3071C37.8053 23.8351 37.176 23.7565 36.7826 24.1498Z" fill="#6BB4F8"/>
</svg>
