<svg width="65" height="62" viewBox="0 0 65 62" fill="none" xmlns="http://www.w3.org/2000/svg">
<path d="M46.9972 47.0915C46.9972 50.8593 39.83 52.8898 33.084 52.8898C26.338 52.8898 19.1709 50.8593 19.1709 47.0915C19.1709 44.1885 23.4501 42.3159 28.5115 41.6165L29.7975 43.3387C24.3075 43.8802 21.0511 45.7152 21.0511 47.0915C21.0511 48.731 25.6311 51.0097 33.084 51.0097C40.537 51.0097 45.117 48.731 45.117 47.0915C45.117 45.7152 41.8606 43.8726 36.3555 43.3387L37.6415 41.6165C42.7104 42.3084 46.9972 44.181 46.9972 47.0915Z" fill="#6BB4F8"/>
<path d="M33.0919 10C25.293 10 18.9531 16.3474 18.9531 24.1387C18.9531 26.9891 19.7954 29.7341 21.4124 32.1181L28.5118 41.6166L29.7978 43.3389L32.3248 46.7156C32.4977 46.9563 32.776 47.0916 33.0768 47.0916C33.3777 47.0916 33.6484 46.9563 33.8289 46.7156L36.3558 43.3389L37.6418 41.6166L39.2813 39.4206L41.8684 36.0514C42.1467 35.713 44.1547 32.9679 44.6736 32.2159C44.7112 32.1708 44.7488 32.1332 44.7789 32.088C46.3733 29.7341 47.2156 26.9891 47.2156 24.1387C47.2156 16.3474 40.8832 10 33.0919 10ZM43.3049 30.9073C43.2597 30.9524 43.2221 30.9975 43.192 31.0577C42.9965 31.3661 40.6651 34.5548 40.4019 34.8782L37.7847 38.285L35.4609 41.391L34.1147 43.196L33.0768 44.5798L32.039 43.196L30.6928 41.391L22.9466 31.0276C21.5628 28.9895 20.8333 26.6055 20.8333 24.1387C20.8333 17.3777 26.3308 11.8802 33.0919 11.8802C39.8529 11.8802 45.3354 17.3777 45.3354 24.1387C45.3354 26.5604 44.636 28.8918 43.3049 30.9073Z" fill="#6BB4F8"/>
<path d="M32.7758 29.486C32.7758 29.486 32.7607 29.486 32.7532 29.486C32.49 29.486 32.2493 29.3657 32.0763 29.1701L27.1503 23.6726C26.8044 23.289 26.8345 22.6949 27.2256 22.3414C27.6091 21.9955 28.2032 22.0256 28.5492 22.4166L32.8058 27.1697L39.0555 20.7997C39.4165 20.4312 40.0181 20.4237 40.3866 20.7847C40.7551 21.1457 40.7627 21.7398 40.4017 22.1158L33.4451 29.2002C33.2646 29.3807 33.0239 29.4785 32.7758 29.4785V29.486Z" fill="#6BB4F8"/>
</svg>
