<svg width="65" height="62" viewBox="0 0 65 62" fill="none" xmlns="http://www.w3.org/2000/svg">
<path d="M53.1105 49.3513H43.6662V41.6179C49.4149 41.2073 53.9317 36.3483 53.9317 30.5312C53.9317 24.3719 48.9358 19.376 42.7765 19.376C36.6172 19.376 31.6897 24.3719 31.6897 30.5312C31.6897 36.3483 36.2066 41.2073 41.9553 41.6179V49.3513H22.5192V43.7395C26.9676 43.2604 30.3894 39.5648 30.3894 34.9796C30.3894 30.1205 26.4201 26.2197 21.6295 26.2197C16.839 26.2197 12.8696 30.189 12.8696 35.048C12.8696 39.6333 16.3599 43.3973 20.8083 43.8079V49.4197H13.7593C13.2803 49.4197 12.8696 49.8303 12.8696 50.3094C12.8696 50.7884 13.2803 51.1991 13.7593 51.1991H53.1105C53.5895 51.1991 54.0001 50.7884 54.0001 50.3094C53.9317 49.7619 53.5211 49.3513 53.1105 49.3513ZM33.4007 30.5312C33.4007 25.33 37.6437 21.0869 42.8449 21.0869C48.0461 21.0869 52.2208 25.33 52.2208 30.5312C52.2208 35.4586 48.4567 39.4964 43.6662 39.907V35.1164L46.0615 31.8999C46.3352 31.4893 46.2668 31.0102 45.8562 30.668C45.4455 30.3943 44.9665 30.4627 44.6243 30.8734L42.5712 33.5424L38.2597 29.8468C37.9175 29.5731 37.37 29.5731 37.0278 29.9837C36.7541 30.3259 36.7541 30.8734 37.1647 31.2155L42.0237 35.2533V39.9754C37.1647 39.4964 33.4007 35.4586 33.4007 30.5312ZM14.5805 35.048C14.5805 31.1471 17.7287 27.999 21.6295 27.999C25.5304 27.999 28.6785 31.1471 28.6785 35.048C28.6785 38.6067 26.0095 41.6179 22.5192 42.0285V38.6751L25.3936 36.2799C25.7358 36.0061 25.8042 35.4586 25.5304 35.048C25.2567 34.7058 24.7092 34.6374 24.2986 34.9111L21.7664 37.1011L19.508 34.2952C19.2343 33.953 18.6868 33.8846 18.3446 34.1583C18.0024 34.4321 17.934 34.9796 18.2077 35.3902L20.8083 38.6751V42.097C17.318 41.6179 14.5805 38.6751 14.5805 35.048Z" fill="#6BB4F8"/>
<path d="M23.5459 21.9764H32.1005C34.2221 21.9764 35.933 20.2655 35.933 18.144C35.933 16.0224 34.2221 14.3115 32.1005 14.3115H31.6899C31.6899 11.9847 29.7737 10 27.3784 10C24.9831 10 23.0669 11.8478 23.0669 14.3115C21.1506 14.5168 19.645 16.1593 19.645 18.144C19.7135 20.2655 21.4244 21.9764 23.5459 21.9764ZM23.5459 16.0224H24.0934C24.6409 16.0224 25.0515 15.4749 24.9147 14.9274C24.504 13.285 25.7359 11.7109 27.3784 11.7109C29.0209 11.7109 30.2527 13.285 29.8421 14.9274C29.7052 15.4749 30.1158 16.0224 30.6633 16.0224H32.0321C33.1955 16.0224 34.1536 16.9805 34.1536 18.144C34.1536 19.3074 33.2639 20.2655 32.1005 20.2655H23.5459C22.3825 20.2655 21.4244 19.3074 21.4244 18.144C21.4244 16.9805 22.3825 16.0224 23.5459 16.0224Z" fill="#6BB4F8"/>
</svg>
