<svg width="65" height="62" viewBox="0 0 65 62" fill="none" xmlns="http://www.w3.org/2000/svg">
<path d="M12.7213 41.9378H52.7782C53.2073 41.9378 53.5731 41.6283 53.6435 41.1991C53.6716 41.0514 53.6716 40.9248 53.6716 40.77C53.6716 30.1683 45.7573 21.3888 35.5285 20.024V18.9898C35.5285 17.3437 34.1848 16 32.5387 16C30.8925 16 29.5348 17.3437 29.5348 18.9898V20.0803C19.517 21.635 11.8208 30.3161 11.8208 40.77C11.8208 40.9177 11.8208 41.0444 11.8489 41.1991C11.9193 41.6212 12.2851 41.9378 12.7142 41.9378H12.7213ZM31.3005 18.9969C31.3005 18.3075 31.8492 17.7658 32.5457 17.7658C33.2422 17.7658 33.7768 18.3145 33.7768 18.9969V19.6652H31.3005V18.9969ZM32.7567 21.5998C43.1192 21.5998 51.5893 29.8799 51.9058 40.1791H13.5866C13.9031 29.8799 22.3802 21.5998 32.7567 21.5998Z" fill="#6BB4F8"/>
<path d="M55.1206 44.3721H9.96335C9.47794 44.3721 9.08398 44.766 9.08398 45.2514C9.08398 45.7368 9.47794 46.1308 9.96335 46.1308H55.1206C55.606 46.1308 55.9999 45.7368 55.9999 45.2514C55.9999 44.766 55.606 44.3721 55.1206 44.3721Z" fill="#6BB4F8"/>
<path d="M32.5389 23.1055C32.5389 23.1055 32.5248 23.1055 32.5178 23.1055C32.3771 23.1055 18.7363 23.5627 15.8098 37.7803C15.7113 38.2587 16.0208 38.723 16.4922 38.8215C16.5485 38.8356 16.6118 38.8426 16.6681 38.8426C17.0761 38.8426 17.4419 38.5542 17.5263 38.1391C20.1644 25.3144 32.0394 24.8783 32.5459 24.8642C33.0313 24.8501 33.4182 24.4491 33.4042 23.9637C33.3901 23.4854 33.0032 23.1055 32.5248 23.1055H32.5389Z" fill="#6BB4F8"/>
</svg>
