<svg width="65" height="62" viewBox="0 0 65 62" fill="none" xmlns="http://www.w3.org/2000/svg">
<path d="M55.1601 10H41.5021H41.4888C41.4155 10 41.3422 10.0066 41.2688 10.033L25.5112 14.6672L12.1065 10.0461C11.8532 9.96045 11.5732 10 11.3533 10.1516C11.1333 10.3032 11 10.5537 11 10.824V47.4693C11 47.8186 11.2266 48.1285 11.5599 48.2471L25.2179 52.9539C25.2179 52.9539 25.2179 52.9539 25.2246 52.9539C25.3112 52.9802 25.3979 53 25.4912 53C25.5712 53 25.6512 52.9868 25.7312 52.967L41.6288 48.2933H55.1668C55.6267 48.2933 56 47.9241 56 47.4693V10.824C56 10.3692 55.6267 10 55.1668 10H55.1601ZM12.6598 11.9842L24.6513 16.1174V51.0158L12.6598 46.8826V11.9842ZM26.3244 16.1438L40.6756 11.9249V46.8496L26.3244 51.0685V16.1438ZM54.3269 46.6387H42.3354V11.648H54.3269V46.6453V46.6387Z" fill="#6BB4F8"/>
</svg>
