<svg width="29" height="25" viewBox="0 0 29 25" fill="none" xmlns="http://www.w3.org/2000/svg">
<path opacity="0.8" d="M14.5 20.4799C16.2528 20.4799 17.7032 19.8959 18.8512 18.7277C19.9992 17.5595 20.5732 16.1264 20.5732 14.4282C20.5732 12.768 19.9992 11.3457 18.8512 10.1611C17.7032 8.97661 16.2528 8.38435 14.5 8.38435C12.7472 8.38435 11.2981 8.97661 10.1527 10.1611C9.00727 11.3457 8.43458 12.7748 8.43458 14.4485C8.43458 16.1331 9.00727 17.5595 10.1527 18.7277C11.2981 19.8959 12.7472 20.4799 14.5 20.4799ZM14.494 18.533C13.2841 18.533 12.2974 18.1355 11.5338 17.3403C10.7703 16.5452 10.3885 15.5638 10.3885 14.3959C10.3885 13.2509 10.7704 12.2872 11.5343 11.5048C12.2982 10.7225 13.2853 10.3313 14.4956 10.3313C15.7059 10.3313 16.6958 10.7225 17.4652 11.5048C18.2347 12.2872 18.6194 13.2509 18.6194 14.3959C18.6194 15.5638 18.2343 16.5452 17.4641 17.3403C16.6939 18.1355 15.7039 18.533 14.494 18.533ZM2.45189 25C1.79048 25 1.21647 24.7576 0.729885 24.2727C0.243295 23.7878 0 23.2155 0 22.5556V6.32124C0 5.66134 0.243295 5.08895 0.729885 4.60409C1.21647 4.11923 1.79162 3.87679 2.45531 3.87679H7.18734L10.0587 0H18.946L21.8127 3.87679H26.5447C27.2274 3.87679 27.8073 4.11923 28.2844 4.60409C28.7615 5.08895 29 5.66134 29 6.32124V22.5556C29 23.2155 28.7615 23.7878 28.2844 24.2727C27.8073 24.7576 27.2285 25 26.5481 25H2.45189ZM2.45531 23.0531H26.5447C26.6909 23.0531 26.8111 23.0062 26.9051 22.9125C26.9991 22.8188 27.0461 22.6991 27.0461 22.5534V6.32339C27.0461 6.18286 26.9991 6.06444 26.9051 5.96815C26.8111 5.87186 26.6909 5.82372 26.5447 5.82372H20.8016L17.8845 1.94692H11.1215L8.21206 5.82372H2.45531C2.30906 5.82372 2.18892 5.87186 2.09489 5.96815C2.00087 6.06444 1.95385 6.18286 1.95385 6.32339V22.5534C1.95385 22.6991 2.00087 22.8188 2.09489 22.9125C2.18892 23.0062 2.30906 23.0531 2.45531 23.0531Z" fill="white"/>
</svg>
