<svg width="28" height="32" viewBox="0 0 28 32" fill="none" xmlns="http://www.w3.org/2000/svg">
<path opacity="0.8" d="M13.9303 32C12.3773 32 11.0318 31.3939 9.89371 30.1817C8.75564 28.9695 8.26003 27.6289 8.40685 26.1598C7.13502 27.0928 5.77404 27.3222 4.32392 26.848C2.87376 26.3739 1.70034 25.3861 0.803673 23.8846C0.0286353 22.4311 -0.106481 20.9336 0.398325 19.3921C0.903097 17.8506 1.84974 16.7306 3.23827 16.032C1.77631 15.3506 0.790974 14.1963 0.282248 12.5692C-0.226478 10.942 -0.0475052 9.38902 0.819167 7.91017C1.68584 6.43133 2.88064 5.46528 4.40358 5.01203C5.92649 4.55874 7.28058 4.83479 8.46586 5.84017C8.28965 4.32672 8.77835 2.97499 9.93196 1.78499C11.0855 0.594997 12.4466 0 14.0152 0C15.5839 0 16.9276 0.594997 18.0465 1.78499C19.1654 2.97499 19.6706 4.32672 19.5622 5.84017C20.6872 4.9072 22.04 4.68023 23.6206 5.15926C25.2012 5.63829 26.3679 6.56452 27.1207 7.93793C27.9937 9.32028 28.1755 10.8525 27.6661 12.5347C27.1568 14.2169 26.1973 15.3859 24.7878 16.0418C26.1973 16.77 27.1725 17.9425 27.7134 19.5592C28.2542 21.176 28.0297 22.6214 27.0397 23.8956C26.135 25.2338 24.9448 26.1699 23.4691 26.7039C21.9934 27.2379 20.6715 27.0565 19.5032 26.1598C19.6501 27.6289 19.1462 28.9695 17.9916 30.1817C16.8369 31.3939 15.4832 32 13.9303 32ZM13.9465 30.4292C15.4653 30.4292 16.618 29.7253 17.4047 28.3175C18.1914 26.9096 18.2032 25.4913 17.4401 24.0623L15.87 21.1133C15.5634 21.2637 15.2537 21.3767 14.941 21.4524C14.6283 21.5281 14.2999 21.5659 13.9559 21.5659C13.6432 21.5659 13.3292 21.5316 13.014 21.4628C12.6987 21.3941 12.3647 21.2915 12.0119 21.1551L10.4641 24.0125C9.75605 25.4705 9.77976 26.9044 10.5352 28.3143C11.2906 29.7242 12.4277 30.4292 13.9465 30.4292ZM2.19634 23.2605C2.96309 24.5946 4.11154 25.2605 5.64167 25.2585C7.1718 25.2564 8.34363 24.5896 9.15716 23.2583L10.765 20.3802C10.5041 20.1044 10.286 19.8511 10.1107 19.6201C9.93538 19.3892 9.76079 19.1359 9.5869 18.8602C9.41505 18.5986 9.27545 18.2957 9.1681 17.9515C9.06075 17.6071 8.96133 17.2491 8.86983 16.8773H5.67133C4.11958 16.8773 2.9341 17.6166 2.11488 19.0951C1.29566 20.5736 1.32281 21.9621 2.19634 23.2605ZM18.8542 23.2605C19.6763 24.5222 20.8502 25.162 22.3759 25.1801C23.9017 25.1982 25.0444 24.5565 25.8042 23.2548C26.6777 21.9665 26.7107 20.5815 25.9032 19.0998C25.0957 17.6181 23.9182 16.8773 22.3707 16.8773H19.1223C19.0406 17.2853 18.9522 17.6547 18.8571 17.9854C18.7621 18.3161 18.6359 18.6035 18.4785 18.8475C18.3012 19.1336 18.112 19.4 17.911 19.6467C17.7101 19.8933 17.4915 20.1338 17.2552 20.3681L18.8542 23.2605ZM8.89765 15.2062C8.97902 14.8852 9.06234 14.5645 9.1476 14.2441C9.23282 13.9237 9.36703 13.6199 9.55023 13.3326C9.72164 13.0495 9.8932 12.766 10.0649 12.4821C10.2366 12.1983 10.47 11.9318 10.765 11.6825L9.14637 8.82299C8.29804 7.48339 7.11755 6.80106 5.6049 6.77601C4.09229 6.75092 2.96251 7.43514 2.21556 8.82869C1.45771 10.1895 1.46335 11.5926 2.23249 13.038C3.0016 14.4835 4.13404 15.2062 5.62981 15.2062H8.89765ZM22.3196 15.2062C23.8843 15.2062 25.068 14.4654 25.8709 12.9837C26.6737 11.5021 26.6451 10.1171 25.785 8.82869C25.0442 7.47135 23.9074 6.79617 22.3746 6.80316C20.8419 6.81011 19.6684 7.46529 18.8542 8.76868L17.2552 11.6825C17.5409 11.909 17.7776 12.1678 17.9655 12.4588C18.1534 12.7499 18.3449 13.0357 18.5402 13.3165C18.7224 13.6112 18.8494 13.9151 18.9213 14.2282C18.9931 14.5413 19.0536 14.8674 19.1029 15.2062H22.3196ZM12.1594 10.9285C12.5253 10.8003 12.8604 10.6998 13.1646 10.6269C13.4689 10.554 13.7775 10.5176 14.0905 10.5176C14.4035 10.5176 14.7058 10.561 14.9974 10.6478C15.289 10.7346 15.5798 10.8282 15.8698 10.9285L17.505 7.98746C18.2904 6.5295 18.2945 5.09557 17.5173 3.68567C16.7402 2.27572 15.5754 1.57075 14.023 1.57075C12.4706 1.57075 11.3084 2.28465 10.5364 3.71244C9.76442 5.14023 9.7596 6.54815 10.522 7.93619L12.1594 10.9285ZM12.1673 10.9285C12.5274 10.8003 12.8591 10.7 13.1622 10.6276C13.4653 10.5552 13.7756 10.519 14.0932 10.519C14.4107 10.519 14.7122 10.5622 14.9977 10.6485C15.2832 10.7349 15.5748 10.8282 15.8726 10.9285C15.5748 10.8282 15.28 10.7349 14.9881 10.6485C14.6963 10.5622 14.3976 10.519 14.092 10.519C13.7747 10.519 13.4647 10.5552 13.1618 10.6276C12.8589 10.7 12.5274 10.8003 12.1673 10.9285ZM9.5869 18.8602C9.41644 18.5986 9.27812 18.2957 9.17193 17.9515C9.27812 18.2957 9.41644 18.592 9.5869 18.8404C9.76079 19.1313 9.93538 19.3917 10.1107 19.6216C10.286 19.8516 10.5041 20.1044 10.765 20.3802C10.5041 20.1044 10.286 19.8511 10.1107 19.6201C9.93538 19.3892 9.76079 19.1359 9.5869 18.8602ZM8.89857 15.2062L9.14897 14.2477C9.23328 13.9249 9.36703 13.6199 9.55023 13.3326C9.72164 13.0495 9.8932 12.766 10.0649 12.4821C10.2366 12.1983 10.47 11.9318 10.765 11.6825C10.476 11.9378 10.245 12.2042 10.072 12.4818C9.89896 12.7594 9.72218 13.0384 9.54164 13.319C9.3581 13.6136 9.22568 13.9227 9.14437 14.2463C9.0631 14.57 8.98117 14.89 8.89857 15.2062ZM13.9575 21.5645C13.6458 21.5645 13.333 21.5304 13.0189 21.4621C12.7049 21.3939 12.3692 21.2915 12.0119 21.1551C12.3692 21.2915 12.7081 21.3939 13.0288 21.4621C13.3494 21.5304 13.6624 21.5645 13.9678 21.5645C14.3037 21.5645 14.6274 21.5269 14.9391 21.4517C14.6274 21.5269 14.3002 21.5645 13.9575 21.5645ZM17.2552 20.3802C17.4915 20.1378 17.7083 19.8929 17.9059 19.6452C18.1034 19.3975 18.2943 19.1382 18.4785 18.8673C18.6359 18.6101 18.7621 18.3161 18.8571 17.9854C18.7621 18.3161 18.6359 18.6035 18.4785 18.8475C18.3012 19.1336 18.112 19.4 17.911 19.6467C17.7101 19.8933 17.4915 20.1378 17.2552 20.3802ZM14.0003 20.9838C15.276 20.9838 16.3705 20.4988 17.2837 19.5289C18.1969 18.559 18.6536 17.3966 18.6536 16.0418C18.6536 14.6869 18.1969 13.5245 17.2837 12.5546C16.3705 11.5847 15.276 11.0997 14.0003 11.0997C12.7245 11.0997 11.6301 11.5847 10.7168 12.5546C9.80359 13.5245 9.34697 14.6869 9.34697 16.0418C9.34697 17.3966 9.80359 18.559 10.7168 19.5289C11.6301 20.4988 12.7245 20.9838 14.0003 20.9838Z" fill="white"/>
</svg>
