<svg width="39" height="39" viewBox="0 0 39 39" fill="none" xmlns="http://www.w3.org/2000/svg">
<path opacity="0.8" d="M15.1134 37.3318H23.7978V34.2218L24.6547 33.929C27.8352 32.879 30.5314 31.1592 32.7433 28.7696C34.9553 26.3801 36.3897 23.7446 37.0465 20.8632H1.95354C2.60769 23.7425 4.0292 26.3823 6.21808 28.7825C8.40693 31.1827 11.0745 32.8982 14.2209 33.929L15.1134 34.2135V37.3318ZM13.444 39V35.433C9.95717 34.4259 6.97762 32.3499 4.50534 29.2051C2.03306 26.0603 0.531281 23.185 0 20.5792V19.195H5.54099V3.61357L39 0V1.27948L16.623 3.6735V10.2419H39V11.4841H16.623V19.195H39V20.5792C38.5324 23.185 37.0413 26.0603 34.5268 29.2051C32.0124 32.3499 28.9925 34.4259 25.4672 35.433V39H13.444ZM11.6858 10.2419H15.3798V3.82876L11.6858 4.16155V10.2419ZM6.78413 10.2419H10.4781V4.29461L6.78413 4.73225V10.2419ZM11.6858 19.195H15.3798V11.4841H11.6858V19.195ZM6.78413 19.195H10.4781V11.4841H6.78413V19.195Z" fill="white"/>
</svg>
