<svg width="36" height="36" viewBox="0 0 36 36" fill="none" xmlns="http://www.w3.org/2000/svg">
<path opacity="0.8" d="M31.5588 11.7857L32.9622 10.3824L29.6134 6.97237V2.48742H27.563V7.87396L31.5588 11.7857ZM6.76224 27.0588C7.24007 27.0588 7.64425 26.8916 7.97479 26.5571C8.30532 26.2226 8.47059 25.8165 8.47059 25.3386C8.47059 24.8608 8.30334 24.4566 7.96884 24.126C7.63437 23.7955 7.22822 23.6303 6.75039 23.6303C6.27252 23.6303 5.86832 23.7975 5.53778 24.132C5.20725 24.4665 5.04198 24.8727 5.04198 25.3505C5.04198 25.8283 5.20923 26.2325 5.54373 26.563C5.87824 26.8936 6.28441 27.0588 6.76224 27.0588ZM19.737 27.0588C20.2148 27.0588 20.619 26.8916 20.9496 26.5571C21.2801 26.2226 21.4454 25.8165 21.4454 25.3386C21.4454 24.8608 21.2781 24.4566 20.9437 24.126C20.6091 23.7955 20.203 23.6303 19.7251 23.6303C19.2473 23.6303 18.8431 23.7975 18.5126 24.132C18.1821 24.4665 18.0168 24.8727 18.0168 25.3505C18.0168 25.8283 18.184 26.2325 18.5185 26.563C18.853 26.8936 19.2592 27.0588 19.737 27.0588ZM3.99351 36C3.94166 36 3.90177 35.9912 3.87384 35.9737C3.84587 35.9562 3.83189 35.9257 3.83189 35.8823V31.6342C2.93835 31.4089 2.0763 30.7458 1.24576 29.6448C0.415253 28.5438 0 27.2416 0 25.7382V7.16972C0 5.72745 0.454125 4.61555 1.36238 3.83402C2.27063 3.05252 3.52203 2.4895 5.11659 2.14495C6.71111 1.80043 8.59591 1.61415 10.771 1.58611C12.9461 1.55811 15.3165 1.58338 17.8823 1.66193C17.739 1.76567 17.5708 2.01216 17.3778 2.40139C17.1847 2.79067 17.0285 3.09034 16.9089 3.30042C10.7456 3.14915 6.64883 3.38619 4.61871 4.01154C2.5886 4.63692 1.38097 5.6751 0.99581 7.12608H16.4033C16.3669 7.79552 16.3708 8.22223 16.4149 8.40619C16.459 8.59012 16.4454 8.69003 16.3739 8.7059H1.57983V18.5883H23.8823C24.3011 18.7619 24.7626 18.9412 25.2668 19.1261C25.771 19.3109 26.1779 19.4398 26.4874 19.5126V25.7407C26.4874 27.1958 26.0721 28.4855 25.2416 29.6098C24.4111 30.7341 23.549 31.4095 22.6554 31.636V35.8914C22.6554 35.9249 22.641 35.9514 22.612 35.9708C22.583 35.9903 22.5471 36 22.5042 36H21.7078C21.656 36 21.6161 35.9912 21.5881 35.9737C21.5602 35.9562 21.5462 35.9257 21.5462 35.8823V32.1345H4.94115V35.8823C4.94115 35.9257 4.92665 35.9562 4.89767 35.9737C4.86868 35.9912 4.83276 36 4.7899 36H3.99351ZM20.9763 20.1681H1.57983H24.9076H20.9763ZM28.5767 14.8235C26.5045 14.8235 24.7531 14.1043 23.3225 12.6659C21.8918 11.2276 21.1765 9.4723 21.1765 7.40017C21.1765 5.32807 21.8957 3.57668 23.3341 2.14598C24.7724 0.715329 26.5277 0 28.5998 0C30.6719 0 32.4233 0.719188 33.854 2.15756C35.2847 3.59597 36 5.35123 36 7.42333C36 9.49546 35.2808 11.2469 33.8424 12.6775C32.404 14.1082 30.6488 14.8235 28.5767 14.8235ZM5.45956 30.5546H21.046C22.1176 30.5546 23.0291 30.1735 23.7804 29.4112C24.5319 28.649 24.9076 27.7326 24.9076 26.6622V20.1681H1.57983V26.6486C1.57983 27.7274 1.95856 28.6481 2.71602 29.4107C3.47348 30.1733 4.38799 30.5546 5.45956 30.5546Z" fill="white"/>
</svg>
