<svg width="20" height="20" viewBox="0 0 20 20" fill="none" xmlns="http://www.w3.org/2000/svg">
<path d="M9.98025 11.6503L1.9783 19.6336C1.71703 19.8942 1.45333 20.0158 1.18719 19.9984C0.921082 19.9808 0.654359 19.8387 0.387024 19.572C0.129375 19.3053 0.00297278 19.0368 0.00781627 18.7665C0.0126598 18.4961 0.143906 18.2325 0.401555 17.9754L8.3418 10.0156L0.354378 2.00878C0.108807 1.76381 -0.00913556 1.50314 0.000551428 1.22676C0.0102384 0.950415 0.143906 0.678885 0.401555 0.412172C0.659203 0.145459 0.925926 0.00818069 1.20172 0.000336193C1.47752 -0.00750831 1.7521 0.121926 2.02548 0.388639L9.98025 8.38099L17.9913 0.388639C18.2465 0.134006 18.515 0.00758529 18.7969 0.00937384C19.0787 0.0111938 19.3563 0.145459 19.6297 0.412172C19.8813 0.678885 20.0047 0.947405 19.9999 1.21773C19.995 1.48805 19.8638 1.75173 19.6061 2.00878L11.6187 10.0156L19.6061 18.0225C19.8517 18.2674 19.9775 18.5203 19.9835 18.781C19.9896 19.0416 19.8638 19.3053 19.6061 19.572C19.3485 19.8387 19.0818 19.976 18.806 19.9839C18.5302 19.9917 18.2586 19.8593 17.9913 19.5865L9.98025 11.6503Z" fill="white"/>
</svg>
