<svg width="102" height="72" viewBox="0 0 102 72" fill="none" xmlns="http://www.w3.org/2000/svg">
<g clip-path="url(#clip0_8_159)">
<path d="M22.7023 63.8739C24.2854 63.0687 29.5023 60.8358 29.5023 58.1637C29.5023 55.455 25.1489 54.6131 22.4145 54.2837C19.6801 53.9177 17.0536 53.8444 15.0388 53.9543C13.024 54.0641 12.0166 54.5399 12.0166 55.1256C12.0166 55.6747 12.7722 55.8577 13.024 55.8577C13.2759 55.8577 13.7076 55.7479 14.0314 55.5648C14.3552 55.3818 14.4632 55.0158 15.3267 54.906C19.2843 54.3935 23.0621 55.2354 23.0621 55.2354C27.8113 56.2237 27.6314 57.7977 27.6674 58.2369C27.6674 58.6762 27.4515 59.7011 24.6092 61.7875C22.3785 63.3981 19.7161 64.7158 18.4208 65.3015C18.4568 64.9355 18.4568 64.606 18.4928 64.3498C18.6727 62.6294 19.3203 58.6396 19.4282 57.4682C19.5362 56.2603 18.8166 56.1139 18.8166 56.1139C17.9171 56.0407 17.8452 57.5415 17.8452 57.5415C17.8452 57.5415 17.7372 58.8226 17.4854 62.1169C17.4134 63.2517 17.3415 64.5694 17.3055 65.8506C17.0177 65.997 16.8378 66.1434 16.8737 66.3996C16.9097 66.6192 17.1256 66.6192 17.2695 66.5826C17.2335 68.6325 17.2335 70.3528 17.2335 70.6457C17.2335 71.0849 17.3415 72.1464 17.7013 72.1464C18.097 72.1464 18.169 71.5608 18.169 70.8287C18.169 70.2796 18.2409 67.9736 18.3129 66.1068C19.5722 65.3747 21.6229 64.423 22.7023 63.8739Z" fill="black"/>
<path d="M37.8854 60.6527C37.5256 60.5063 37.1299 60.9822 36.3743 62.2633C35.6188 63.5445 33.568 67.9369 32.5965 67.9369C31.6251 67.9369 32.5606 65.1916 31.841 65.1184C31.0854 65.0452 29.1785 68.486 28.387 68.486C27.5955 68.486 28.387 65.1184 27.7754 65.0086C27.1637 64.9354 25.041 68.2298 24.4293 68.1566C23.9616 68.0833 24.1775 66.546 24.1775 65.5943C24.1775 65.5943 24.2135 64.606 23.2061 64.606C22.1987 64.606 21.0113 65.3747 20.1838 67.5709C19.3563 69.7305 21.0113 70.9751 22.3785 68.7056C22.3785 68.7056 23.35 67.095 23.35 67.4611C23.35 67.8637 23.4579 69.2181 24.1775 69.2181C24.8971 69.2181 25.6886 68.2664 26.0124 67.8637C26.3722 67.4611 27.1997 66.2898 27.1637 66.8754C27.1278 67.4611 26.768 70.06 28.1352 70.06C29.0346 70.06 30.078 68.303 30.2939 68.0101C30.5098 67.6807 31.4452 65.9969 31.4452 66.7656C31.4452 67.5343 31.1574 69.3645 32.3447 69.3645C33.532 69.3645 34.9352 66.1799 35.4389 65.3381C35.9426 64.5328 36.7341 62.849 36.878 62.8856C37.0219 62.9222 36.4103 66.0701 36.2664 67.0218C36.1225 67.9735 35.6547 71.0849 36.5542 70.8653C37.3457 70.6822 36.914 69.2913 36.914 68.8154C36.914 68.4128 37.2018 66.0335 37.4177 64.8622C37.4897 63.7275 38.2452 60.7992 37.8854 60.6527ZM23.242 65.7407C23.242 65.7407 21.6949 68.303 21.2632 68.303C20.8315 68.303 20.9034 67.4611 21.623 66.546C22.3426 65.6675 22.9542 65.5577 23.1701 65.5943C23.35 65.6309 23.242 65.7407 23.242 65.7407Z" fill="black"/>
<path d="M49.4705 61.9704C48.4271 61.9338 47.5276 61.9338 46.7721 61.9338C48.9668 60.7625 53.68 58.6761 53.68 56.7727C53.68 54.9791 50.1181 54.3202 48.0313 54.064C45.9446 53.8078 44.0017 53.9542 42.4546 54.0274C40.9075 54.1006 40.2959 54.5398 40.2959 54.9425C40.2959 55.3451 40.8716 55.4183 41.0515 55.4183C41.2313 55.4183 41.5911 55.3451 41.843 55.1987C42.0948 55.0523 42.2747 54.7229 42.9224 54.6496C44.4694 54.4666 45.9446 54.3202 47.6716 54.5032C50.37 54.7595 51.8091 55.9674 51.8091 56.7361C51.8091 57.3949 51.1255 58.4931 48.9668 59.9206C47.4557 60.9089 46.0525 61.641 45.225 62.007C45.1171 62.007 45.0091 62.007 44.9372 62.0436C45.225 60.0304 45.6567 57.2485 45.7647 56.2236C45.8726 54.9791 45.261 54.8693 45.261 54.8693C44.4335 54.7595 44.3615 56.3334 44.3615 56.3334C44.3615 56.3334 44.1456 57.6878 43.9657 61.0919C43.9657 61.4214 43.9298 61.7874 43.8938 62.1535C43.8938 62.1535 42.9943 62.2999 42.5985 62.4463C42.2028 62.5927 42.0229 62.7757 42.0229 63.032C42.0229 63.2882 42.2747 63.5078 42.7065 63.5078C42.8144 63.5078 43.2462 63.4712 43.8578 63.398C43.7139 66.4727 43.534 69.7671 43.534 70.1331C43.534 70.4992 43.534 71.0482 43.7139 71.3045C43.7139 71.3045 43.7858 71.5607 44.3615 71.4143C44.9372 71.2678 47.2038 70.3894 49.5784 69.218C51.953 68.0467 55.1552 66.3629 55.1552 64.5327C55.1552 62.8123 53.2843 62.1169 49.4705 61.9704ZM48.7149 68.7788C46.5562 69.8769 44.9012 70.3527 44.6493 70.426C44.3255 70.4992 44.3255 70.0233 44.3255 70.0233C44.3615 68.7056 44.6134 65.0086 44.7933 63.3614C46.3044 63.215 48.3192 63.0686 49.5784 63.0686C51.7012 63.0686 53.716 63.4712 53.716 64.7157C53.68 65.9603 50.8737 67.6807 48.7149 68.7788Z" fill="black"/>
<path d="M91.9257 59.9939C91.4939 59.9939 90.8463 60.3233 89.9468 60.4331C89.0474 60.5063 83.7945 60.7259 83.7945 60.7259C83.7945 60.7259 84.4781 59.5546 84.8019 58.6761C85.1257 57.7976 85.6294 55.7478 84.7659 55.7478C83.9024 55.7478 83.6146 59.152 82.859 60.7259L78.0019 60.6893C78.0019 60.6893 79.0093 58.4931 79.0093 57.9074C78.9733 57.3218 78.7214 57.3584 78.6135 57.3584C78.5056 57.3584 78.0378 57.395 77.3902 58.4565C76.7426 59.518 76.3109 60.6161 76.3109 60.6161C76.3109 60.6161 73.4685 60.5063 73.2886 60.4697C73.1087 60.4331 72.605 60.4697 72.4971 60.8358C72.3892 61.2018 73.0368 61.3116 73.7204 61.3482C74.404 61.3848 75.8791 61.458 75.8791 61.458C75.8791 61.458 75.1236 63.6543 75.0156 64.1667C75.0156 64.1667 73.9722 65.7041 72.9648 66.7656C71.9934 67.8271 70.4823 68.8886 70.0146 68.8886C69.5468 68.8886 69.4749 68.303 69.4749 68.303C69.4749 68.303 70.0865 68.0467 70.7341 67.5709C71.3818 67.0584 72.0294 66.4728 72.0294 65.5211C72.0294 64.5694 71.3098 64.3863 71.022 64.3863C70.6982 64.3863 69.9426 64.5694 69.187 65.4479C68.4315 66.3263 68.3595 67.8271 68.3595 67.8271C68.3595 67.8271 67.3881 68.0467 67.2442 68.0833C67.2442 68.0833 67.3162 67.7173 66.9564 67.3879C66.5966 67.0584 65.805 66.546 65.805 66.0701C65.805 65.5943 66.3447 65.0086 66.5606 64.7524C66.7765 64.4595 66.9923 64.1301 66.9923 63.8739C66.9923 63.6543 66.9204 63.4346 66.5606 63.4346C66.2008 63.4346 64.2579 65.5577 63.8982 65.8871C63.5384 66.2165 62.1352 67.3879 62.1352 67.3879C62.1352 67.3879 60.4802 66.4728 60.4802 65.7407C60.4802 65.0452 61.4876 64.3131 62.0632 64.0935C62.6389 63.8739 63.8262 63.5078 63.8262 63.1052C63.8262 62.7026 63.4664 62.6293 63.2505 62.6293C63.0347 62.6293 61.4156 62.9222 60.1923 64.1667C58.9691 65.4113 58.3574 67.4611 58.3574 67.4611C58.3574 67.4611 58.1415 67.9003 58.1775 67.6075C58.2135 67.278 58.2855 66.2165 58.2855 66.0701C58.3214 65.8505 58.6093 64.8622 58.2135 64.7524C58.2135 64.7524 57.4939 64.4961 56.6304 64.8622C55.7669 65.2282 54.3638 67.0584 54.3638 68.4494C54.3638 69.8403 55.3712 69.7305 55.4072 69.7305C55.4791 69.7305 56.0908 69.7305 56.7384 68.3396C56.9902 67.8271 56.9542 67.7539 57.0982 67.7539C57.2421 67.7539 57.2061 67.9003 57.2421 68.1932C57.2781 68.486 57.386 69.7671 57.9617 69.7671C58.5373 69.7671 58.6453 68.4494 58.8611 67.7539C59.077 67.0584 59.4008 66.2531 59.5447 66.2531C59.6886 66.2531 59.9765 66.8388 60.4442 67.2048C60.9119 67.5709 61.4156 67.9735 61.4156 67.9735C61.4156 67.9735 59.149 69.1449 59.149 69.7305C59.149 70.3162 61.0199 70.1332 61.9193 69.6207C62.8188 69.1082 62.9627 68.5958 62.9267 68.1565C62.8907 67.8271 63.3225 67.6075 63.6823 67.2781C64.0421 66.9486 64.7257 66.2897 64.7976 66.2897C64.8696 66.2897 64.8336 66.5826 64.9775 66.8754C65.1214 67.1682 65.841 67.7539 66.0569 67.9369C66.3087 68.1199 66.3447 68.1565 66.3447 68.2298C66.3447 68.303 66.2368 68.3762 66.1288 68.3762C66.0209 68.3762 63.7542 68.669 63.7542 69.3279C63.7542 69.9867 65.7331 69.9501 65.877 69.9501C66.0209 69.9501 67.2442 69.7671 67.2442 68.852L68.4315 68.5958C68.4315 68.5958 68.3236 69.9867 69.7267 69.9867C71.1299 69.9867 72.1373 68.8154 72.677 68.1932C73.2167 67.5709 74.296 66.1799 74.5839 66.0335C74.5839 66.0335 74.5119 66.7656 74.5119 67.2048C74.5119 67.6441 74.5479 69.9135 76.095 69.9135C77.6421 69.9135 79.0812 67.6807 79.8728 66.6558C80.6283 65.6309 81.168 64.8988 81.5278 64.3131C81.8876 63.7275 82.3913 62.9588 82.5352 62.9588C82.6431 62.9588 82.6431 63.032 82.6072 63.3248C82.5712 63.6177 81.7796 68.7422 81.7077 69.2547C81.6357 69.7671 81.7796 69.9867 82.1394 69.9867C82.4632 69.9867 82.6072 69.9501 82.6431 69.3645C82.6791 68.7788 83.6865 61.6044 83.6865 61.6044C83.6865 61.6044 86.241 61.5678 87.968 61.5312C89.695 61.4946 91.8537 61.4946 92.1775 61.3482C92.4654 61.2384 92.6812 61.0554 92.6812 60.6161C92.6812 60.1769 92.3574 59.9939 91.9257 59.9939ZM70.3384 65.6309C70.6982 65.2282 71.0579 65.3746 71.0579 65.3746C71.4177 65.6309 71.0939 66.1067 70.95 66.2897C70.8061 66.4728 69.9066 67.3879 69.6908 67.2048C69.4749 67.0584 69.9786 66.0335 70.3384 65.6309ZM57.2061 65.7041C57.2061 65.7041 55.9109 68.669 55.5151 68.669C55.1193 68.669 55.2992 67.6441 55.695 66.8388C56.0908 66.0335 56.6664 65.5211 57.0262 65.4845C57.4579 65.4112 57.2061 65.7041 57.2061 65.7041ZM76.3109 68.9984C74.9796 68.669 75.4833 65.2282 75.6992 64.6792C75.9151 63.9471 77.6061 61.5312 77.6061 61.5312H82.5712C80.6283 65.155 77.3542 69.2913 76.3109 68.9984Z" fill="black"/>
<path d="M2.76359 20.5666C3.39586 19.9233 3.39586 18.8804 2.76359 18.2371C2.13132 17.5939 1.1062 17.5939 0.47393 18.2371C-0.158341 18.8804 -0.158341 19.9233 0.47393 20.5666C1.1062 21.2098 2.13132 21.2098 2.76359 20.5666Z" fill="#E80A4D"/>
<path d="M22.4775 9.70012C23.1097 9.05686 23.1097 8.01394 22.4775 7.37068C21.8452 6.72742 20.8201 6.72742 20.1878 7.37068C19.5555 8.01394 19.5555 9.05686 20.1878 9.70012C20.8201 10.3434 21.8452 10.3434 22.4775 9.70012Z" fill="#E80A4D"/>
<path d="M78.6496 25.7328C73.6485 23.683 76.239 15.2641 77.3184 13.2143C77.3184 13.2143 70.0866 21.8162 62.7829 21.8162C55.4432 21.8162 52.0612 11.7501 50.9819 7.28442C49.9025 11.7501 46.5205 21.8162 39.1808 21.8162C31.8411 21.8162 24.6454 13.2143 24.6454 13.2143C25.7247 15.2641 28.3152 23.683 23.3141 25.7328C18.385 27.7826 6.58398 23.2437 6.58398 23.2437C18.9607 33.8955 19.3925 44.1446 19.3925 44.1446C35.9787 41.7654 50.9459 41.8386 50.9459 41.8386C50.9459 41.8386 65.9131 41.7654 82.4993 44.1446C82.4993 44.1446 82.9311 33.8955 95.3078 23.2437C95.3438 23.2437 83.5427 27.7826 78.6496 25.7328Z" fill="#E80A4D"/>
<path d="M101.52 20.5551C102.152 19.9118 102.152 18.8689 101.52 18.2257C100.888 17.5824 99.8625 17.5824 99.2303 18.2257C98.598 18.8689 98.598 19.9118 99.2303 20.5551C99.8625 21.1984 100.888 21.1984 101.52 20.5551Z" fill="#E80A4D"/>
<path d="M81.7734 9.70793C82.4056 9.06468 82.4056 8.02175 81.7734 7.37849C81.1411 6.73524 80.116 6.73524 79.4837 7.37849C78.8514 8.02175 78.8514 9.06468 79.4837 9.70793C80.116 10.3512 81.1411 10.3512 81.7734 9.70793Z" fill="#E80A4D"/>
<path d="M52.1283 2.82121C52.7606 2.17796 52.7606 1.13503 52.1283 0.491774C51.4961 -0.151483 50.4709 -0.151483 49.8387 0.491774C49.2064 1.13503 49.2064 2.17796 49.8387 2.82121C50.4709 3.46447 51.4961 3.46447 52.1283 2.82121Z" fill="#E80A4D"/>
</g>
<defs>
<clipPath id="clip0_8_159">
<rect width="102" height="72" fill="white"/>
</clipPath>
</defs>
</svg>
