<svg width="103" height="45" viewBox="0 0 103 45" fill="none" xmlns="http://www.w3.org/2000/svg">
<path d="M3.51828 21.2413C4.14548 20.6032 4.14548 19.5687 3.51828 18.9306C2.89108 18.2925 1.87418 18.2925 1.24698 18.9306C0.619776 19.5687 0.619776 20.6032 1.24698 21.2413C1.87418 21.8794 2.89108 21.8794 3.51828 21.2413Z" fill="white"/>
<path d="M23.0744 10.462C23.7016 9.82392 23.7016 8.78936 23.0744 8.15126C22.4472 7.51316 21.4303 7.51316 20.8031 8.15126C20.1759 8.78936 20.1759 9.82392 20.8031 10.462C21.4303 11.1001 22.4472 11.1001 23.0744 10.462Z" fill="white"/>
<path d="M78.796 26.3659C73.835 24.3325 76.4047 15.9811 77.4754 13.9477C77.4754 13.9477 70.3017 22.4807 63.0565 22.4807C55.7757 22.4807 52.4208 12.4953 51.3501 8.06543C50.2793 12.4953 46.9244 22.4807 39.6436 22.4807C32.3628 22.4807 25.2247 13.9477 25.2247 13.9477C26.2954 15.9811 28.8651 24.3325 23.9041 26.3659C19.0146 28.3993 7.30811 23.8968 7.30811 23.8968C19.5856 34.4632 20.0139 44.6301 20.0139 44.6301C36.4672 42.2699 51.3144 42.3426 51.3144 42.3426C51.3144 42.3426 66.1616 42.2699 82.6148 44.6301C82.6148 44.6301 83.0431 34.4632 95.3206 23.8968C95.3563 23.8968 83.6499 28.3993 78.796 26.3659Z" fill="white"/>
<path d="M101.483 21.2296C102.11 20.5915 102.11 19.5569 101.483 18.9188C100.856 18.2807 99.839 18.2807 99.2118 18.9188C98.5846 19.5569 98.5846 20.5915 99.2118 21.2296C99.839 21.8677 100.856 21.8677 101.483 21.2296Z" fill="white"/>
<path d="M81.8943 10.4698C82.5215 9.83174 82.5215 8.79717 81.8943 8.15907C81.2671 7.52097 80.2502 7.52097 79.623 8.15907C78.9958 8.79717 78.9958 9.83174 79.623 10.4698C80.2502 11.1079 81.2671 11.1079 81.8943 10.4698Z" fill="white"/>
<path d="M52.4875 3.6378C53.1147 2.9997 53.1147 1.96514 52.4875 1.32704C51.8603 0.688939 50.8434 0.688939 50.2162 1.32704C49.589 1.96514 49.589 2.9997 50.2162 3.6378C50.8434 4.2759 51.8603 4.2759 52.4875 3.6378Z" fill="white"/>
</svg>
