<svg width="15" height="15" viewBox="0 0 15 15" fill="none" xmlns="http://www.w3.org/2000/svg">
<path d="M10.1493 6.56227C10.446 6.56227 10.6982 6.45844 10.906 6.25077C11.1137 6.04308 11.2176 5.79089 11.2176 5.4942C11.2176 5.19752 11.1137 4.9453 10.9061 4.73754C10.6984 4.5298 10.4462 4.42593 10.1495 4.42593C9.8528 4.42593 9.60058 4.52977 9.39284 4.73746C9.1851 4.94513 9.08122 5.19731 9.08122 5.49401C9.08122 5.7907 9.18507 6.04292 9.39275 6.25066C9.60042 6.4584 9.85261 6.56227 10.1493 6.56227ZM4.85051 6.56227C5.1472 6.56227 5.39942 6.45844 5.60716 6.25077C5.8149 6.04308 5.91878 5.79089 5.91878 5.4942C5.91878 5.19752 5.81493 4.9453 5.60725 4.73754C5.39957 4.5298 5.14739 4.42593 4.8507 4.42593C4.554 4.42593 4.30178 4.52977 4.09404 4.73746C3.8863 4.94513 3.78243 5.19731 3.78243 5.49401C3.78243 5.7907 3.88627 6.04292 4.09394 6.25066C4.30162 6.4584 4.55381 6.56227 4.85051 6.56227ZM7.50773 15C6.47623 15 5.50452 14.8046 4.59261 14.4137C3.68069 14.0228 2.8824 13.4848 2.19773 12.7997C1.51306 12.1145 0.9756 11.3172 0.58536 10.4077C0.19512 9.49818 0 8.52637 0 7.49227C0 6.45703 0.195443 5.48696 0.586329 4.58207C0.977201 3.67718 1.51521 2.8824 2.20034 2.19773C2.88546 1.51306 3.68278 0.9756 4.59229 0.58536C5.50182 0.19512 6.47363 0 7.50773 0C8.54297 0 9.51304 0.195443 10.4179 0.58633C11.3228 0.977202 12.1176 1.51521 12.8023 2.20034C13.4869 2.88546 14.0244 3.68114 14.4146 4.58738C14.8049 5.49361 15 6.4619 15 7.49227C15 8.52377 14.8046 9.49548 14.4137 10.4074C14.0228 11.3193 13.4848 12.1176 12.7997 12.8023C12.1145 13.4869 11.3189 14.0244 10.4126 14.4146C9.50639 14.8049 8.5381 15 7.50773 15ZM7.49973 13.9894C9.29644 13.9894 10.8272 13.357 12.0921 12.0924C13.3569 10.8277 13.9894 9.29697 13.9894 7.50027C13.9894 5.70356 13.357 4.17278 12.0924 2.90792C10.8277 1.64305 9.29697 1.01062 7.50027 1.01062C5.70356 1.01062 4.17277 1.64296 2.90792 2.90765C1.64305 4.17233 1.01061 5.70303 1.01061 7.49973C1.01061 9.29644 1.64296 10.8272 2.90765 12.0921C4.17233 13.3569 5.70303 13.9894 7.49973 13.9894ZM7.48759 11.1843C8.13123 11.1843 8.73248 11.0496 9.29133 10.7801C9.85021 10.5105 10.3332 10.1341 10.7404 9.6507C10.8219 9.52984 10.8318 9.40877 10.7701 9.28748C10.7085 9.16617 10.6106 9.10552 10.4765 9.10552H4.52535C4.38991 9.10552 4.2914 9.16617 4.22981 9.28748C4.16821 9.40877 4.17865 9.52858 4.26114 9.6469C4.65304 10.1326 5.13062 10.5103 5.69387 10.7799C6.25713 11.0495 6.85503 11.1843 7.48759 11.1843Z" fill="white"/>
</svg>
