<svg width="19" height="19" viewBox="0 0 19 19" fill="none" xmlns="http://www.w3.org/2000/svg">
<path d="M9.50234 2.96352C9.34988 2.96352 9.21859 2.90974 9.10847 2.80218C8.99835 2.69463 8.94329 2.56426 8.94329 2.41107V0.565042C8.94329 0.411867 8.99683 0.279398 9.1039 0.167639C9.21097 0.0558798 9.34073 0 9.4932 0C9.64566 0 9.7777 0.0545259 9.8893 0.163577C10.0009 0.272612 10.0567 0.403718 10.0567 0.556893V2.40294C10.0567 2.55612 10.0024 2.68784 9.89387 2.79811C9.78532 2.90839 9.65481 2.96352 9.50234 2.96352ZM14.1284 4.87165C14.0028 4.76851 13.9426 4.64198 13.948 4.49205C13.9533 4.34211 14.0164 4.21252 14.1373 4.10326L15.4118 2.79259C15.5236 2.67558 15.6529 2.61708 15.7999 2.61708C15.9469 2.61708 16.0815 2.67814 16.2036 2.80027C16.3339 2.92578 16.3978 3.05639 16.3954 3.1921C16.393 3.32782 16.3284 3.45907 16.2017 3.58586L14.8927 4.87165C14.7659 4.99844 14.6385 5.06183 14.5105 5.06183C14.3825 5.06183 14.2551 4.99844 14.1284 4.87165ZM16.5971 10.0567C16.4439 10.0567 16.3122 10.0032 16.2019 9.8961C16.0916 9.78903 16.0365 9.65927 16.0365 9.5068C16.0365 9.35434 16.0903 9.22231 16.1978 9.1107C16.3054 8.9991 16.4357 8.94329 16.5889 8.94329H18.435C18.5881 8.94329 18.7206 8.99757 18.8324 9.10613C18.9441 9.21468 19 9.34519 19 9.49766C19 9.65012 18.9455 9.78141 18.8364 9.89153C18.7274 10.0016 18.5963 10.0567 18.4431 10.0567H16.5971ZM9.50234 19C9.34988 19 9.21859 18.9462 9.10847 18.8387C8.99835 18.7311 8.94329 18.6007 8.94329 18.4476V16.6105C8.94329 16.4573 8.99683 16.3248 9.1039 16.213C9.21097 16.1013 9.34073 16.0454 9.4932 16.0454C9.64566 16.0454 9.7777 16.0999 9.8893 16.209C10.0009 16.318 10.0567 16.4491 10.0567 16.6023V18.4394C10.0567 18.5926 10.0024 18.7243 9.89387 18.8346C9.78532 18.9449 9.65481 19 9.50234 19ZM4.10772 4.87165L2.78813 3.58041C2.67112 3.47289 2.61262 3.34855 2.61262 3.2074C2.61262 3.06625 2.67304 2.9299 2.79389 2.79835C2.92544 2.69298 3.05987 2.63643 3.19716 2.62869C3.33448 2.62095 3.46256 2.6775 3.5814 2.79835L4.87613 4.11626C4.99696 4.23513 5.05931 4.36053 5.06318 4.49247C5.06705 4.62441 5.00916 4.75081 4.88952 4.87165C4.77462 4.99725 4.64485 5.06004 4.5002 5.06004C4.35555 5.06004 4.22473 4.99725 4.10772 4.87165ZM15.4231 16.2133L14.1373 14.9043C14.0164 14.7864 13.9545 14.6586 13.9516 14.5208C13.9486 14.383 14.0069 14.2537 14.1266 14.1328C14.2462 14.012 14.3755 13.9516 14.5145 13.9516C14.6535 13.9516 14.7796 14.015 14.8927 14.1417L16.2183 15.431C16.3298 15.534 16.3863 15.6588 16.3878 15.8052C16.3893 15.9516 16.33 16.0853 16.21 16.2061C16.0914 16.327 15.9602 16.3886 15.8167 16.391C15.6731 16.3933 15.5419 16.3341 15.4231 16.2133ZM0.560584 10.0567C0.407408 10.0567 0.275684 10.0032 0.16541 9.8961C0.0551367 9.78903 0 9.65927 0 9.5068C0 9.35434 0.0537824 9.22231 0.161347 9.1107C0.268912 8.9991 0.399275 8.94329 0.552435 8.94329H2.39848C2.55166 8.94329 2.68413 8.99757 2.79588 9.10613C2.90764 9.21468 2.96352 9.34519 2.96352 9.49766C2.96352 9.65012 2.909 9.78141 2.79995 9.89153C2.69091 10.0016 2.5598 10.0567 2.40661 10.0567H0.560584ZM2.8028 16.2022C2.67721 16.078 2.61292 15.9478 2.60995 15.8115C2.60698 15.6752 2.66829 15.5442 2.79389 15.4186L4.09395 14.1417C4.22074 14.0304 4.35298 13.9748 4.49066 13.9748C4.62833 13.9748 4.74842 14.0301 4.85094 14.1408C4.96118 14.2623 5.0163 14.39 5.0163 14.5239C5.0163 14.6578 4.96362 14.7852 4.85825 14.906L3.57595 16.2075C3.45874 16.3274 3.3303 16.3874 3.19062 16.3874C3.05094 16.3874 2.92167 16.3256 2.8028 16.2022ZM9.49988 14.5605C8.09425 14.5605 6.89944 14.0692 5.91546 13.0866C4.9315 12.1041 4.43952 10.91 4.43952 9.50434C4.43952 8.09871 4.9308 6.90316 5.91337 5.91769C6.89594 4.93223 8.09004 4.43949 9.49566 4.43949C10.9013 4.43949 12.0968 4.93153 13.0823 5.9156C14.0678 6.89966 14.5605 8.0945 14.5605 9.50012C14.5605 10.9058 14.0685 12.1006 13.0844 13.0845C12.1003 14.0685 10.9055 14.5605 9.49988 14.5605ZM9.49777 13.4471C10.6014 13.4471 11.5355 13.0655 12.3002 12.3024C13.0648 11.5392 13.4471 10.6059 13.4471 9.50223C13.4471 8.3986 13.0648 7.46447 12.3002 6.69984C11.5355 5.93524 10.6014 5.55293 9.49777 5.55293C8.39414 5.55293 7.46076 5.93524 6.69764 6.69984C5.9345 7.46447 5.55293 8.3986 5.55293 9.50223C5.55293 10.6059 5.9345 11.5392 6.69764 12.3024C7.46076 13.0655 8.39414 13.4471 9.49777 13.4471Z" fill="white"/>
</svg>
