<svg width="193" height="38" viewBox="0 0 193 38" fill="none" xmlns="http://www.w3.org/2000/svg">
<path d="M69.69 35.2H0V37.66H69.69V35.2Z" fill="white"/>
<path d="M67.34 8.08002H2.28998V9.13H67.34V8.08002Z" fill="white"/>
<path d="M67.34 32.92H2.28998V33.97H67.34V32.92Z" fill="white"/>
<path d="M6.58 25.8V28.1C6.58 28.79 6.02 29.35 5.33 29.35H4.97V31.13H5.33C7 31.13 8.36 29.77 8.36 28.1V14.04C8.36 12.37 7 11.01 5.33 11.01H4.97V12.79H5.33C6.02 12.79 6.58 13.35 6.58 14.04V25.8Z" fill="white"/>
<path d="M11.91 16.34V14.04C11.91 13.35 12.47 12.79 13.16 12.79H13.52V11.01H13.16C11.49 11.01 10.13 12.37 10.13 14.04V28.1C10.13 29.77 11.49 31.13 13.16 31.13H13.52V29.35H13.16C12.47 29.35 11.91 28.79 11.91 28.1V16.34Z" fill="white"/>
<path d="M23.53 25.8V28.1C23.53 28.79 22.97 29.35 22.28 29.35H21.92V31.13H22.28C23.95 31.13 25.31 29.77 25.31 28.1V14.04C25.31 12.37 23.95 11.01 22.28 11.01H21.92V12.79H22.28C22.97 12.79 23.53 13.35 23.53 14.04V25.8Z" fill="white"/>
<path d="M28.86 16.34V14.04C28.86 13.35 29.42 12.79 30.11 12.79H30.47V11.01H30.11C28.44 11.01 27.08 12.37 27.08 14.04V28.1C27.08 29.77 28.44 31.13 30.11 31.13H30.47V29.35H30.11C29.42 29.35 28.86 28.79 28.86 28.1V16.34Z" fill="white"/>
<path d="M40.2 25.8V28.1C40.2 28.79 39.64 29.35 38.95 29.35H38.59V31.13H38.95C40.62 31.13 41.98 29.77 41.98 28.1V14.04C41.98 12.37 40.62 11.01 38.95 11.01H38.59V12.79H38.95C39.64 12.79 40.2 13.35 40.2 14.04V25.8Z" fill="white"/>
<path d="M45.53 16.34V14.04C45.53 13.35 46.09 12.79 46.78 12.79H47.14V11.01H46.78C45.11 11.01 43.75 12.37 43.75 14.04V28.1C43.75 29.77 45.11 31.13 46.78 31.13H47.14V29.35H46.78C46.09 29.35 45.53 28.79 45.53 28.1V16.34Z" fill="white"/>
<path d="M57.13 25.8V28.1C57.13 28.79 56.57 29.35 55.88 29.35H55.52V31.13H55.88C57.55 31.13 58.91 29.77 58.91 28.1V14.04C58.91 12.37 57.55 11.01 55.88 11.01H55.52V12.79H55.88C56.57 12.79 57.13 13.35 57.13 14.04V25.8Z" fill="white"/>
<path d="M62.46 16.34V14.04C62.46 13.35 63.02 12.79 63.71 12.79H64.07V11.01H63.71C62.04 11.01 60.68 12.37 60.68 14.04V28.1C60.68 29.77 62.04 31.13 63.71 31.13H64.07V29.35H63.71C63.02 29.35 62.46 28.79 62.46 28.1V16.34Z" fill="white"/>
<path d="M60.77 4.69L53.2 0H16.76L9.19 4.69H0V7.14999H69.69V4.69H60.76H60.77ZM12.58 4.69L17.28 1.76999H52.68L57.38 4.69H12.57H12.58Z" fill="white"/>
<path d="M85.8499 21.46H100.17V17.05C100.17 16.57 100.03 16.18 99.75 15.89C99.47 15.6 99.0799 15.45 98.5699 15.45H82.83V18.02H97.15V19.06H82.83V22.91C82.83 23.59 83.0299 24.15 83.4399 24.61C83.8399 25.07 84.43 25.3 85.2 25.3H100.37V22.6H85.8499V21.47V21.46Z" fill="white"/>
<path d="M87.6 12.25C88.15 12.94 88.9 13.51 89.83 13.96C90.76 14.41 91.91 14.64 93.27 14.64V11.94C90.82 11.67 89.48 10.7 89.24 9.04001H93.18V6.34H89.13V4.47H86.07V6.34H82.02V9.04001H85.96C85.72 10.71 84.38 11.67 81.93 11.94V14.64C83.28 14.64 84.42 14.41 85.34 13.96C86.26 13.51 87.02 12.94 87.6 12.25Z" fill="white"/>
<path d="M97.15 14.64H100.16V5.76999H97.15V8.88H94.13V11.58H97.15V14.64Z" fill="white"/>
<path d="M115.81 16.76H122.99V14.06H109.05C108.89 14.06 108.78 14.03 108.74 13.96C108.69 13.89 108.67 13.79 108.67 13.66V8.89001C108.67 8.77001 108.69 8.67001 108.74 8.60001C108.79 8.52001 108.89 8.48999 109.06 8.48999H123.02V5.79001H108C107.67 5.79001 107.36 5.85001 107.07 5.98001C106.78 6.11001 106.54 6.28 106.33 6.5C106.13 6.72 105.96 6.96999 105.84 7.23999C105.72 7.51999 105.66 7.81002 105.66 8.11002V14.44C105.66 14.76 105.72 15.06 105.84 15.34C105.96 15.63 106.12 15.88 106.32 16.09C106.52 16.31 106.77 16.48 107.05 16.6C107.33 16.72 107.64 16.78 107.97 16.78H112.79V21.35H104.66V24.05H123.93V21.35H115.8V16.78L115.81 16.76Z" fill="white"/>
<path d="M142.8 17.79H127.94V20.49H141.38V25.28H144.4V19.38C144.4 18.9 144.25 18.51 143.96 18.22C143.67 17.93 143.28 17.78 142.8 17.78V17.79Z" fill="white"/>
<path d="M144.4 5.76999H141.38V16.73H144.4V12.59H147.57V9.89001H144.4V5.76999Z" fill="white"/>
<path d="M129.3 16.28H138.39V5.76999H135.37V8.29001H130.15V5.76999H127.13V13.74C127.13 14.1 127.19 14.43 127.3 14.74C127.41 15.05 127.57 15.32 127.76 15.55C127.96 15.78 128.18 15.96 128.45 16.09C128.71 16.22 129 16.28 129.3 16.28ZM130.15 10.99H135.37V13.58H130.15V10.99Z" fill="white"/>
<path d="M149.64 15.23H157.81V16.15H150.67V18.63H164.94V19.49H150.67V22.91C150.67 23.59 150.88 24.15 151.3 24.61C151.72 25.07 152.3 25.3 153.03 25.3H168.16V22.69H153.69V21.79H167.96V17.75C167.96 17.27 167.82 16.89 167.53 16.6C167.24 16.31 166.85 16.16 166.36 16.16H160.82V15.24H168.99V12.81H149.63V15.24L149.64 15.23Z" fill="white"/>
<path d="M153.04 11.92H167.96V7.37C167.96 6.92 167.82 6.54001 167.53 6.23001C167.24 5.92001 166.85 5.76999 166.34 5.76999H150.67V9.53C150.67 10.21 150.88 10.77 151.3 11.23C151.72 11.69 152.3 11.92 153.03 11.92H153.04ZM153.69 8.17999H164.95V9.48999H153.69V8.17999Z" fill="white"/>
<path d="M175.98 18.78H172.96V22.9C172.96 23.58 173.17 24.14 173.59 24.6C174.01 25.06 174.59 25.29 175.32 25.29H189.52V22.59H175.97V18.79L175.98 18.78Z" fill="white"/>
<path d="M189.42 10.27V5.76999H186.4V14.57H184.08V7.37C184.08 6.89 183.94 6.49999 183.65 6.20999C183.36 5.91999 182.97 5.76999 182.48 5.76999H172.15V8.47H181.06V14.57H178.07V10.72H175.05V14.57H171.61V17.27H186.4V19.39H189.42V12.97H192.59V10.27H189.42Z" fill="white"/>
<path d="M87.46 35.41C87.23 34.51 86.9 33.97 86.47 33.78C86.79 33.67 87.08 33.43 87.36 33.06C87.64 32.67 87.78 32.23 87.78 31.76C87.78 30.19 86.72 29.41 84.6 29.41C84.22 29.41 83.85 29.43 83.48 29.46C83.11 29.49 82.74 29.54 82.37 29.6V37.72H83.81V34.35H84.57C85 34.35 85.33 34.48 85.57 34.74C85.75 34.92 85.9 35.26 86.01 35.75C86.25 36.8 86.44 37.46 86.57 37.72H88.12C87.98 37.47 87.85 37.08 87.72 36.56L87.45 35.41H87.46ZM85.82 32.87C85.55 33.07 85.18 33.18 84.7 33.18H83.81V30.69C83.93 30.64 84.23 30.61 84.7 30.61C85.77 30.61 86.31 31.03 86.31 31.87C86.31 32.3 86.15 32.64 85.82 32.88V32.87Z" fill="white"/>
<path d="M93.62 36.23V34.09C93.62 32.43 92.82 31.6 91.21 31.6C90.39 31.6 89.67 31.78 89.04 32.15L89.37 33.21C89.84 32.9 90.36 32.74 90.95 32.74C91.74 32.74 92.13 33.06 92.13 33.69V33.78C91.23 33.78 90.48 33.92 89.88 34.2C89.07 34.59 88.67 35.21 88.67 36.08C88.67 36.35 88.72 36.59 88.81 36.81C88.9 37.03 89.04 37.22 89.2 37.37C89.37 37.53 89.57 37.65 89.8 37.73C90.03 37.81 90.28 37.86 90.54 37.86C91.28 37.86 91.85 37.61 92.27 37.12L92.37 37.73H93.74C93.7 37.55 93.68 37.33 93.66 37.09C93.64 36.85 93.63 36.56 93.63 36.25L93.62 36.23ZM92.18 35.63C92.18 35.78 92.15 35.93 92.08 36.06C92.01 36.19 91.92 36.31 91.81 36.4C91.7 36.5 91.57 36.57 91.42 36.63C91.27 36.68 91.12 36.71 90.96 36.71C90.41 36.71 90.14 36.44 90.14 35.9C90.14 35.19 90.82 34.84 92.18 34.84V35.63Z" fill="white"/>
<path d="M95.85 29.17C95.59 29.17 95.39 29.25 95.22 29.4C95.06 29.56 94.97 29.77 94.97 30.05C94.97 30.33 95.05 30.55 95.21 30.71C95.37 30.86 95.57 30.94 95.83 30.94C96.09 30.94 96.29 30.86 96.46 30.7C96.63 30.54 96.72 30.33 96.72 30.05C96.72 29.77 96.64 29.56 96.47 29.4C96.3 29.24 96.09 29.17 95.85 29.17Z" fill="white"/>
<path d="M96.6 31.71H95.11V37.71H96.6V31.71Z" fill="white"/>
<path d="M99.61 29.04H98.14V37.72H99.61V29.04Z" fill="white"/>
<path d="M103.02 31.98C102.74 32.21 102.55 32.49 102.43 32.8L102.38 31.72H101.11V32.44C101.11 32.54 101.11 32.64 101.12 32.74C101.12 32.94 101.13 33.11 101.14 33.27C101.14 33.43 101.14 33.56 101.14 33.68V37.73H102.63V34.64C102.63 34.49 102.64 34.33 102.66 34.18C102.8 33.43 103.23 33.05 103.94 33.05C104.02 33.05 104.1 33.05 104.18 33.07C104.26 33.08 104.34 33.1 104.43 33.11V31.64C104.35 31.61 104.23 31.6 104.06 31.6C103.67 31.6 103.33 31.73 103.03 31.98H103.02Z" fill="white"/>
<path d="M107.61 31.59C106.68 31.59 105.95 31.88 105.4 32.46C104.86 33.04 104.59 33.81 104.59 34.76C104.59 35.71 104.86 36.42 105.4 37C105.94 37.56 106.65 37.84 107.54 37.84C108.43 37.84 109.19 37.54 109.73 36.95C110.28 36.36 110.55 35.59 110.55 34.64C110.55 33.69 110.28 32.99 109.75 32.43C109.21 31.86 108.5 31.58 107.61 31.58V31.59ZM108.68 36.04C108.4 36.48 108.02 36.7 107.54 36.7C107.06 36.7 106.68 36.49 106.4 36.05C106.18 35.69 106.07 35.26 106.07 34.74C106.07 34.22 106.18 33.76 106.4 33.41C106.67 32.97 107.06 32.75 107.56 32.75C108.06 32.75 108.43 32.97 108.69 33.41C108.91 33.76 109.02 34.2 109.02 34.72C109.02 35.24 108.91 35.66 108.68 36.04Z" fill="white"/>
<path d="M116.25 36.23V34.09C116.25 32.43 115.45 31.6 113.84 31.6C113.02 31.6 112.3 31.78 111.67 32.15L112 33.21C112.47 32.9 112.99 32.74 113.58 32.74C114.37 32.74 114.76 33.06 114.76 33.69V33.78C113.86 33.78 113.11 33.92 112.51 34.2C111.7 34.59 111.3 35.21 111.3 36.08C111.3 36.35 111.35 36.59 111.44 36.81C111.53 37.03 111.67 37.22 111.83 37.37C112 37.53 112.2 37.65 112.43 37.73C112.66 37.81 112.91 37.86 113.17 37.86C113.91 37.86 114.48 37.61 114.9 37.12L115 37.73H116.37C116.33 37.55 116.31 37.33 116.29 37.09C116.27 36.84 116.26 36.56 116.26 36.25L116.25 36.23ZM114.81 35.63C114.81 35.78 114.78 35.93 114.71 36.06C114.64 36.19 114.55 36.31 114.44 36.4C114.33 36.49 114.2 36.57 114.05 36.63C113.9 36.68 113.75 36.71 113.59 36.71C113.04 36.71 112.77 36.44 112.77 35.9C112.77 35.19 113.45 34.84 114.81 34.84V35.63Z" fill="white"/>
<path d="M123.17 36.03V29.03H121.68V32.27C121.38 31.82 120.84 31.59 120.05 31.59C119.2 31.59 118.54 31.92 118.05 32.57C117.6 33.2 117.37 33.94 117.37 34.8C117.37 35.66 117.59 36.35 118.03 36.92C118.49 37.53 119.12 37.84 119.92 37.84C120.82 37.84 121.45 37.52 121.83 36.88L121.88 37.71H123.21C123.2 37.48 123.18 37.22 123.17 36.94C123.16 36.66 123.15 36.35 123.15 36.03H123.17ZM121.68 35.14C121.68 35.32 121.67 35.46 121.64 35.54C121.56 35.87 121.41 36.13 121.18 36.31C120.95 36.49 120.67 36.59 120.34 36.59C119.85 36.59 119.47 36.4 119.2 36.02C118.98 35.69 118.87 35.27 118.87 34.75C118.87 34.23 118.98 33.79 119.2 33.45C119.48 33.04 119.86 32.84 120.36 32.84C121.05 32.84 121.48 33.18 121.64 33.87C121.67 33.93 121.68 34.05 121.68 34.24V35.14Z" fill="white"/>
<path d="M133.64 29.47L132.44 32.89C132.34 33.17 132.25 33.44 132.17 33.69C132.09 33.94 132.02 34.17 131.96 34.38L131.62 35.57C131.53 35.11 131.42 34.66 131.29 34.21C131.17 33.77 131.03 33.32 130.89 32.89L129.75 29.47H127.88L127.33 37.71H128.72L129.05 31.2C129.15 31.64 129.26 32.1 129.39 32.57C129.51 33.04 129.66 33.53 129.83 34.04L130.99 37.64H132.09L133.35 34C133.5 33.56 133.65 33.11 133.8 32.63C133.95 32.15 134.11 31.65 134.28 31.13L134.36 33.02V34.3L134.56 37.71H135.99L135.52 29.47H133.65H133.64Z" fill="white"/>
<path d="M142.62 31.71H141.15V35.31C141.15 35.48 141.12 35.63 141.06 35.77C140.83 36.31 140.44 36.58 139.9 36.58C139.17 36.58 138.8 36.03 138.8 34.92V31.72H137.33V35.25C137.33 36.98 138.02 37.85 139.4 37.85C140.23 37.85 140.87 37.53 141.3 36.9L141.37 37.72H142.68L142.61 36.89V31.72L142.62 31.71Z" fill="white"/>
<path d="M146.38 34.11C146.21 34.04 146.07 33.99 145.96 33.94C145.85 33.89 145.77 33.85 145.71 33.83C145.49 33.69 145.38 33.52 145.38 33.32C145.38 32.94 145.65 32.75 146.2 32.75C146.62 32.75 147.02 32.87 147.42 33.12L147.76 31.98C147.33 31.73 146.8 31.6 146.16 31.6C145.58 31.6 145.07 31.75 144.64 32.05C144.17 32.41 143.94 32.88 143.94 33.48C143.94 34.27 144.49 34.87 145.58 35.26C145.89 35.38 146.11 35.48 146.24 35.55C146.44 35.69 146.55 35.87 146.55 36.09C146.55 36.5 146.23 36.7 145.59 36.7C145.09 36.7 144.59 36.55 144.1 36.26L143.77 37.4C144.31 37.7 144.91 37.85 145.58 37.85C146.25 37.85 146.77 37.72 147.19 37.46C147.71 37.12 147.97 36.62 147.97 35.96C147.97 35.11 147.44 34.5 146.37 34.11H146.38Z" fill="white"/>
<path d="M151.63 31.58C150.74 31.58 150.03 31.89 149.51 32.52C149.01 33.13 148.77 33.89 148.77 34.81C148.77 35.28 148.84 35.71 148.98 36.08C149.12 36.45 149.32 36.77 149.58 37.03C149.84 37.29 150.16 37.49 150.53 37.63C150.9 37.77 151.32 37.84 151.78 37.84C152.51 37.84 153.2 37.71 153.86 37.46L153.61 36.36C153.35 36.45 153.08 36.52 152.81 36.56C152.54 36.61 152.26 36.63 151.98 36.63C151.45 36.63 151.02 36.5 150.7 36.24C150.36 35.95 150.2 35.59 150.2 35.15H154.11C154.15 34.89 154.18 34.67 154.18 34.48C154.18 33.64 153.96 32.95 153.53 32.41C153.08 31.85 152.45 31.57 151.64 31.57L151.63 31.58ZM150.18 34.01C150.19 33.84 150.24 33.69 150.31 33.54C150.38 33.39 150.47 33.25 150.59 33.1C150.82 32.82 151.14 32.68 151.53 32.68C151.92 32.68 152.26 32.83 152.48 33.12C152.67 33.38 152.76 33.67 152.76 34.01H150.18Z" fill="white"/>
<path d="M160.55 31.71H159.08V35.31C159.08 35.48 159.05 35.63 158.99 35.77C158.76 36.31 158.37 36.58 157.83 36.58C157.1 36.58 156.73 36.03 156.73 34.92V31.72H155.26V35.25C155.26 36.98 155.95 37.85 157.33 37.85C158.16 37.85 158.8 37.53 159.23 36.9L159.3 37.72H160.61L160.54 36.89V31.72L160.55 31.71Z" fill="white"/>
<path d="M170.33 32.41C169.98 31.86 169.46 31.59 168.78 31.59C167.99 31.59 167.35 31.95 166.86 32.66C166.58 31.95 166.04 31.59 165.22 31.59C164.4 31.59 163.83 31.9 163.4 32.53L163.33 31.71H162.07C162.07 31.84 162.07 31.99 162.07 32.14C162.07 32.3 162.07 32.47 162.09 32.66C162.11 32.85 162.1 33.02 162.11 33.16C162.11 33.3 162.11 33.42 162.11 33.53V37.72H163.55V34.22C163.55 34.04 163.58 33.87 163.63 33.71C163.68 33.55 163.76 33.41 163.85 33.28C163.95 33.16 164.07 33.06 164.21 32.99C164.35 32.92 164.51 32.88 164.69 32.88C165.38 32.88 165.72 33.36 165.72 34.33V37.72H167.16V34.16C167.16 34.05 167.16 33.96 167.18 33.88C167.19 33.8 167.21 33.73 167.22 33.67C167.4 33.15 167.75 32.88 168.26 32.88C168.97 32.88 169.32 33.42 169.32 34.49V37.73H170.76V34.22C170.76 33.48 170.61 32.88 170.31 32.43L170.33 32.41Z" fill="white"/>
</svg>
