<svg width="137" height="103" viewBox="0 0 137 103" fill="none" xmlns="http://www.w3.org/2000/svg">
<path d="M112.487 45.249H25.2714V48.4056H112.487V45.249Z" fill="white"/>
<path d="M109.54 10.3962H28.1339V11.7573H109.54V10.3962Z" fill="white"/>
<path d="M109.54 42.3098H28.1339V43.6709H109.54V42.3098Z" fill="white"/>
<path d="M33.4922 33.1586V36.1125C33.4922 36.9957 32.7871 37.7198 31.9269 37.7198H31.4757V40.0075H31.9269C34.0139 40.0075 35.7202 38.2555 35.7202 36.1125V18.0417C35.7202 15.8987 34.0139 14.1467 31.9269 14.1467H31.4757V16.4345H31.9269C32.7871 16.4345 33.4922 17.1585 33.4922 18.0417V33.1586Z" fill="white"/>
<path d="M40.1762 21.0101V18.0562C40.1762 17.1729 40.8813 16.449 41.7415 16.449H42.1927V14.1611H41.7415C39.6545 14.1611 37.9482 15.9132 37.9482 18.0562V36.1269C37.9482 38.2699 39.6545 40.022 41.7415 40.022H42.1927V37.7342H41.7415C40.8813 37.7342 40.1762 37.0102 40.1762 36.1269V21.0101Z" fill="white"/>
<path d="M54.7146 33.1586V36.1125C54.7146 36.9957 54.0095 37.7198 53.1494 37.7198H52.6981V40.0075H53.1494C55.2363 40.0075 56.9426 38.2555 56.9426 36.1125V18.0417C56.9426 15.8987 55.2363 14.1467 53.1494 14.1467H52.6981V16.4345H53.1494C54.0095 16.4345 54.7146 17.1585 54.7146 18.0417V33.1586Z" fill="white"/>
<path d="M61.3986 21.0101V18.0562C61.3986 17.1729 62.1037 16.449 62.9639 16.449H63.4151V14.1611H62.9639C60.8769 14.1611 59.1707 15.9132 59.1707 18.0562V36.1269C59.1707 38.2699 60.8769 40.022 62.9639 40.022H63.4151V37.7342H62.9639C62.1037 37.7342 61.3986 37.0102 61.3986 36.1269V21.0101Z" fill="white"/>
<path d="M75.5844 33.1586V36.1125C75.5844 36.9957 74.8794 37.7198 74.0192 37.7198H73.5679V40.0075H74.0192C76.1062 40.0075 77.8124 38.2555 77.8124 36.1125V18.0417C77.8124 15.8987 76.1062 14.1467 74.0192 14.1467H73.5679V16.4345H74.0192C74.8794 16.4345 75.5844 17.1585 75.5844 18.0417V33.1586Z" fill="white"/>
<path d="M82.2544 21.0101V18.0562C82.2544 17.1729 82.9594 16.449 83.8196 16.449H84.2708V14.1611H83.8196C81.7326 14.1611 80.0264 15.9132 80.0264 18.0562V36.1269C80.0264 38.2699 81.7326 40.022 83.8196 40.022H84.2708V37.7342H83.8196C82.9594 37.7342 82.2544 37.0102 82.2544 36.1269V21.0101Z" fill="white"/>
<path d="M96.7644 33.1586V36.1125C96.7644 36.9957 96.0594 37.7198 95.1992 37.7198H94.748V40.0075H95.1992C97.2862 40.0075 98.9924 38.2555 98.9924 36.1125V18.0417C98.9924 15.8987 97.2862 14.1467 95.1992 14.1467H94.748V16.4345H95.1992C96.0594 16.4345 96.7644 17.1585 96.7644 18.0417V33.1586Z" fill="white"/>
<path d="M103.449 21.0101V18.0562C103.449 17.1729 104.154 16.449 105.014 16.449H105.465V14.1611H105.014C102.927 14.1611 101.221 15.9132 101.221 18.0562V36.1269C101.221 38.2699 102.927 40.022 105.014 40.022H105.465V37.7342H105.014C104.154 37.7342 103.449 37.0102 103.449 36.1269V21.0101Z" fill="white"/>
<path d="M101.319 6.03807L91.8431 0H46.2398L36.7638 6.03807H25.2713V9.19465H112.487V6.03807H101.319ZM41.0083 6.03807L46.9026 2.28783H91.2086L97.1029 6.03807H41.0224H41.0083Z" fill="white"/>
<path d="M5.07861 82.3468H22.7474V76.7576C22.7474 76.1495 22.5782 75.6572 22.2398 75.2807C21.9014 74.9042 21.4078 74.7305 20.7874 74.7305H1.3559V77.9884H19.0247V79.3061H1.3559V84.1857C1.3559 85.04 1.60973 85.764 2.10327 86.3432C2.59681 86.9224 3.33006 87.212 4.27485 87.212H23.0013V83.7948H5.07861V82.3613V82.3468Z" fill="white"/>
<path d="M7.25 70.6756C7.94096 71.5444 8.85754 72.2684 9.99974 72.8476C11.1419 73.4268 12.5662 73.7019 14.2583 73.7019V70.2847C11.2406 69.9372 9.5767 68.7209 9.28057 66.6068H14.1455V63.1896H9.13956V60.8149H5.36044V63.1896H0.354506V66.6068H5.21943C4.9233 68.7209 3.25936 69.9517 0.241699 70.2847V73.7019C1.90564 73.7019 3.31577 73.4123 4.45796 72.8476C5.60016 72.2829 6.53083 71.5589 7.25 70.6756Z" fill="white"/>
<path d="M19.0386 73.6875H22.7614V62.4512H19.0386V66.3897H15.3159V69.8069H19.0386V73.6875Z" fill="white"/>
<path d="M42.0799 76.3807H50.9495V72.9635H33.746C33.5486 72.9635 33.4076 72.92 33.3512 72.8332C33.2948 72.7463 33.2666 72.6159 33.2666 72.4422V66.3897C33.2666 66.2304 33.2948 66.1145 33.3512 66.0132C33.4076 65.9118 33.5345 65.8684 33.746 65.8684H50.9777V62.4512H32.4346C32.0257 62.4512 31.645 62.5381 31.2924 62.6973C30.9399 62.8566 30.6297 63.0738 30.3758 63.3489C30.122 63.624 29.9246 63.9426 29.7695 64.2901C29.6144 64.6376 29.5439 65.0141 29.5439 65.3906V73.4124C29.5439 73.8178 29.6144 74.1943 29.7695 74.5563C29.9105 74.9183 30.122 75.2368 30.3617 75.5119C30.6156 75.787 30.9117 76.0042 31.2642 76.149C31.6167 76.2938 31.9975 76.3807 32.4064 76.3807H38.3571V82.1726H28.3312V85.5898H52.1199V82.1726H42.0939V76.3807H42.0799Z" fill="white"/>
<path d="M75.4012 77.6841H57.0555V81.1013H73.6527V87.1828H77.3754V79.7113C77.3754 79.1031 77.1921 78.6108 76.8395 78.2343C76.487 77.8578 76.0076 77.6841 75.4012 77.6841Z" fill="white"/>
<path d="M77.3755 62.4512H73.6387V76.3517H77.3755V71.0956H81.2815V67.6784H77.3755V62.4512Z" fill="white"/>
<path d="M58.7336 75.7726H69.9582V62.4512H66.2355V65.6512H59.7912V62.4512H56.0685V72.5581C56.0685 73.0214 56.139 73.4413 56.28 73.8323C56.421 74.2232 56.6043 74.5707 56.8441 74.8603C57.0838 75.1499 57.3658 75.3816 57.6901 75.5409C58.0145 75.7002 58.367 75.787 58.7336 75.787V75.7726ZM59.7771 69.0684H66.2213V72.3553H59.7771V69.0684Z" fill="white"/>
<path d="M83.848 74.4405H93.9303V75.6134H85.1171V78.7555H102.744V79.8415H85.1171V84.1854C85.1171 85.0397 85.3709 85.7637 85.8926 86.3429C86.4144 86.9221 87.1194 87.2117 88.036 87.2117H106.706V83.8958H88.8398V82.7519H106.466V77.6406C106.466 77.0324 106.283 76.5401 105.945 76.1781C105.592 75.8161 105.113 75.6279 104.492 75.6279H97.653V74.455H107.735V71.3708H83.8339V74.455L83.848 74.4405Z" fill="white"/>
<path d="M88.0358 70.2413H106.466V64.4783C106.466 63.9136 106.283 63.4213 105.944 63.0304C105.592 62.6394 105.098 62.4512 104.478 62.4512H85.1309V67.215C85.1309 68.0693 85.3847 68.7933 85.9065 69.3725C86.4282 69.9517 87.1333 70.2413 88.0499 70.2413H88.0358ZM88.8536 65.5064H102.743V67.1571H88.8536V65.5064Z" fill="white"/>
<path d="M116.365 78.9438H112.642V84.171C112.642 85.0253 112.896 85.7493 113.418 86.3285C113.94 86.9077 114.645 87.1973 115.561 87.1973H133.103V83.7801H116.379V78.9583L116.365 78.9438Z" fill="white"/>
<path d="M132.948 68.1562V62.4512H129.226V73.615H126.363V64.4783C126.363 63.8702 126.18 63.3779 125.841 63.0014C125.489 62.6249 125.009 62.4512 124.403 62.4512H111.641V65.8684H122.64V73.6006H118.946V68.7209H115.223V73.6006H110.965V77.0178H129.226V79.6966H132.948V71.5589H136.868V68.1417H132.948V68.1562Z" fill="white"/>
<path d="M20.1387 99.7078C19.8567 98.5639 19.4337 97.8689 18.9119 97.6227C19.3068 97.4779 19.6734 97.1738 20.0259 96.696C20.3784 96.1892 20.5477 95.639 20.5477 95.0308C20.5477 93.0326 19.2221 92.019 16.5852 92.019C16.1199 92.019 15.6545 92.0335 15.1892 92.0769C14.738 92.1204 14.2726 92.1783 13.8073 92.2507V102.647H15.6122V98.3322H16.557C17.0929 98.3322 17.5018 98.506 17.812 98.839C18.0376 99.0707 18.221 99.505 18.362 100.128C18.6581 101.474 18.8978 102.314 19.0529 102.647H20.9848C20.8156 102.314 20.6464 101.822 20.4772 101.17L20.1387 99.7078ZM18.1082 96.4498C17.7697 96.7105 17.3044 96.8408 16.7121 96.8408H15.6122V93.6552C15.7673 93.5828 16.134 93.5539 16.7121 93.5539C18.0517 93.5539 18.7145 94.0896 18.7145 95.1611C18.7145 95.7114 18.5171 96.1458 18.1082 96.4498Z" fill="white"/>
<path d="M27.824 100.75V98.0136C27.824 95.8851 26.8228 94.8281 24.8205 94.8281C23.8052 94.8281 22.9027 95.0598 22.1271 95.5231L22.5361 96.8842C23.1142 96.4788 23.777 96.2761 24.4961 96.2761C25.4832 96.2761 25.9768 96.6815 25.9768 97.4924V97.6082C24.8487 97.6082 23.918 97.782 23.1706 98.144C22.1694 98.6363 21.6618 99.4471 21.6618 100.548C21.6618 100.895 21.7182 101.199 21.8451 101.489C21.972 101.778 22.1271 102.01 22.3387 102.213C22.5502 102.415 22.7899 102.56 23.086 102.676C23.3681 102.777 23.6783 102.835 24.0026 102.835C24.9192 102.835 25.6383 102.517 26.1601 101.88L26.287 102.662H27.9932C27.9509 102.43 27.9086 102.155 27.8945 101.836C27.8804 101.518 27.8663 101.156 27.8663 100.765L27.824 100.75ZM26.0191 99.9829C26.0191 100.186 25.9768 100.359 25.8922 100.533C25.8076 100.707 25.6948 100.852 25.5537 100.968C25.4127 101.098 25.2435 101.185 25.0743 101.257C24.891 101.329 24.6936 101.358 24.4961 101.358C23.8052 101.358 23.4668 101.011 23.4668 100.33C23.4668 99.4327 24.3128 98.9693 26.0191 98.9693V99.9829Z" fill="white"/>
<path d="M30.6017 91.7148C30.2774 91.7148 30.0236 91.8162 29.8121 92.019C29.6005 92.2217 29.5018 92.4968 29.5018 92.8588C29.5018 93.2208 29.6005 93.4958 29.798 93.6986C29.9954 93.9013 30.2492 93.9882 30.5735 93.9882C30.8979 93.9882 31.1517 93.8868 31.3632 93.6841C31.5747 93.4814 31.6875 93.2063 31.6875 92.8588C31.6875 92.5112 31.5888 92.2217 31.3773 92.019C31.1658 91.8162 30.912 91.7148 30.6017 91.7148Z" fill="white"/>
<path d="M31.5184 94.9727H29.6711V102.647H31.5184V94.9727Z" fill="white"/>
<path d="M35.2692 91.541H33.4501V102.647H35.2692V91.541Z" fill="white"/>
<path d="M39.5421 95.3059C39.2037 95.6099 38.9499 95.9575 38.8088 96.3484L38.7383 94.9584H37.159V95.8706C37.159 96.0009 37.159 96.1312 37.159 96.2615C37.159 96.5077 37.1731 96.7394 37.1731 96.9421C37.1731 97.1448 37.1731 97.3185 37.1731 97.4633V102.633H39.0204V98.6796C39.0204 98.4769 39.0204 98.2887 39.0627 98.086C39.2319 97.1303 39.7677 96.638 40.6561 96.638C40.7548 96.638 40.8535 96.638 40.9522 96.667C41.0509 96.6815 41.1496 96.7104 41.2625 96.7249V94.857C41.1637 94.8136 41.0086 94.7991 40.7971 94.7991C40.3177 94.7991 39.8946 94.9583 39.5139 95.2914L39.5421 95.3059Z" fill="white"/>
<path d="M45.2528 94.8135C44.0965 94.8135 43.1799 95.1899 42.503 95.9284C41.8262 96.6813 41.4877 97.6515 41.4877 98.8678C41.4877 100.084 41.8262 100.996 42.503 101.735C43.1799 102.459 44.0683 102.806 45.1681 102.806C46.268 102.806 47.2269 102.43 47.8897 101.677C48.5665 100.924 48.905 99.9393 48.905 98.723C48.905 97.5067 48.5665 96.609 47.9038 95.8995C47.2269 95.1755 46.3386 94.8135 45.2387 94.8135H45.2528ZM46.5783 100.519C46.2257 101.083 45.7463 101.358 45.1681 101.358C44.59 101.358 44.0965 101.083 43.7439 100.533C43.476 100.07 43.335 99.5194 43.335 98.8533C43.335 98.1873 43.476 97.5936 43.7439 97.1447C44.0824 96.58 44.5618 96.3049 45.1823 96.3049C45.8027 96.3049 46.268 96.58 46.5924 97.1447C46.8603 97.5936 47.0013 98.1583 47.0013 98.8244C47.0013 99.4904 46.8603 100.026 46.5783 100.519Z" fill="white"/>
<path d="M56.0263 100.75V98.0136C56.0263 95.8851 55.0251 94.8281 53.0227 94.8281C52.0075 94.8281 51.105 95.0598 50.3153 95.5231L50.7243 96.8842C51.3024 96.4788 51.9652 96.2761 52.6843 96.2761C53.6714 96.2761 54.165 96.6815 54.165 97.4924V97.6082C53.0369 97.6082 52.1062 97.782 51.3588 98.144C50.3576 98.6363 49.85 99.4471 49.85 100.548C49.85 100.895 49.9064 101.199 50.0333 101.489C50.1461 101.764 50.3153 102.01 50.5268 102.213C50.7384 102.415 50.9781 102.56 51.2742 102.676C51.5562 102.777 51.8665 102.835 52.1908 102.835C53.1074 102.835 53.8265 102.517 54.3483 101.88L54.4752 102.662H56.1814C56.1391 102.43 56.0968 102.155 56.0827 101.836C56.0545 101.518 56.0545 101.156 56.0545 100.765L56.0263 100.75ZM54.2214 99.9829C54.2214 100.186 54.179 100.359 54.0944 100.533C54.0098 100.707 53.897 100.852 53.756 100.968C53.615 101.083 53.4458 101.185 53.2766 101.257C53.0933 101.329 52.8958 101.358 52.6984 101.358C52.0075 101.358 51.669 101.011 51.669 100.33C51.669 99.4327 52.5151 98.9693 54.2214 98.9693V99.9829Z" fill="white"/>
<path d="M64.6421 100.504V91.5557H62.7948V95.6969C62.4282 95.1177 61.7513 94.8281 60.7642 94.8281C59.7066 94.8281 58.8747 95.248 58.2683 96.0878C57.7043 96.8842 57.4222 97.8399 57.4222 98.9403C57.4222 100.041 57.6902 100.924 58.2401 101.648C58.8183 102.43 59.5938 102.821 60.595 102.821C61.709 102.821 62.5128 102.415 62.9781 101.59L63.0486 102.647H64.7126C64.6985 102.343 64.6844 102.024 64.6703 101.662C64.6562 101.301 64.6562 100.91 64.6562 100.49L64.6421 100.504ZM62.7807 99.3458C62.7807 99.5775 62.7666 99.7512 62.7243 99.867C62.6256 100.287 62.4282 100.62 62.1461 100.852C61.8641 101.083 61.5116 101.214 61.1027 101.214C60.4963 101.214 60.0169 100.967 59.6925 100.49C59.4246 100.07 59.2836 99.534 59.2836 98.8679C59.2836 98.2019 59.4246 97.6371 59.6925 97.2028C60.031 96.6815 60.5245 96.4208 61.1309 96.4208C61.991 96.4208 62.5269 96.8552 62.7243 97.7385C62.7666 97.8109 62.7807 97.9702 62.7807 98.2164V99.3602V99.3458Z" fill="white"/>
<path d="M77.6856 92.1058L76.1909 96.4787C76.064 96.8407 75.9512 97.1882 75.8524 97.5067C75.7537 97.8253 75.6691 98.1149 75.5986 98.39L75.1756 99.9104C75.0628 99.3167 74.9218 98.7375 74.7667 98.1728C74.6115 97.6081 74.4423 97.0434 74.259 96.4787L72.8348 92.1058H70.5081L69.8312 102.662H71.5657L71.9746 94.3357C72.1015 94.9004 72.2425 95.4941 72.3977 96.0877C72.5528 96.6959 72.7361 97.3185 72.9476 97.9701L74.3859 102.575H75.7678L77.3331 97.9122C77.5164 97.3474 77.6997 96.7683 77.8971 96.1601C78.0945 95.552 78.292 94.9149 78.4894 94.2343L78.5881 96.6524V98.2886L78.8278 102.647H80.6187L80.0264 92.0913H77.6997L77.6856 92.1058Z" fill="white"/>
<path d="M88.8682 94.9727H87.0491V99.5773C87.0491 99.7944 87.0068 99.9826 86.9363 100.171C86.6402 100.866 86.1607 101.213 85.4839 101.213C84.5673 101.213 84.1161 100.504 84.1161 99.0849V94.9872H82.297V99.5048C82.297 101.72 83.1572 102.835 84.8775 102.835C85.9069 102.835 86.6966 102.43 87.2465 101.619L87.3311 102.661H88.9669L88.8823 101.604V94.9872L88.8682 94.9727Z" fill="white"/>
<path d="M93.5637 98.0426C93.3522 97.9557 93.183 97.8833 93.042 97.8254C92.9009 97.7675 92.8022 97.7096 92.7317 97.6806C92.4638 97.5068 92.3228 97.2897 92.3228 97.029C92.3228 96.5512 92.6612 96.305 93.3381 96.305C93.8598 96.305 94.3675 96.4643 94.861 96.7829L95.2841 95.3204C94.7482 94.9874 94.0855 94.8281 93.2958 94.8281C92.5625 94.8281 91.9421 95.0164 91.4062 95.4073C90.8281 95.8707 90.532 96.4788 90.532 97.2462C90.532 98.2598 91.2088 99.0273 92.5766 99.534C92.9715 99.6933 93.2394 99.8236 93.3945 99.9105C93.6483 100.084 93.7752 100.316 93.7752 100.591C93.7752 101.112 93.3804 101.373 92.5766 101.373C91.9562 101.373 91.3357 101.185 90.7294 100.808L90.3204 102.271C90.9973 102.647 91.7447 102.85 92.5766 102.85C93.4086 102.85 94.0573 102.676 94.579 102.343C95.2277 101.909 95.552 101.272 95.552 100.432C95.552 99.3458 94.8892 98.5639 93.5637 98.0716V98.0426Z" fill="white"/>
<path d="M100.107 94.7991C98.9925 94.7991 98.1183 95.2045 97.4696 96.0009C96.8492 96.7683 96.5389 97.7529 96.5389 98.9258C96.5389 99.534 96.6235 100.07 96.7928 100.562C96.962 101.054 97.2158 101.445 97.5401 101.778C97.8644 102.111 98.2593 102.358 98.7246 102.546C99.19 102.72 99.7117 102.806 100.276 102.806C101.178 102.806 102.052 102.647 102.87 102.314L102.56 100.91C102.236 101.025 101.897 101.112 101.559 101.17C101.221 101.228 100.882 101.257 100.53 101.257C99.8668 101.257 99.331 101.098 98.9361 100.765C98.5131 100.403 98.3157 99.9394 98.3157 99.3747H103.195C103.251 99.0416 103.279 98.7521 103.279 98.5204C103.279 97.4489 103.011 96.5656 102.476 95.8706C101.911 95.1466 101.122 94.7991 100.121 94.7991H100.107ZM98.3016 97.9122C98.3157 97.695 98.3721 97.4923 98.4567 97.3041C98.5413 97.1158 98.6541 96.9276 98.8092 96.7394C99.1054 96.3918 99.4861 96.2036 99.9796 96.2036C100.473 96.2036 100.882 96.3919 101.164 96.7683C101.404 97.1014 101.517 97.4778 101.517 97.8978H98.3016V97.9122Z" fill="white"/>
<path d="M111.218 94.9727H109.399V99.5773C109.399 99.7944 109.357 99.9826 109.286 100.171C108.99 100.866 108.511 101.213 107.834 101.213C106.917 101.213 106.466 100.504 106.466 99.0849V94.9872H104.647V99.5048C104.647 101.72 105.507 102.835 107.228 102.835C108.257 102.835 109.047 102.43 109.597 101.619L109.681 102.661H111.317L111.232 101.604V94.9872L111.218 94.9727Z" fill="white"/>
<path d="M123.402 95.8706C122.965 95.1756 122.316 94.8281 121.47 94.8281C120.483 94.8281 119.693 95.2915 119.073 96.2037C118.734 95.2915 118.043 94.8281 117.028 94.8281C116.013 94.8281 115.308 95.2335 114.772 96.0299L114.687 94.9874H113.122C113.122 95.1611 113.122 95.3349 113.122 95.5376C113.122 95.7403 113.122 95.9575 113.136 96.2037C113.15 96.4498 113.15 96.6526 113.15 96.8408C113.15 97.029 113.15 97.1738 113.15 97.3041V102.662H114.955V98.1874C114.955 97.9557 114.983 97.7385 115.054 97.5358C115.124 97.3331 115.209 97.1449 115.336 96.9856C115.463 96.8263 115.604 96.696 115.787 96.6091C115.971 96.5222 116.168 96.4643 116.379 96.4643C117.24 96.4643 117.663 97.0869 117.663 98.3177V102.662H119.468V98.1005C119.468 97.9557 119.468 97.8399 119.496 97.7385C119.51 97.6372 119.538 97.5503 119.552 97.4779C119.778 96.8118 120.215 96.4643 120.85 96.4643C121.724 96.4643 122.175 97.1449 122.175 98.5204V102.662H123.98V98.1729C123.98 97.2173 123.797 96.4498 123.416 95.8851L123.402 95.8706Z" fill="white"/>
</svg>
