<svg width="87" height="78" viewBox="0 0 87 78" fill="none" xmlns="http://www.w3.org/2000/svg">
<ellipse cx="41.6899" cy="33" rx="33.5" ry="33" fill="url(#paint0_radial_72_589)"/>
<g filter="url(#filter0_f_72_589)">
<path fill-rule="evenodd" clip-rule="evenodd" d="M67.8279 46.0624C71.139 42.3234 71.8132 36.038 69.1174 30.4885C65.8084 23.6765 58.6749 20.5529 53.1844 23.5118C47.6938 26.4707 45.9253 34.3916 49.2343 41.2036C52.0577 47.0159 57.6655 50.143 62.6613 49.0975L72.2758 68.8902C72.9972 70.3752 74.7602 70.9442 76.2135 70.1609C77.6669 69.3777 78.2603 67.5389 77.539 66.0538L67.8279 46.0624Z" fill="white" fill-opacity="0.5"/>
</g>
<g filter="url(#filter1_b_72_589)">
<path fill-rule="evenodd" clip-rule="evenodd" d="M67.8279 46.0624C71.139 42.3234 71.8132 36.038 69.1174 30.4885C65.8084 23.6765 58.6749 20.5529 53.1844 23.5118C47.6938 26.4707 45.9253 34.3916 49.2343 41.2036C52.0577 47.0159 57.6655 50.143 62.6613 49.0975L72.2758 68.8902C72.9972 70.3752 74.7602 70.9442 76.2135 70.1609C77.6669 69.3777 78.2603 67.5389 77.539 66.0538L67.8279 46.0624Z" fill="url(#paint1_linear_72_589)" fill-opacity="0.5"/>
</g>
<g filter="url(#filter2_f_72_589)">
<path fill-rule="evenodd" clip-rule="evenodd" d="M26.7657 27.1592C27.438 25.6163 29.2338 24.9106 30.7767 25.5828C32.3196 26.2551 33.0254 28.0509 32.3531 29.5938L26.3308 43.4149C26.5954 43.4784 26.82 43.5174 27.0152 43.539C27.5659 43.5998 27.9731 43.536 28.6204 43.2816C28.6985 43.2509 28.995 43.0665 29.4022 42.5522C29.7785 42.077 30.0497 41.5722 30.1552 41.33L34.2698 31.887C34.9381 30.3531 36.7234 29.6515 38.2573 30.3199C39.7912 30.9882 40.4928 32.7735 39.8245 34.3074L35.7099 43.7504C35.412 44.434 34.8787 45.3963 34.1526 46.3134C33.4575 47.1914 32.3536 48.3246 30.8367 48.9208C29.4903 49.45 28.0853 49.7531 26.35 49.5615C25.5644 49.4747 24.7517 49.2904 23.8882 49.0208L15.852 67.4639C15.1797 69.0068 13.3839 69.7126 11.841 69.0403C10.2981 68.368 9.59228 66.5722 10.2646 65.0293L18.2978 46.5931C17.4864 46.1335 16.7775 45.6527 16.1632 45.1227C14.8413 43.9823 14.1067 42.7469 13.5776 41.4004C12.9814 39.8835 13.0598 38.3035 13.2296 37.1965C13.4068 36.0403 13.7485 34.9946 14.0464 34.311L18.161 24.8679C18.8294 23.3341 20.6146 22.6324 22.1485 23.3008C23.6824 23.9691 24.3841 25.7544 23.7157 27.2883L19.6011 36.7313C19.4956 36.9734 19.3105 37.5158 19.2187 38.1149C19.1192 38.7634 19.1861 39.106 19.2168 39.1841C19.4712 39.8314 19.7017 40.1731 20.1212 40.535C20.2829 40.6745 20.4833 40.8255 20.7385 40.9916L26.7657 27.1592Z" fill="white" fill-opacity="0.5"/>
</g>
<g filter="url(#filter3_b_72_589)">
<path fill-rule="evenodd" clip-rule="evenodd" d="M26.7657 27.1592C27.438 25.6163 29.2338 24.9106 30.7767 25.5828C32.3196 26.2551 33.0254 28.0509 32.3531 29.5938L26.3308 43.4149C26.5954 43.4784 26.82 43.5174 27.0152 43.539C27.5659 43.5998 27.9731 43.536 28.6204 43.2816C28.6985 43.2509 28.995 43.0665 29.4022 42.5522C29.7785 42.077 30.0497 41.5722 30.1552 41.33L34.2698 31.887C34.9381 30.3531 36.7234 29.6515 38.2573 30.3199C39.7912 30.9882 40.4928 32.7735 39.8245 34.3074L35.7099 43.7504C35.412 44.434 34.8787 45.3963 34.1526 46.3134C33.4575 47.1914 32.3536 48.3246 30.8367 48.9208C29.4903 49.45 28.0853 49.7531 26.35 49.5615C25.5644 49.4747 24.7517 49.2904 23.8882 49.0208L15.852 67.4639C15.1797 69.0068 13.3839 69.7126 11.841 69.0403C10.2981 68.368 9.59228 66.5722 10.2646 65.0293L18.2978 46.5931C17.4864 46.1335 16.7775 45.6527 16.1632 45.1227C14.8413 43.9823 14.1067 42.7469 13.5776 41.4004C12.9814 39.8835 13.0598 38.3035 13.2296 37.1965C13.4068 36.0403 13.7485 34.9946 14.0464 34.311L18.161 24.8679C18.8294 23.3341 20.6146 22.6324 22.1485 23.3008C23.6824 23.9691 24.3841 25.7544 23.7157 27.2883L19.6011 36.7313C19.4956 36.9734 19.3105 37.5158 19.2187 38.1149C19.1192 38.7634 19.1861 39.106 19.2168 39.1841C19.4712 39.8314 19.7017 40.1731 20.1212 40.535C20.2829 40.6745 20.4833 40.8255 20.7385 40.9916L26.7657 27.1592Z" fill="url(#paint2_linear_72_589)" fill-opacity="0.5"/>
</g>
<defs>
<filter id="filter0_f_72_589" x="45.5667" y="20.395" width="34.2793" height="52.1177" filterUnits="userSpaceOnUse" color-interpolation-filters="sRGB">
<feFlood flood-opacity="0" result="BackgroundImageFix"/>
<feBlend mode="normal" in="SourceGraphic" in2="BackgroundImageFix" result="shape"/>
<feGaussianBlur stdDeviation="1" result="effect1_foregroundBlur_72_589"/>
</filter>
<filter id="filter1_b_72_589" x="43.5667" y="18.395" width="38.2793" height="56.1177" filterUnits="userSpaceOnUse" color-interpolation-filters="sRGB">
<feFlood flood-opacity="0" result="BackgroundImageFix"/>
<feGaussianBlur in="BackgroundImageFix" stdDeviation="2"/>
<feComposite in2="SourceAlpha" operator="in" result="effect1_backgroundBlur_72_589"/>
<feBlend mode="normal" in="SourceGraphic" in2="effect1_backgroundBlur_72_589" result="shape"/>
</filter>
<filter id="filter2_f_72_589" x="8.01013" y="21.0479" width="34.0673" height="50.2468" filterUnits="userSpaceOnUse" color-interpolation-filters="sRGB">
<feFlood flood-opacity="0" result="BackgroundImageFix"/>
<feBlend mode="normal" in="SourceGraphic" in2="BackgroundImageFix" result="shape"/>
<feGaussianBlur stdDeviation="1" result="effect1_foregroundBlur_72_589"/>
</filter>
<filter id="filter3_b_72_589" x="6.01013" y="19.0479" width="38.0673" height="54.2468" filterUnits="userSpaceOnUse" color-interpolation-filters="sRGB">
<feFlood flood-opacity="0" result="BackgroundImageFix"/>
<feGaussianBlur in="BackgroundImageFix" stdDeviation="2"/>
<feComposite in2="SourceAlpha" operator="in" result="effect1_backgroundBlur_72_589"/>
<feBlend mode="normal" in="SourceGraphic" in2="effect1_backgroundBlur_72_589" result="shape"/>
</filter>
<radialGradient id="paint0_radial_72_589" cx="0" cy="0" r="1" gradientUnits="userSpaceOnUse" gradientTransform="translate(24.9399 18.3629) rotate(43.751) scale(53.1084 53.0795)">
<stop stop-color="#B4CDFF"/>
<stop offset="1" stop-color="#4E8AFD"/>
</radialGradient>
<linearGradient id="paint1_linear_72_589" x1="53.1844" y1="23.5118" x2="77.8489" y2="69.2797" gradientUnits="userSpaceOnUse">
<stop stop-color="white"/>
<stop offset="1" stop-color="#8AB2FF"/>
</linearGradient>
<linearGradient id="paint2_linear_72_589" x1="30.7439" y1="25.5686" x2="11.8082" y2="69.026" gradientUnits="userSpaceOnUse">
<stop stop-color="white"/>
<stop offset="1" stop-color="#8AB2FF"/>
</linearGradient>
</defs>
</svg>
