<svg width="81" height="73" viewBox="0 0 81 73" fill="none" xmlns="http://www.w3.org/2000/svg">
<path fill-rule="evenodd" clip-rule="evenodd" d="M33.3067 66.6133C51.7014 66.6133 66.6133 51.7014 66.6133 33.3067C66.6133 14.9119 51.7014 0 33.3067 0C14.9119 0 0 14.9119 0 33.3067C0 40.7832 2.46347 47.6844 6.62299 53.2428L4.36864 68.6457C4.0342 70.9307 6.29882 72.7209 8.44496 71.868L24.5761 65.4574C27.3586 66.2111 30.2857 66.6133 33.3067 66.6133Z" fill="url(#paint0_linear_72_567)"/>
<g filter="url(#filter0_bf_72_567)">
<circle cx="45.5045" cy="35.5045" r="30.5045" fill="url(#paint1_linear_72_567)" fill-opacity="0.5"/>
</g>
<g filter="url(#filter1_bd_72_567)">
<circle cx="45.5045" cy="35.5045" r="30.5045" fill="url(#paint2_linear_72_567)" fill-opacity="0.5" shape-rendering="crispEdges"/>
</g>
<circle cx="35" cy="36" r="3" fill="white"/>
<circle cx="46" cy="36" r="3" fill="white"/>
<circle cx="57" cy="36" r="3" fill="white"/>
<defs>
<filter id="filter0_bf_72_567" x="11" y="1" width="69.009" height="69.009" filterUnits="userSpaceOnUse" color-interpolation-filters="sRGB">
<feFlood flood-opacity="0" result="BackgroundImageFix"/>
<feGaussianBlur in="BackgroundImageFix" stdDeviation="2"/>
<feComposite in2="SourceAlpha" operator="in" result="effect1_backgroundBlur_72_567"/>
<feBlend mode="normal" in="SourceGraphic" in2="effect1_backgroundBlur_72_567" result="shape"/>
<feGaussianBlur stdDeviation="0.5" result="effect2_foregroundBlur_72_567"/>
</filter>
<filter id="filter1_bd_72_567" x="11" y="1" width="70.009" height="71.009" filterUnits="userSpaceOnUse" color-interpolation-filters="sRGB">
<feFlood flood-opacity="0" result="BackgroundImageFix"/>
<feGaussianBlur in="BackgroundImageFix" stdDeviation="2"/>
<feComposite in2="SourceAlpha" operator="in" result="effect1_backgroundBlur_72_567"/>
<feColorMatrix in="SourceAlpha" type="matrix" values="0 0 0 0 0 0 0 0 0 0 0 0 0 0 0 0 0 0 127 0" result="hardAlpha"/>
<feOffset dx="2" dy="3"/>
<feGaussianBlur stdDeviation="1.5"/>
<feComposite in2="hardAlpha" operator="out"/>
<feColorMatrix type="matrix" values="0 0 0 0 0 0 0 0 0 0 0 0 0 0 0 0 0 0 0.1 0"/>
<feBlend mode="normal" in2="effect1_backgroundBlur_72_567" result="effect2_dropShadow_72_567"/>
<feBlend mode="normal" in="SourceGraphic" in2="effect2_dropShadow_72_567" result="shape"/>
</filter>
<linearGradient id="paint0_linear_72_567" x1="33.3066" y1="0" x2="33.3066" y2="72.0845" gradientUnits="userSpaceOnUse">
<stop stop-color="#B4CDFF"/>
<stop offset="1" stop-color="#2771FF"/>
</linearGradient>
<linearGradient id="paint1_linear_72_567" x1="45.5045" y1="5" x2="45.5045" y2="66.009" gradientUnits="userSpaceOnUse">
<stop stop-color="white"/>
<stop offset="0.41" stop-color="#E6EFFF"/>
<stop offset="1" stop-color="#B4CDFF"/>
</linearGradient>
<linearGradient id="paint2_linear_72_567" x1="45.5045" y1="5" x2="45.5045" y2="66.009" gradientUnits="userSpaceOnUse">
<stop stop-color="white"/>
<stop offset="0.41" stop-color="#E6EFFF"/>
<stop offset="1" stop-color="#DEE9FF"/>
</linearGradient>
</defs>
</svg>
