<svg width="20" height="20" viewBox="0 0 20 20" fill="none" xmlns="http://www.w3.org/2000/svg">
<path d="M9.99329 20C8.61457 20 7.31854 19.7404 6.10519 19.2213C4.89183 18.7022 3.83053 17.988 2.92129 17.0787C2.01202 16.1695 1.29783 15.1082 0.77871 13.8948C0.25957 12.6815 0 11.3854 0 10.0067C0 8.61328 0.25957 7.31253 0.77871 6.10446C1.29783 4.89638 2.01202 3.83697 2.92129 2.9262C3.83053 2.01544 4.89183 1.30005 6.10519 0.78003C7.31854 0.26001 8.61457 0 9.99329 0C11.3867 0 12.6875 0.260076 13.8955 0.780228C15.1036 1.30038 16.163 2.01597 17.0738 2.92699C17.9846 3.83799 18.6999 4.89769 19.22 6.10608C19.74 7.31448 20 8.61245 20 10C20 11.3832 19.74 12.6815 19.22 13.8948C18.6999 15.1082 17.9846 16.1695 17.0738 17.0787C16.163 17.988 15.1036 18.7022 13.8955 19.2213C12.6875 19.7404 11.3867 20 9.99329 20ZM10 18.6687C10.4163 18.2563 10.804 17.5849 11.1632 16.6547C11.5224 15.7245 11.7989 14.6945 11.9927 13.5649H8.01274C8.21372 14.727 8.492 15.7713 8.84758 16.6979C9.20317 17.6245 9.58731 18.2815 10 18.6687ZM8.32508 18.5055C7.95406 17.9191 7.61998 17.198 7.32281 16.3421C7.02563 15.4863 6.79981 14.5606 6.64536 13.5649H2.11041C2.70402 14.8876 3.54889 15.9764 4.64501 16.8311C5.74113 17.6859 6.96782 18.244 8.32508 18.5055ZM11.6749 18.5055C13.0286 18.2476 14.2544 17.6904 15.3523 16.8338C16.4502 15.9773 17.2978 14.8876 17.895 13.5649H13.36C13.166 14.5678 12.9203 15.4971 12.6232 16.3529C12.326 17.2088 12.0099 17.9263 11.6749 18.5055ZM1.66846 12.2175H6.51179C6.45993 11.8126 6.42751 11.418 6.41455 11.0336C6.40157 10.6493 6.39508 10.286 6.39508 9.94381C6.39508 9.60162 6.40157 9.24771 6.41455 8.88209C6.42751 8.51648 6.45993 8.14997 6.51179 7.78255H1.66846C1.55101 8.15501 1.46816 8.52703 1.41989 8.89861C1.37162 9.27017 1.34749 9.6373 1.34749 10C1.34749 10.3627 1.37162 10.7298 1.41989 11.1014C1.46816 11.473 1.55101 11.845 1.66846 12.2175ZM7.90142 12.2175H12.104C12.158 11.7938 12.1924 11.4044 12.2072 11.049C12.2219 10.6936 12.2293 10.344 12.2293 10C12.2293 9.65603 12.2219 9.30168 12.2072 8.93696C12.1924 8.57223 12.158 8.18743 12.104 7.78255H7.90142C7.84379 8.18743 7.80759 8.57223 7.79283 8.93696C7.77805 9.30168 7.77066 9.65603 7.77066 10C7.77066 10.344 7.77805 10.6983 7.79283 11.063C7.80759 11.4278 7.84379 11.8126 7.90142 12.2175ZM13.4882 12.2175H18.337C18.4508 11.845 18.5318 11.473 18.5801 11.1014C18.6284 10.7298 18.6525 10.3627 18.6525 10C18.6525 9.6373 18.6284 9.26549 18.5801 8.88456C18.5318 8.50361 18.4508 8.13628 18.337 7.78255H13.4882C13.5401 8.18743 13.5725 8.58204 13.5854 8.96637C13.5984 9.35073 13.6049 9.714 13.6049 10.0562C13.6049 10.3984 13.5984 10.7523 13.5854 11.1179C13.5725 11.4835 13.5401 11.85 13.4882 12.2175ZM13.36 6.43506H17.895C17.2942 5.10157 16.4538 4.01284 15.3739 3.16887C14.294 2.3249 13.061 1.76316 11.6749 1.48364C12.0459 2.10608 12.3773 2.83983 12.6691 3.68488C12.9609 4.52993 13.1912 5.44666 13.36 6.43506ZM8.01274 6.43506H11.9927C11.7881 5.28384 11.5026 4.23501 11.1362 3.28859C10.7698 2.34214 10.3911 1.68971 10 1.33127C9.60892 1.68971 9.23019 2.34214 8.8638 3.28859C8.49741 4.23501 8.21372 5.28384 8.01274 6.43506ZM2.11041 6.43506H6.64536C6.81062 5.44666 7.03914 4.52993 7.3309 3.68488C7.62267 2.83983 7.95406 2.10608 8.32508 1.48364C6.9354 1.76675 5.7015 2.3303 4.6234 3.17426C3.5453 4.01823 2.70763 5.10516 2.11041 6.43506Z" fill="#101010"/>
</svg>
