<svg width="193" height="38" viewBox="0 0 193 38" fill="none" xmlns="http://www.w3.org/2000/svg">
<g clip-path="url(#clip0_72_94)">
<path d="M69.69 35.21H0V37.67H69.69V35.21Z" fill="#AD6823"/>
<path d="M67.34 8.09009H2.29V9.14009H67.34V8.09009Z" fill="#AD6823"/>
<path d="M67.34 32.9199H2.29V33.9699H67.34V32.9199Z" fill="#AD6823"/>
<path d="M6.57 25.81V28.11C6.57 28.8 6.01 29.36 5.32 29.36H4.96V31.14H5.32C6.99 31.14 8.35 29.78 8.35 28.11V14.05C8.35 12.38 6.99 11.02 5.32 11.02H4.96V12.8H5.32C6.01 12.8 6.57 13.36 6.57 14.05V25.81Z" fill="#AD6823"/>
<path d="M11.91 16.35V14.05C11.91 13.36 12.47 12.8 13.16 12.8H13.52V11.02H13.16C11.49 11.02 10.13 12.38 10.13 14.05V28.11C10.13 29.78 11.49 31.14 13.16 31.14H13.52V29.36H13.16C12.47 29.36 11.91 28.8 11.91 28.11V16.35Z" fill="#AD6823"/>
<path d="M23.53 25.81V28.11C23.53 28.8 22.97 29.36 22.28 29.36H21.92V31.14H22.28C23.95 31.14 25.31 29.78 25.31 28.11V14.05C25.31 12.38 23.95 11.02 22.28 11.02H21.92V12.8H22.28C22.97 12.8 23.53 13.36 23.53 14.05V25.81Z" fill="#AD6823"/>
<path d="M28.86 16.35V14.05C28.86 13.36 29.42 12.8 30.11 12.8H30.47V11.02H30.11C28.44 11.02 27.08 12.38 27.08 14.05V28.11C27.08 29.78 28.44 31.14 30.11 31.14H30.47V29.36H30.11C29.42 29.36 28.86 28.8 28.86 28.11V16.35Z" fill="#AD6823"/>
<path d="M40.19 25.81V28.11C40.19 28.8 39.63 29.36 38.94 29.36H38.58V31.14H38.94C40.61 31.14 41.97 29.78 41.97 28.11V14.05C41.97 12.38 40.61 11.02 38.94 11.02H38.58V12.8H38.94C39.63 12.8 40.19 13.36 40.19 14.05V25.81Z" fill="#AD6823"/>
<path d="M45.53 16.35V14.05C45.53 13.36 46.09 12.8 46.78 12.8H47.14V11.02H46.78C45.11 11.02 43.75 12.38 43.75 14.05V28.11C43.75 29.78 45.11 31.14 46.78 31.14H47.14V29.36H46.78C46.09 29.36 45.53 28.8 45.53 28.11V16.35Z" fill="#AD6823"/>
<path d="M57.13 25.81V28.11C57.13 28.8 56.57 29.36 55.88 29.36H55.52V31.14H55.88C57.55 31.14 58.91 29.78 58.91 28.11V14.05C58.91 12.38 57.55 11.02 55.88 11.02H55.52V12.8H55.88C56.57 12.8 57.13 13.36 57.13 14.05V25.81Z" fill="#AD6823"/>
<path d="M62.46 16.35V14.05C62.46 13.36 63.02 12.8 63.71 12.8H64.07V11.02H63.71C62.04 11.02 60.68 12.38 60.68 14.05V28.11C60.68 29.78 62.04 31.14 63.71 31.14H64.07V29.36H63.71C63.02 29.36 62.46 28.8 62.46 28.11V16.35Z" fill="#AD6823"/>
<path d="M60.76 4.69L53.19 0H16.76L9.19 4.69H0V7.15H69.69V4.69H60.76ZM12.57 4.69L17.27 1.77H52.67L57.37 4.69H12.57Z" fill="#AD6823"/>
<path d="M85.84 21.47H100.16V17.06C100.16 16.58 100.02 16.19 99.74 15.9C99.46 15.61 99.07 15.46 98.56 15.46H82.82V18.03H97.14V19.07H82.82V22.92C82.82 23.6 83.02 24.16 83.43 24.62C83.83 25.08 84.42 25.31 85.19 25.31H100.36V22.61H85.84V21.48V21.47Z" fill="#75777A"/>
<path d="M87.6 12.26C88.15 12.95 88.9 13.52 89.83 13.97C90.76 14.42 91.91 14.65 93.27 14.65V11.95C90.82 11.68 89.48 10.71 89.24 9.04998H93.18V6.34998H89.13V4.47998H86.07V6.34998H82.02V9.04998H85.96C85.72 10.72 84.38 11.68 81.93 11.95V14.65C83.28 14.65 84.42 14.42 85.34 13.97C86.26 13.52 87.02 12.95 87.6 12.26Z" fill="#75777A"/>
<path d="M97.14 14.65H100.16V5.78003H97.14V8.88003H94.13V11.58H97.14V14.65Z" fill="#75777A"/>
<path d="M115.8 16.76H122.98V14.06H109.04C108.88 14.06 108.77 14.03 108.73 13.96C108.68 13.89 108.66 13.79 108.66 13.66V8.89004C108.66 8.77004 108.68 8.67004 108.73 8.60004C108.78 8.52004 108.88 8.49004 109.05 8.49004H123.01V5.79004H107.99C107.66 5.79004 107.35 5.85004 107.06 5.98004C106.77 6.11004 106.53 6.28004 106.32 6.50004C106.12 6.72004 105.95 6.97004 105.83 7.24004C105.71 7.52004 105.65 7.81004 105.65 8.11004V14.44C105.65 14.76 105.71 15.06 105.83 15.34C105.95 15.63 106.11 15.88 106.31 16.09C106.51 16.31 106.76 16.48 107.04 16.6C107.32 16.72 107.63 16.78 107.96 16.78H112.78V21.35H104.65V24.05H123.92V21.35H115.79V16.78L115.8 16.76Z" fill="#75777A"/>
<path d="M142.79 17.8H127.93V20.5H141.37V25.29H144.39V19.39C144.39 18.91 144.24 18.52 143.95 18.23C143.66 17.94 143.27 17.79 142.79 17.79V17.8Z" fill="#75777A"/>
<path d="M144.39 5.78003H141.38V16.74H144.39V12.6H147.57V9.90003H144.39V5.78003Z" fill="#75777A"/>
<path d="M129.29 16.29H138.38V5.78003H135.36V8.30003H130.14V5.78003H127.12V13.75C127.12 14.11 127.18 14.44 127.29 14.75C127.4 15.06 127.56 15.33 127.75 15.56C127.95 15.79 128.17 15.97 128.44 16.1C128.7 16.23 128.99 16.29 129.29 16.29ZM130.14 11H135.36V13.59H130.14V11Z" fill="#75777A"/>
<path d="M149.64 15.2301H157.81V16.1501H150.67V18.6301H164.94V19.4901H150.67V22.9101C150.67 23.5901 150.88 24.1501 151.3 24.6101C151.72 25.0701 152.3 25.3001 153.03 25.3001H168.16V22.6901H153.69V21.7901H167.96V17.7501C167.96 17.2701 167.82 16.8901 167.53 16.6001C167.24 16.3101 166.85 16.1601 166.36 16.1601H160.82V15.2401H168.99V12.8101H149.63V15.2401L149.64 15.2301Z" fill="#75777A"/>
<path d="M153.04 11.92H167.96V7.37002C167.96 6.92002 167.82 6.54002 167.53 6.23002C167.24 5.92002 166.85 5.77002 166.34 5.77002H150.67V9.53002C150.67 10.21 150.88 10.77 151.3 11.23C151.72 11.69 152.3 11.92 153.03 11.92H153.04ZM153.69 8.19002H164.95V9.50002H153.69V8.19002Z" fill="#75777A"/>
<path d="M175.97 18.79H172.95V22.91C172.95 23.59 173.16 24.15 173.58 24.61C174 25.07 174.58 25.3 175.31 25.3H189.51V22.6H175.96V18.8L175.97 18.79Z" fill="#75777A"/>
<path d="M189.41 10.28V5.78003H186.39V14.58H184.07V7.38003C184.07 6.90003 183.93 6.51003 183.64 6.22003C183.35 5.93003 182.96 5.78003 182.47 5.78003H172.14V8.48003H181.05V14.58H178.06V10.73H175.04V14.58H171.6V17.28H186.39V19.4H189.41V12.98H192.58V10.28H189.41Z" fill="#75777A"/>
<path d="M87.45 35.4199C87.22 34.5199 86.89 33.9799 86.46 33.7899C86.78 33.6799 87.07 33.4399 87.35 33.0699C87.63 32.6799 87.77 32.2399 87.77 31.7699C87.77 30.1999 86.71 29.4199 84.59 29.4199C84.21 29.4199 83.84 29.4399 83.47 29.4699C83.1 29.4999 82.73 29.5499 82.36 29.6099V37.7299H83.8V34.3599H84.56C84.99 34.3599 85.32 34.4899 85.56 34.7499C85.74 34.9299 85.89 35.2699 86 35.7599C86.24 36.8099 86.43 37.4699 86.56 37.7299H88.11C87.97 37.4799 87.84 37.0899 87.71 36.5699L87.44 35.4199H87.45ZM85.82 32.8799C85.55 33.0799 85.18 33.1899 84.7 33.1899H83.81V30.6999C83.93 30.6499 84.23 30.6199 84.7 30.6199C85.77 30.6199 86.31 31.0399 86.31 31.8799C86.31 32.3099 86.15 32.6499 85.82 32.8899V32.8799Z" fill="#75777A"/>
<path d="M93.62 36.2401V34.1001C93.62 32.4401 92.82 31.6101 91.21 31.6101C90.39 31.6101 89.67 31.7901 89.04 32.1601L89.37 33.2201C89.84 32.9101 90.36 32.7501 90.95 32.7501C91.74 32.7501 92.13 33.0701 92.13 33.7001V33.7901C91.23 33.7901 90.48 33.9301 89.88 34.2101C89.07 34.6001 88.67 35.2201 88.67 36.0901C88.67 36.3601 88.72 36.6001 88.81 36.8201C88.9 37.0401 89.04 37.2301 89.2 37.3801C89.37 37.5401 89.57 37.6601 89.8 37.7401C90.03 37.8201 90.28 37.8701 90.54 37.8701C91.28 37.8701 91.85 37.6201 92.27 37.1301L92.37 37.7401H93.74C93.7 37.5601 93.68 37.3401 93.66 37.1001C93.64 36.8601 93.63 36.5701 93.63 36.2601L93.62 36.2401ZM92.17 35.6401C92.17 35.7901 92.14 35.9401 92.07 36.0701C92 36.2001 91.91 36.3201 91.8 36.4101C91.69 36.5101 91.56 36.5801 91.41 36.6401C91.26 36.6901 91.11 36.7201 90.95 36.7201C90.4 36.7201 90.13 36.4501 90.13 35.9101C90.13 35.2001 90.81 34.8501 92.17 34.8501V35.6401Z" fill="#75777A"/>
<path d="M95.85 29.1699C95.59 29.1699 95.39 29.2499 95.22 29.3999C95.06 29.5599 94.97 29.7699 94.97 30.0499C94.97 30.3299 95.05 30.5499 95.21 30.7099C95.37 30.8599 95.57 30.9399 95.83 30.9399C96.09 30.9399 96.29 30.8599 96.46 30.6999C96.63 30.5399 96.72 30.3299 96.72 30.0499C96.72 29.7699 96.64 29.5599 96.47 29.3999C96.3 29.2399 96.09 29.1699 95.85 29.1699Z" fill="#75777A"/>
<path d="M96.59 31.72H95.1V37.72H96.59V31.72Z" fill="#75777A"/>
<path d="M99.6 29.04H98.13V37.72H99.6V29.04Z" fill="#75777A"/>
<path d="M103.02 31.9801C102.74 32.2101 102.55 32.4901 102.43 32.8001L102.38 31.7201H101.11V32.4401C101.11 32.5401 101.11 32.6401 101.12 32.7401C101.12 32.9401 101.13 33.1101 101.14 33.2701C101.14 33.4301 101.14 33.5601 101.14 33.6801V37.7301H102.63V34.6401C102.63 34.4901 102.64 34.3301 102.66 34.1801C102.8 33.4301 103.23 33.0501 103.94 33.0501C104.02 33.0501 104.1 33.0501 104.18 33.0701C104.26 33.0801 104.34 33.1001 104.43 33.1101V31.6401C104.35 31.6101 104.23 31.6001 104.06 31.6001C103.67 31.6001 103.33 31.7301 103.03 31.9801H103.02Z" fill="#75777A"/>
<path d="M107.6 31.6001C106.67 31.6001 105.94 31.8901 105.39 32.4701C104.85 33.0501 104.58 33.8201 104.58 34.7701C104.58 35.7201 104.85 36.4301 105.39 37.0101C105.93 37.5701 106.64 37.8501 107.53 37.8501C108.42 37.8501 109.18 37.5501 109.72 36.9601C110.27 36.3701 110.54 35.6001 110.54 34.6501C110.54 33.7001 110.27 33.0001 109.74 32.4401C109.2 31.8701 108.49 31.5901 107.6 31.5901V31.6001ZM108.67 36.0501C108.39 36.4901 108.01 36.7101 107.53 36.7101C107.05 36.7101 106.67 36.5001 106.39 36.0601C106.17 35.7001 106.06 35.2701 106.06 34.7501C106.06 34.2301 106.17 33.7701 106.39 33.4201C106.66 32.9801 107.05 32.7601 107.55 32.7601C108.05 32.7601 108.42 32.9801 108.68 33.4201C108.9 33.7701 109.01 34.2101 109.01 34.7301C109.01 35.2501 108.9 35.6701 108.67 36.0501Z" fill="#75777A"/>
<path d="M116.25 36.2401V34.1001C116.25 32.4401 115.45 31.6101 113.84 31.6101C113.02 31.6101 112.3 31.7901 111.67 32.1601L112 33.2201C112.47 32.9101 112.99 32.7501 113.58 32.7501C114.37 32.7501 114.76 33.0701 114.76 33.7001V33.7901C113.86 33.7901 113.11 33.9301 112.51 34.2101C111.7 34.6001 111.3 35.2201 111.3 36.0901C111.3 36.3601 111.35 36.6001 111.44 36.8201C111.53 37.0401 111.67 37.2301 111.83 37.3801C112 37.5401 112.2 37.6601 112.43 37.7401C112.66 37.8201 112.91 37.8701 113.17 37.8701C113.91 37.8701 114.48 37.6201 114.9 37.1301L115 37.7401H116.37C116.33 37.5601 116.31 37.3401 116.29 37.1001C116.27 36.8501 116.26 36.5701 116.26 36.2601L116.25 36.2401ZM114.81 35.6401C114.81 35.7901 114.78 35.9401 114.71 36.0701C114.64 36.2001 114.55 36.3201 114.44 36.4101C114.33 36.5001 114.2 36.5801 114.05 36.6401C113.9 36.6901 113.75 36.7201 113.59 36.7201C113.04 36.7201 112.77 36.4501 112.77 35.9101C112.77 35.2001 113.45 34.8501 114.81 34.8501V35.6401Z" fill="#75777A"/>
<path d="M123.16 36.04V29.04H121.67V32.28C121.37 31.83 120.83 31.6 120.04 31.6C119.19 31.6 118.53 31.93 118.04 32.58C117.59 33.21 117.36 33.95 117.36 34.81C117.36 35.67 117.58 36.36 118.02 36.93C118.48 37.54 119.11 37.85 119.91 37.85C120.81 37.85 121.44 37.53 121.82 36.89L121.87 37.72H123.2C123.19 37.49 123.17 37.23 123.16 36.95C123.15 36.67 123.14 36.36 123.14 36.04H123.16ZM121.67 35.14C121.67 35.32 121.66 35.46 121.63 35.54C121.55 35.87 121.4 36.13 121.17 36.31C120.94 36.49 120.66 36.59 120.33 36.59C119.84 36.59 119.46 36.4 119.19 36.02C118.97 35.69 118.86 35.27 118.86 34.75C118.86 34.23 118.97 33.79 119.19 33.45C119.47 33.04 119.85 32.84 120.35 32.84C121.04 32.84 121.47 33.18 121.63 33.87C121.66 33.93 121.67 34.05 121.67 34.24V35.14Z" fill="#75777A"/>
<path d="M133.64 29.48L132.44 32.9C132.34 33.18 132.25 33.45 132.17 33.7C132.09 33.95 132.02 34.18 131.96 34.39L131.62 35.58C131.53 35.12 131.42 34.67 131.29 34.22C131.17 33.78 131.03 33.33 130.89 32.9L129.75 29.48H127.88L127.33 37.72H128.72L129.05 31.21C129.15 31.65 129.26 32.11 129.39 32.58C129.51 33.05 129.66 33.54 129.83 34.05L130.99 37.65H132.09L133.35 34.01C133.5 33.57 133.65 33.12 133.8 32.64C133.95 32.16 134.11 31.66 134.28 31.14L134.36 33.03V34.31L134.56 37.72H135.99L135.52 29.48H133.65H133.64Z" fill="#75777A"/>
<path d="M142.61 31.72H141.14V35.32C141.14 35.49 141.11 35.64 141.05 35.78C140.82 36.32 140.43 36.59 139.89 36.59C139.16 36.59 138.79 36.04 138.79 34.93V31.73H137.32V35.26C137.32 36.99 138.01 37.86 139.39 37.86C140.22 37.86 140.86 37.54 141.29 36.91L141.36 37.73H142.67L142.6 36.9V31.73L142.61 31.72Z" fill="#75777A"/>
<path d="M146.38 34.1201C146.21 34.0501 146.07 34.0001 145.96 33.9501C145.85 33.9001 145.77 33.8601 145.71 33.8401C145.49 33.7001 145.38 33.5301 145.38 33.3301C145.38 32.9501 145.65 32.7601 146.2 32.7601C146.62 32.7601 147.02 32.8801 147.42 33.1301L147.76 31.9901C147.33 31.7401 146.8 31.6101 146.16 31.6101C145.58 31.6101 145.07 31.7601 144.64 32.0601C144.17 32.4201 143.94 32.8901 143.94 33.4901C143.94 34.2801 144.49 34.8801 145.58 35.2701C145.89 35.3901 146.11 35.4901 146.24 35.5601C146.44 35.7001 146.55 35.8801 146.55 36.1001C146.55 36.5101 146.23 36.7101 145.59 36.7101C145.09 36.7101 144.59 36.5601 144.1 36.2701L143.77 37.4101C144.31 37.7101 144.91 37.8601 145.58 37.8601C146.25 37.8601 146.77 37.7301 147.19 37.4701C147.71 37.1301 147.97 36.6301 147.97 35.9701C147.97 35.1201 147.44 34.5101 146.37 34.1201H146.38Z" fill="#75777A"/>
<path d="M151.62 31.5901C150.73 31.5901 150.02 31.9001 149.5 32.5301C149 33.1401 148.76 33.9001 148.76 34.8201C148.76 35.2901 148.83 35.7201 148.97 36.0901C149.11 36.4601 149.31 36.7801 149.57 37.0401C149.83 37.3001 150.15 37.5001 150.52 37.6401C150.89 37.7801 151.31 37.8501 151.77 37.8501C152.5 37.8501 153.19 37.7201 153.85 37.4701L153.6 36.3701C153.34 36.4601 153.07 36.5301 152.8 36.5701C152.53 36.6201 152.25 36.6401 151.97 36.6401C151.44 36.6401 151.01 36.5101 150.69 36.2501C150.35 35.9601 150.19 35.6001 150.19 35.1601H154.1C154.14 34.9001 154.17 34.6801 154.17 34.4901C154.17 33.6501 153.95 32.9601 153.52 32.4201C153.07 31.8601 152.44 31.5801 151.63 31.5801L151.62 31.5901ZM150.18 34.0201C150.19 33.8501 150.24 33.7001 150.31 33.5501C150.38 33.4001 150.47 33.2601 150.59 33.1101C150.82 32.8301 151.14 32.6901 151.53 32.6901C151.92 32.6901 152.26 32.8401 152.48 33.1301C152.67 33.3901 152.76 33.6801 152.76 34.0201H150.18Z" fill="#75777A"/>
<path d="M160.55 31.72H159.08V35.32C159.08 35.49 159.05 35.64 158.99 35.78C158.76 36.32 158.37 36.59 157.83 36.59C157.1 36.59 156.73 36.04 156.73 34.93V31.73H155.26V35.26C155.26 36.99 155.95 37.86 157.33 37.86C158.16 37.86 158.8 37.54 159.23 36.91L159.3 37.73H160.61L160.54 36.9V31.73L160.55 31.72Z" fill="#75777A"/>
<path d="M170.32 32.4201C169.97 31.8701 169.45 31.6001 168.77 31.6001C167.98 31.6001 167.34 31.9601 166.85 32.6701C166.57 31.9601 166.03 31.6001 165.21 31.6001C164.39 31.6001 163.82 31.9101 163.39 32.5401L163.32 31.7201H162.06C162.06 31.8501 162.06 32.0001 162.06 32.1501C162.06 32.3101 162.06 32.4801 162.08 32.6701C162.1 32.8601 162.09 33.0301 162.1 33.1701C162.1 33.3101 162.1 33.4301 162.1 33.5401V37.7301H163.54V34.2301C163.54 34.0501 163.57 33.8801 163.62 33.7201C163.67 33.5601 163.75 33.4201 163.84 33.2901C163.94 33.1701 164.06 33.0701 164.2 33.0001C164.34 32.9301 164.5 32.8901 164.68 32.8901C165.37 32.8901 165.71 33.3701 165.71 34.3401V37.7301H167.15V34.1701C167.15 34.0601 167.15 33.9701 167.17 33.8901C167.18 33.8101 167.2 33.7401 167.21 33.6801C167.39 33.1601 167.74 32.8901 168.25 32.8901C168.96 32.8901 169.31 33.4301 169.31 34.5001V37.7401H170.75V34.2301C170.75 33.4901 170.6 32.8901 170.3 32.4401L170.32 32.4201Z" fill="#75777A"/>
</g>
<defs>
<clipPath id="clip0_72_94">
<rect width="192.59" height="37.86" fill="white"/>
</clipPath>
</defs>
</svg>
