<svg width="17" height="16" viewBox="0 0 17 16" fill="none" xmlns="http://www.w3.org/2000/svg">
<path d="M8.5 7.65865C7.4037 7.65865 6.47782 7.28879 5.72237 6.54908C4.96692 5.80937 4.5892 4.90278 4.5892 3.82932C4.5892 2.75586 4.96692 1.84928 5.72237 1.10957C6.47782 0.369856 7.4037 0 8.5 0C9.5963 0 10.5222 0.369856 11.2776 1.10957C12.0331 1.84928 12.4108 2.75586 12.4108 3.82932C12.4108 4.90278 12.0331 5.80937 11.2776 6.54908C10.5222 7.28879 9.5963 7.65865 8.5 7.65865ZM0 14.4445V13.8252C0 13.451 0.111973 13.0939 0.33592 12.7538C0.559866 12.4138 0.882311 12.1153 1.30325 11.8583C2.42503 11.2353 3.59693 10.7547 4.81897 10.4165C6.04102 10.0783 7.26584 9.90919 8.49341 9.90919C9.72101 9.90919 10.9485 10.0782 12.1759 10.4162C13.4033 10.7543 14.5774 11.2348 15.6982 11.8579C16.1187 12.0936 16.4408 12.3868 16.6645 12.7376C16.8882 13.0884 17 13.4509 17 13.8251V14.4445C17 14.8774 16.8456 15.2448 16.5369 15.5469C16.2281 15.849 15.8525 16 15.4101 16H1.57938C1.13692 16 0.763079 15.849 0.457847 15.5469C0.152616 15.2448 0 14.8774 0 14.4445ZM1.56354 14.469H15.4365V13.8285C15.4365 13.6887 15.3869 13.5588 15.2877 13.4387C15.1885 13.3187 15.0483 13.2152 14.8672 13.1283C13.9232 12.5717 12.9117 12.1512 11.8327 11.8668C10.7536 11.5824 9.64248 11.4402 8.49918 11.4402C7.34831 11.4402 6.23525 11.5824 5.16001 11.8668C4.08478 12.1512 3.07781 12.5717 2.13908 13.1283C1.95266 13.2503 1.81013 13.3662 1.71148 13.4761C1.61285 13.5861 1.56354 13.703 1.56354 13.8269V14.469ZM8.50691 6.12768C9.15432 6.12768 9.70623 5.90198 10.1626 5.45056C10.6191 4.99913 10.8473 4.45646 10.8473 3.82256C10.8473 3.18864 10.6168 2.64822 10.1557 2.20132C9.69469 1.75442 9.14048 1.53096 8.49309 1.53096C7.84568 1.53096 7.29377 1.75667 6.83735 2.20809C6.38094 2.65952 6.15274 3.20219 6.15274 3.83609C6.15274 4.47001 6.38325 5.01042 6.84427 5.45733C7.30531 5.90423 7.85952 6.12768 8.50691 6.12768Z" fill="#1D1D1D"/>
</svg>
