<svg width="18" height="18" viewBox="0 0 18 18" fill="none" xmlns="http://www.w3.org/2000/svg">
<path d="M8.98223 10.4852L1.78047 17.6702C1.54533 17.9048 1.308 18.0142 1.06847 17.9985C0.828973 17.9828 0.588923 17.8549 0.348321 17.6148C0.116438 17.3748 0.0026755 17.1331 0.00703465 16.8898C0.0113938 16.6465 0.129516 16.4092 0.361399 16.1779L7.50762 9.01407L0.31894 1.8079C0.097926 1.58743 -0.008222 1.35282 0.000496285 1.10409C0.00921457 0.855374 0.129516 0.610997 0.361399 0.370955C0.593283 0.130914 0.833333 0.00736262 1.08155 0.000302574C1.32977 -0.00675748 1.57689 0.109733 1.82293 0.349775L8.98223 7.54289L16.1921 0.349775C16.4218 0.120606 16.6635 0.00682676 16.9172 0.00843645C17.1709 0.0100744 17.4207 0.130914 17.6667 0.370955C17.8932 0.610997 18.0042 0.852665 17.9999 1.09595C17.9955 1.33924 17.8774 1.57656 17.6455 1.8079L10.4568 9.01407L17.6455 16.2202C17.8665 16.4407 17.9798 16.6682 17.9852 16.9029C17.9906 17.1375 17.8774 17.3748 17.6455 17.6148C17.4136 17.8549 17.1736 17.9784 16.9254 17.9855C16.6771 17.9925 16.4327 17.8733 16.1921 17.6279L8.98223 10.4852Z" fill="black"/>
</svg>
