<svg width="13" height="8" viewBox="0 0 13 8" fill="none" xmlns="http://www.w3.org/2000/svg">
<path d="M6.50334 6.23311L11.8755 0.225919C11.9992 0.0849635 12.1545 0.0120749 12.3414 0.0072533C12.5284 0.00241776 12.6848 0.0704844 12.8109 0.211454C12.937 0.349734 13 0.523382 13 0.732397C13 0.941427 12.937 1.11642 12.8109 1.25738L7.28846 7.45109C7.17199 7.58133 7.04988 7.67204 6.92215 7.72322C6.79441 7.77441 6.65481 7.8 6.50334 7.8C6.35187 7.8 6.21227 7.77441 6.08453 7.72322C5.9568 7.67204 5.83469 7.58133 5.71822 7.45109L0.195765 1.27587C0.0697097 1.13492 0.00452705 0.956846 0.000214544 0.741657C-0.00409701 0.526468 0.0567741 0.349733 0.18283 0.211453C0.306493 0.0704838 0.461791 -5.48063e-07 0.648725 -5.39891e-07C0.835646 -5.31721e-07 0.992135 0.0704839 1.11819 0.211453L6.50334 6.23311Z" fill="#666666"/>
</svg>
