<svg width="18" height="12" viewBox="0 0 18 12" fill="none" xmlns="http://www.w3.org/2000/svg">
<path d="M0.703698 11.418C0.510129 11.418 0.344454 11.3497 0.206672 11.213C0.0688908 11.0764 0 10.912 0 10.7201C0 10.5319 0.0688908 10.3676 0.206672 10.227C0.344454 10.0865 0.510129 10.0163 0.703698 10.0163H17.3019C17.4917 10.0163 17.6555 10.0846 17.7933 10.2213C17.9311 10.358 18 10.5204 18 10.7086C18 10.9005 17.9311 11.0668 17.7933 11.2073C17.6555 11.3478 17.4917 11.418 17.3019 11.418H0.703698ZM0.703698 6.40991C0.510129 6.40991 0.344454 6.34158 0.206672 6.20491C0.0688908 6.06824 0 5.90393 0 5.71198C0 5.52378 0.0688908 5.35943 0.206672 5.2189C0.344454 5.07839 0.510129 5.00813 0.703698 5.00813H17.3019C17.4917 5.00813 17.6555 5.07647 17.7933 5.21314C17.9311 5.34983 18 5.51227 18 5.70046C18 5.89241 17.9311 6.05864 17.7933 6.19915C17.6555 6.33966 17.4917 6.40991 17.3019 6.40991H0.703698ZM0.703698 1.40178C0.510129 1.40178 0.344454 1.33345 0.206672 1.19678C0.0688908 1.06011 0 0.895795 0 0.703844C0 0.515653 0.0688908 0.351303 0.206672 0.210793C0.344454 0.0702638 0.510129 0 0.703698 0H17.3019C17.4917 0 17.6555 0.0683348 17.7933 0.205006C17.9311 0.341696 18 0.504136 18 0.692327C18 0.884278 17.9311 1.05051 17.7933 1.19102C17.6555 1.33153 17.4917 1.40178 17.3019 1.40178H0.703698Z" fill="white"/>
</svg>
