<svg width="13" height="8" viewBox="0 0 13 8" fill="none" xmlns="http://www.w3.org/2000/svg">
<path d="M6.49666 1.76689L1.12446 7.77408C1.0008 7.91504 0.845502 7.98793 0.658568 7.99275C0.471647 7.99758 0.315153 7.92952 0.189084 7.78855C0.0630288 7.65027 6.24126e-09 7.47662 8.73375e-09 7.2676C1.12264e-08 7.05857 0.0630288 6.88358 0.189084 6.74262L5.71154 0.548912C5.82801 0.418673 5.95011 0.327962 6.07785 0.276777C6.20559 0.225593 6.34519 0.2 6.49666 0.2C6.64813 0.2 6.78773 0.225593 6.91547 0.276777C7.0432 0.327962 7.16531 0.418673 7.28178 0.548912L12.8042 6.72413C12.9303 6.86508 12.9955 7.04315 12.9998 7.25834C13.0041 7.47353 12.9432 7.65027 12.8172 7.78855C12.6935 7.92952 12.5382 8 12.3513 8C12.1644 8 12.0079 7.92952 11.8818 7.78855L6.49666 1.76689Z" fill="#666666"/>
</svg>
