<svg width="4" height="8" viewBox="0 0 4 8" fill="none" xmlns="http://www.w3.org/2000/svg">
<path d="M3.19647 3.99794L0.115856 0.691977C0.043571 0.615877 0.00619228 0.520309 0.00371966 0.405273C0.00123989 0.290244 0.0361458 0.19394 0.108438 0.11636C0.179351 0.0387869 0.268401 0 0.375588 0C0.482783 0 0.572523 0.0387869 0.644808 0.11636L3.82107 3.51479C3.88786 3.58647 3.93438 3.66161 3.96063 3.74022C3.98688 3.81883 4 3.90473 4 3.99794C4 4.09115 3.98688 4.17706 3.96063 4.25567C3.93438 4.33428 3.88786 4.40942 3.82107 4.4811L0.654294 7.87953C0.582009 7.9571 0.490691 7.99721 0.380337 7.99987C0.269984 8.00252 0.179351 7.96506 0.108438 7.88749C0.0361458 7.81139 0 7.71582 0 7.60078C0 7.48576 0.0361458 7.38946 0.108438 7.31188L3.19647 3.99794Z" fill="#3D3D3D"/>
</svg>
