<svg width="10" height="13" viewBox="0 0 10 13" fill="none" xmlns="http://www.w3.org/2000/svg">
<path d="M0 11.4338V0.969139C0 0.662347 0.0984372 0.424132 0.295311 0.254492C0.492185 0.0848304 0.721183 0 0.982307 0C1.06726 0 1.15377 0.0112988 1.24186 0.0338976C1.32995 0.0564963 1.41812 0.0934376 1.50638 0.144723L9.53049 5.41591C9.67426 5.51747 9.78845 5.63622 9.87306 5.77216C9.95768 5.90807 10 6.05393 10 6.20973C10 6.36552 9.95768 6.51139 9.87306 6.64732C9.78845 6.78324 9.67426 6.89649 9.53049 6.98707L1.50593 12.2623C1.41768 12.3177 1.32797 12.356 1.23683 12.3773C1.14571 12.3985 1.05884 12.4091 0.97622 12.4091C0.713664 12.4091 0.485328 12.3243 0.291209 12.1546C0.0970695 11.985 0 11.7447 0 11.4338ZM1.53663 10.3821L8.01978 6.20457L1.53663 2.02706V10.3821Z" fill="white"/>
</svg>
