<svg width="16" height="16" viewBox="0 0 16 16" fill="none" xmlns="http://www.w3.org/2000/svg">
<path d="M5.67563 11.3562C4.09764 11.3562 2.7572 10.8036 1.65433 9.69849C0.551444 8.59338 0 7.25356 0 5.67906C0 4.10455 0.550926 2.76441 1.65278 1.65864C2.75463 0.552879 4.09269 0 5.66696 0C7.24121 0 8.58048 0.552974 9.68479 1.65892C10.7891 2.76487 11.3412 4.106 11.3412 5.6823C11.3412 6.34429 11.2327 6.98334 11.0156 7.59945C10.7984 8.21556 10.5042 8.76924 10.133 9.26048L15.7878 14.9085C15.9259 15.0464 15.9966 15.1893 15.9999 15.3373C16.0032 15.4852 15.9307 15.6327 15.7823 15.7796C15.6339 15.9265 15.484 16 15.3326 16C15.1812 16 15.0332 15.9277 14.8886 15.783L9.2395 10.1463C8.72624 10.54 8.16327 10.84 7.55062 11.0465C6.93798 11.2529 6.31298 11.3562 5.67563 11.3562ZM5.67063 10.1125C6.91042 10.1125 7.95846 9.6844 8.81474 8.82824C9.67103 7.97211 10.0992 6.92186 10.0992 5.6775C10.0992 4.43315 9.67103 3.38309 8.81474 2.52733C7.95846 1.67158 6.90959 1.2437 5.66815 1.2437C4.42671 1.2437 3.37867 1.67178 2.52404 2.52793C1.66941 3.38408 1.24209 4.43433 1.24209 5.67867C1.24209 6.92303 1.66954 7.97308 2.52445 8.82884C3.37936 9.6846 4.42809 10.1125 5.67063 10.1125Z" fill="white"/>
</svg>
