<svg width="30" height="71" viewBox="0 0 30 71" fill="none" xmlns="http://www.w3.org/2000/svg">
<path d="M23.9735 35.4818L0.86892 6.1413C0.326783 5.46591 0.0464421 4.61774 0.0278974 3.5968C0.00929914 2.57592 0.271094 1.72122 0.813284 1.03269C1.34513 0.344234 2.01301 0 2.81691 0C3.62087 0 4.29392 0.344234 4.83606 1.03269L28.658 31.1938C29.1589 31.8299 29.5078 32.4968 29.7047 33.1944C29.9016 33.8921 30 34.6545 30 35.4818C30 36.309 29.9016 37.0714 29.7047 37.7691C29.5078 38.4667 29.1589 39.1336 28.658 39.7697L4.90721 69.9308C4.36507 70.6193 3.68018 70.9753 2.85253 70.9988C2.02488 71.0224 1.34513 70.6899 0.813284 70.0015C0.271094 69.3261 0 68.4779 0 67.457C0 66.4361 0.271094 65.5814 0.813284 64.893L23.9735 35.4818Z" fill="white"/>
</svg>
