<svg width="30" height="72" viewBox="0 0 30 72" fill="#fff" xmlns="http://www.w3.org/2000/svg">
<path d="M6.03341 35.9827L29.1643 65.687C29.6967 66.3857 29.9748 67.2671 29.9985 68.3313C30.0222 69.3954 29.7627 70.2729 29.22 70.9637C28.6772 71.6546 27.9936 72 27.1692 72C26.3449 72 25.6623 71.6513 25.1214 70.9538L1.34535 40.3282C0.842675 39.6828 0.492797 39.0084 0.29571 38.3049C0.0985701 37.6015 0 36.829 0 35.9877C0 35.1463 0.0985434 34.3722 0.29563 33.6655C0.492717 32.9587 0.842568 32.2824 1.34518 31.6365L25.1213 1.08318C25.6641 0.385722 26.3379 0.0250636 27.1427 0.00120579C27.9476 -0.022652 28.6214 0.307526 29.1642 0.991748C29.6966 1.69038 29.9629 2.5718 29.9629 3.63603C29.9629 4.70018 29.6959 5.57534 29.1619 6.26149L6.03341 35.9827Z" fill="white"/>
</svg>
