<svg width="8" height="10" viewBox="0 0 8 10" fill="none" xmlns="http://www.w3.org/2000/svg">
<path d="M0.534668 8.40022V1.59574C0.534668 1.39626 0.598675 1.24136 0.726689 1.13106C0.854703 1.02074 1.00361 0.965576 1.1734 0.965576C1.22863 0.965576 1.28489 0.972923 1.34217 0.987617C1.39945 1.00231 1.45678 1.02633 1.51417 1.05968L6.73171 4.48718C6.8252 4.55322 6.89945 4.63044 6.95446 4.71883C7.00949 4.8072 7.037 4.90204 7.037 5.00335C7.037 5.10465 7.00949 5.1995 6.95446 5.28789C6.89945 5.37626 6.8252 5.4499 6.73171 5.50881L1.51388 8.93891C1.45649 8.97495 1.39816 8.99987 1.3389 9.01368C1.27965 9.0275 1.22316 9.03441 1.16944 9.03441C0.998716 9.03441 0.850244 8.97925 0.724022 8.86893C0.597786 8.75862 0.534668 8.60239 0.534668 8.40022ZM1.53383 7.71635L5.7494 4.99999L1.53383 2.28364V7.71635Z" fill="white"/>
</svg>
