<svg width="126" height="128" viewBox="0 0 126 128" fill="none" xmlns="http://www.w3.org/2000/svg">
<g clip-path="url(#clip0_25_74)">
<path d="M102.381 10.5696H23.6194C22.1675 10.5696 21 11.7224 21 13.156V64.9876C21 66.4212 22.1675 67.574 23.6194 67.574H102.366C103.818 67.574 104.985 66.4064 104.985 64.9876V13.156C104.985 11.7224 103.803 10.5696 102.366 10.5696H102.381ZM99.7612 62.416H26.2537V15.7424H99.7463V62.4012L99.7612 62.416Z" fill="white"/>
<path d="M125.91 123.913L115.507 75.1115V2.78074C115.507 1.34713 114.325 0.194336 112.888 0.194336H13.1268C11.6749 0.194336 10.5074 1.36191 10.5074 2.78074V75.0967L0.0597809 124.076C-0.104866 124.844 0.0897167 125.642 0.583658 126.248C1.0776 126.854 1.826 127.209 2.6193 127.209H123.366C124.817 127.209 125.985 126.056 125.985 124.623C125.985 124.386 125.955 124.15 125.895 123.928L125.91 123.913ZM15.7462 5.38193H110.239V72.7763H15.7462V5.38193ZM78.7462 122.022H47.2537V109.06H78.7462V122.022ZM83.9999 122.022V106.474C83.9999 105.04 82.8175 103.887 81.3805 103.887H44.6343C43.1824 103.887 42.0149 105.055 42.0149 106.474V122.022H5.86734L15.2672 77.9639H110.763L120.162 122.022H84.0149H83.9999Z" fill="white"/>
<path d="M20.9998 88.3244H105C106.452 88.3244 107.619 87.1568 107.619 85.738C107.619 84.3192 106.437 83.1516 105 83.1516H20.9998C19.5479 83.1516 18.3804 84.3192 18.3804 85.738C18.3804 87.1568 19.5628 88.3244 20.9998 88.3244Z" fill="white"/>
<path d="M107.619 93.5119L18.3655 93.438C16.9136 93.438 15.7461 94.5908 15.7461 96.0244C15.7461 97.458 16.9136 98.6108 18.3655 98.6256L107.619 98.7143C109.071 98.7143 110.239 97.5615 110.239 96.1279C110.239 94.6942 109.071 93.5414 107.619 93.5414V93.5119Z" fill="white"/>
</g>
<defs>
<clipPath id="clip0_25_74">
<rect width="126" height="127" fill="white" transform="translate(0 0.194336)"/>
</clipPath>
</defs>
</svg>
