<svg width="10" height="6" viewBox="0 0 10 6" fill="none" xmlns="http://www.w3.org/2000/svg">
<path d="M0.860874 5.84264C0.764293 5.84264 0.68163 5.80854 0.612884 5.74035C0.544139 5.67215 0.509766 5.59017 0.509766 5.4944C0.509766 5.40051 0.544139 5.3185 0.612884 5.24838C0.68163 5.17827 0.764293 5.14322 0.860874 5.14322H9.14252C9.23723 5.14322 9.31896 5.17732 9.38771 5.24551C9.45645 5.31371 9.49082 5.39476 9.49082 5.48866C9.49082 5.58442 9.45645 5.66736 9.38771 5.73748C9.31896 5.80758 9.23723 5.84264 9.14252 5.84264H0.860874ZM0.860874 3.34384C0.764293 3.34384 0.68163 3.30975 0.612884 3.24155C0.544139 3.17336 0.509766 3.09138 0.509766 2.99561C0.509766 2.90171 0.544139 2.8197 0.612884 2.74959C0.68163 2.67948 0.764293 2.64443 0.860874 2.64443H9.14252C9.23723 2.64443 9.31896 2.67852 9.38771 2.74671C9.45645 2.81491 9.49082 2.89596 9.49082 2.98986C9.49082 3.08563 9.45645 3.16857 9.38771 3.23868C9.31896 3.30879 9.23723 3.34384 9.14252 3.34384H0.860874ZM0.860874 0.845046C0.764293 0.845046 0.68163 0.81095 0.612884 0.742759C0.544139 0.674567 0.509766 0.592585 0.509766 0.496811C0.509766 0.402914 0.544139 0.320911 0.612884 0.250805C0.68163 0.180688 0.764293 0.14563 0.860874 0.14563H9.14252C9.23723 0.14563 9.31896 0.179725 9.38771 0.247917C9.45645 0.316118 9.49082 0.397167 9.49082 0.491065C9.49082 0.586838 9.45645 0.669779 9.38771 0.739886C9.31896 0.809993 9.23723 0.845046 9.14252 0.845046H0.860874Z" fill="white"/>
</svg>
