<svg width="150" height="50" viewBox="0 0 150 50" fill="none" xmlns="http://www.w3.org/2000/svg">
<g clip-path="url(#clip0_9_122)">
<path d="M43.879 38.0186C42.854 37.6506 42.6598 37.4053 42.6598 36.9832C42.6598 36.5611 42.9547 36.2256 43.656 36.2256C44.1703 36.2256 44.5119 36.3951 44.886 36.7054L45.2528 36.2544C44.8212 35.9081 44.3825 35.7061 43.692 35.7061C42.7354 35.7061 42.088 36.1967 42.088 37.0193C42.088 37.7625 42.462 38.1233 43.5697 38.5201C44.5084 38.8592 44.7925 39.1298 44.7925 39.606C44.7925 40.1508 44.3681 40.49 43.6884 40.49C43.1597 40.49 42.7138 40.2446 42.3254 39.873L41.9478 40.2987C42.3505 40.71 42.9727 41.0131 43.6704 41.0131C44.7385 41.0131 45.3679 40.3853 45.3679 39.5808C45.3679 38.7763 45.019 38.4335 43.8826 38.0222L43.879 38.0186Z" fill="white"/>
<path d="M47.6913 36.994C47.1914 36.994 46.7383 37.1167 46.4002 37.3007L46.6088 37.7481C46.9217 37.5641 47.2526 37.4522 47.6554 37.4522C48.2164 37.4522 48.4897 37.73 48.4897 38.3073V38.7618C48.2632 38.6356 47.9143 38.5382 47.5295 38.5382C46.7707 38.5382 46.0586 38.9061 46.0586 39.772C46.0586 40.7028 46.688 41.0059 47.2849 41.0059C47.8388 41.0059 48.2164 40.7461 48.4897 40.4539V40.9265H49.0364V38.2351C49.0364 37.3404 48.5185 36.9868 47.6913 36.9868V36.994ZM48.4897 39.9849C48.256 40.306 47.8819 40.5621 47.3856 40.5621C46.9145 40.5621 46.598 40.3132 46.598 39.7395C46.598 39.2561 46.9361 38.9819 47.5007 38.9819C47.9683 38.9819 48.238 39.0685 48.4897 39.2056V39.9885V39.9849Z" fill="white"/>
<path d="M54.553 38.6716V40.9301H55.0996V38.5814C55.0996 37.4558 54.6105 36.994 53.8265 36.994C53.2007 36.994 52.8878 37.2862 52.6613 37.6542C52.4779 37.2862 52.1506 36.994 51.6075 36.994C51.1544 36.994 50.8307 37.2141 50.6329 37.546V37.077H50.0791V40.9337H50.6329V38.6752C50.6329 37.8202 50.9602 37.4702 51.4889 37.4702C52.0175 37.4702 52.316 37.7913 52.316 38.6752V40.9337H52.8663V38.6752C52.8663 37.8202 53.2007 37.4702 53.7222 37.4702C54.276 37.4702 54.5494 37.7913 54.5494 38.6752L54.553 38.6716Z" fill="white"/>
<path d="M57.304 38.686C56.653 38.3902 56.4588 38.2639 56.4588 37.9356C56.4588 37.6542 56.689 37.4594 57.0954 37.4594C57.5018 37.4594 57.7535 37.5676 58.052 37.8057L58.3577 37.398C58.0664 37.1563 57.6564 36.9904 57.1313 36.9904C56.4301 36.9904 55.9302 37.3872 55.9302 37.9717C55.9302 38.5886 56.2502 38.8231 57.0235 39.155C57.7032 39.4472 57.9297 39.624 57.9297 39.9415C57.9297 40.3167 57.6816 40.5368 57.1529 40.5368C56.7717 40.5368 56.4121 40.3817 56.1064 40.1111L55.7827 40.5115C56.1495 40.8074 56.6099 41.0058 57.1385 41.0058C57.8039 41.0058 58.4548 40.6775 58.4548 39.9163C58.4548 39.2272 58.0304 39.0143 57.3004 38.6824L57.304 38.686Z" fill="white"/>
<path d="M61.6628 39.3282C61.6628 40.1724 61.242 40.5296 60.7134 40.5296C60.0948 40.5296 59.8035 40.158 59.8035 39.3282V37.0734H59.2568V39.422C59.2568 40.5296 59.7927 41.0094 60.6019 41.0094C61.0874 41.0094 61.4434 40.7821 61.6628 40.4574V40.9301H62.213V37.0734H61.6628V39.3282Z" fill="white"/>
<path d="M66.097 40.9301V38.5814C66.097 37.4702 65.5611 36.994 64.7484 36.994C64.2665 36.994 63.9068 37.2213 63.691 37.546V37.077H63.1372V40.9337H63.691V38.6752C63.691 37.831 64.1046 37.4702 64.6369 37.4702C65.2519 37.4702 65.5468 37.8454 65.5468 38.6752V40.9337H66.097V40.9301Z" fill="white"/>
<path d="M67.8271 41.9258L68.0033 42.3443C69.4311 42.301 69.9489 41.7418 69.9489 40.5801V37.0697H69.3987V37.5027C69.129 37.1924 68.7981 36.9904 68.3162 36.9904C67.5106 36.9904 66.8633 37.6939 66.8633 39.0612C66.8633 40.4286 67.4747 41.0058 68.2407 41.0058C68.7622 41.0058 69.129 40.746 69.3987 40.4538V40.6522C69.3987 41.5506 69.1074 41.8897 67.8235 41.9222L67.8271 41.9258ZM68.3809 40.5296C67.7732 40.5296 67.4063 40.0245 67.4063 39.054C67.4063 38.0186 67.7192 37.4666 68.3594 37.4666C68.8161 37.4666 69.1865 37.7227 69.3987 38.0438V39.974C69.129 40.3131 68.7909 40.5296 68.3809 40.5296Z" fill="white"/>
<path d="M76.0123 38.3217C76.0123 36.5575 75.0197 35.7854 73.6747 35.7854H72.3188V40.9301H73.574C74.9442 40.9301 76.0123 40.1869 76.0123 38.3217ZM72.8907 36.3049H73.6315C74.8111 36.3049 75.4405 37.0265 75.4405 38.3397C75.4405 39.8189 74.75 40.4069 73.6459 40.4069H72.8907V36.3049Z" fill="white"/>
<path d="M77.476 37.5497V37.0734H76.9258V40.9301H77.476V38.6645C77.476 37.9285 77.7781 37.4992 78.314 37.4992C78.5693 37.4992 78.7347 37.5569 78.8894 37.6471L79.0261 37.0915C78.8966 37.0338 78.7132 36.9977 78.4255 36.9977C78.0119 36.9977 77.6486 37.2466 77.476 37.5533V37.5497Z" fill="white"/>
<path d="M82.3129 40.5622L82.054 40.1653C81.7015 40.3998 81.439 40.5333 80.9894 40.5333C80.3637 40.5333 79.9717 40.0102 79.9213 39.1912H82.4819C82.4999 39.101 82.5071 39.0216 82.5071 38.8918C82.5071 37.7914 81.9605 36.9977 80.9571 36.9977C80.0436 36.9977 79.3711 37.7589 79.3711 38.982C79.3711 40.5008 80.227 41.0131 80.9319 41.0131C81.5109 41.0131 81.849 40.858 82.3129 40.5658V40.5622ZM80.9571 37.4703C81.6296 37.4703 81.9533 37.9934 81.9964 38.7402H79.9213C79.9861 37.878 80.3853 37.4703 80.9571 37.4703Z" fill="white"/>
<path d="M84.3416 41.0094C84.8919 41.0094 85.2695 40.7496 85.5392 40.4574V40.93H86.0895V38.2386C86.0895 37.3439 85.5716 36.9904 84.7444 36.9904C84.2445 36.9904 83.7914 37.113 83.4533 37.297L83.6583 37.7444C83.9748 37.5604 84.3021 37.4485 84.7049 37.4485C85.2695 37.4485 85.5392 37.7263 85.5392 38.3036V38.7582C85.3127 38.6319 84.9674 38.5345 84.5826 38.5345C83.8202 38.5345 83.1045 38.9025 83.1045 39.7683C83.1045 40.6991 83.7374 41.0022 84.338 41.0022L84.3416 41.0094ZM84.5538 38.9782C85.0213 38.9782 85.2947 39.0648 85.5428 39.2019V39.9848C85.3091 40.3059 84.935 40.562 84.4387 40.562C83.9712 40.562 83.6511 40.3131 83.6511 39.7395C83.6511 39.256 83.9928 38.9818 84.5538 38.9818V38.9782Z" fill="white"/>
<path d="M91.606 38.6716V40.9301H92.1562V38.5814C92.1562 37.4558 91.6671 36.994 90.8831 36.994C90.2609 36.994 89.9444 37.2862 89.7215 37.6542C89.5381 37.2862 89.2108 36.994 88.6677 36.994C88.211 36.994 87.8909 37.2141 87.6931 37.546V37.077H87.1465V40.9337H87.6931V38.6752C87.6931 37.8202 88.024 37.4702 88.5527 37.4702C89.0813 37.4702 89.3834 37.7913 89.3834 38.6752V40.9337H89.9301V38.6752C89.9301 37.8202 90.2645 37.4702 90.7896 37.4702C91.3434 37.4702 91.6167 37.7913 91.6167 38.6752L91.606 38.6716Z" fill="white"/>
<path d="M43.879 45.6707C42.8504 45.3027 42.6634 45.061 42.6634 44.6352C42.6634 44.2095 42.9583 43.8812 43.6596 43.8812C44.1739 43.8812 44.5191 44.0472 44.8896 44.3574L45.2564 43.9101C44.8248 43.5673 44.3825 43.3617 43.6956 43.3617C42.7354 43.3617 42.0916 43.8451 42.0916 44.6749C42.0916 45.4181 42.4656 45.7753 43.5733 46.1721C44.512 46.5149 44.7961 46.7819 44.7961 47.2617C44.7961 47.8029 44.3717 48.142 43.6884 48.142C43.1597 48.142 42.7138 47.8967 42.3254 47.5251L41.9478 47.9508C42.3505 48.3621 42.9727 48.6615 43.6704 48.6615C44.7385 48.6615 45.3643 48.0374 45.3643 47.2292C45.3643 46.4211 45.0154 46.0819 43.8826 45.6707H43.879Z" fill="white"/>
<path d="M47.6981 45.1223C48.0865 45.1223 48.3419 45.2594 48.6188 45.5119L48.9497 45.1006C48.6476 44.8337 48.2484 44.6425 47.7341 44.6425C46.9285 44.6425 46.0762 45.245 46.0762 46.67C46.0762 48.0157 46.8494 48.6579 47.6945 48.6579C48.234 48.6579 48.608 48.4523 48.9317 48.1203L48.6008 47.7704C48.3383 48.0265 48.0901 48.1781 47.7161 48.1781C47.0364 48.1781 46.63 47.5684 46.63 46.6195C46.63 45.6707 47.0939 45.1151 47.6945 45.1151L47.6981 45.1223Z" fill="white"/>
<path d="M51.2982 44.6461C50.8163 44.6461 50.453 44.8734 50.2337 45.1981V43.387H49.687V48.5894H50.2337V46.3309C50.2337 45.4867 50.6544 45.1259 51.1867 45.1259C51.8053 45.1259 52.0966 45.4975 52.0966 46.3309V48.5894H52.6468V46.2335C52.6468 45.1259 52.1109 44.6461 51.2982 44.6461Z" fill="white"/>
<path d="M55.0994 44.6461C54.1644 44.6461 53.4199 45.3496 53.4199 46.6593C53.4199 47.9689 54.1356 48.6652 55.0706 48.6652C56.0057 48.6652 56.7573 47.94 56.7573 46.6304C56.7573 45.3208 56.0345 44.6461 55.0994 44.6461ZM55.0886 48.1853C54.4197 48.1853 53.9702 47.6586 53.9702 46.6448C53.9702 45.631 54.4197 45.126 55.0886 45.126C55.7575 45.126 56.2071 45.631 56.2071 46.6448C56.2071 47.6586 55.754 48.1853 55.0886 48.1853Z" fill="white"/>
<path d="M58.1347 43.3834H57.5845V48.5858H58.1347V43.3834Z" fill="white"/>
<path d="M60.6487 44.6461C60.1488 44.6461 59.6956 44.7724 59.3612 44.9564L59.5662 45.4074C59.8827 45.2234 60.2135 45.1115 60.6163 45.1115C61.1773 45.1115 61.4507 45.3929 61.4507 45.963V46.4211C61.2241 46.2949 60.8788 46.1975 60.494 46.1975C59.7316 46.1975 59.0195 46.5654 59.0195 47.4349C59.0195 48.3657 59.6489 48.6652 60.2495 48.6652C60.7997 48.6652 61.1773 48.409 61.4507 48.1168V48.5894H62.0009V45.9016C62.0009 44.9997 61.4794 44.6497 60.6523 44.6497L60.6487 44.6461ZM61.4471 47.637C61.2169 47.9544 60.8357 48.2142 60.343 48.2142C59.8755 48.2142 59.559 47.9653 59.559 47.3916C59.559 46.9046 59.897 46.6376 60.4617 46.6376C60.9292 46.6376 61.1989 46.717 61.4471 46.8577V47.637Z" fill="white"/>
<path d="M63.5942 45.2053V44.7219H63.0439V48.5822H63.5942V46.3165C63.5942 45.5842 63.8891 45.1476 64.4285 45.1476C64.6875 45.1476 64.8529 45.2053 65.0075 45.2955L65.1478 44.7363C65.0147 44.6786 64.8349 44.6389 64.5472 44.6389C64.1372 44.6389 63.7668 44.8879 63.5978 45.2017L63.5942 45.2053Z" fill="white"/>
<path d="M67.2553 46.3418C66.6044 46.0459 66.4066 45.9124 66.4066 45.5914C66.4066 45.3136 66.6403 45.1151 67.0431 45.1151C67.4459 45.1151 67.7049 45.227 68.0034 45.4615L68.309 45.0574C68.0141 44.8157 67.6078 44.6461 67.0791 44.6461C66.3814 44.6461 65.8743 45.043 65.8743 45.631C65.8743 46.2191 66.198 46.4825 66.9676 46.8108C67.6473 47.103 67.8739 47.2834 67.8739 47.5973C67.8739 47.9761 67.6257 48.1926 67.1007 48.1926C66.7159 48.1926 66.3598 48.0374 66.0505 47.7668L65.7305 48.1709C66.0973 48.4667 66.5576 48.6616 67.0863 48.6616C67.7516 48.6616 68.4026 48.3296 68.4026 47.5756C68.4026 46.8829 67.9782 46.6737 67.2517 46.3418H67.2553Z" fill="white"/>
<path d="M70.9126 44.6461C70.4235 44.6461 70.0675 44.8734 69.8481 45.1981V43.387H69.2979V48.5894H69.8481V46.3309C69.8481 45.4867 70.2653 45.1259 70.8011 45.1259C71.4161 45.1259 71.7074 45.4975 71.7074 46.3309V48.5894H72.2576V46.2335C72.2576 45.1259 71.7254 44.6461 70.9126 44.6461Z" fill="white"/>
<path d="M73.8904 44.7218H73.3438V48.5821H73.8904V44.7218Z" fill="white"/>
<path d="M73.6282 43.2499C73.4052 43.2499 73.229 43.4267 73.229 43.6503C73.229 43.874 73.4052 44.04 73.6282 44.04C73.8332 44.04 74.0094 43.8596 74.0094 43.6503C74.0094 43.4267 73.8332 43.2499 73.6282 43.2499Z" fill="white"/>
<path d="M76.7063 44.6461C76.1884 44.6461 75.8216 44.9059 75.5483 45.1981V44.7255H74.998V50.0037H75.5483V48.1529C75.818 48.4595 76.1489 48.6652 76.6344 48.6652C77.4364 48.6652 78.0837 47.958 78.0837 46.5943C78.0837 45.2306 77.4723 44.6461 76.7063 44.6461ZM76.5876 48.1853C76.1345 48.1853 75.7605 47.9292 75.5483 47.6045V45.6779C75.818 45.3424 76.1561 45.1223 76.5661 45.1223C77.1774 45.1223 77.5443 45.6274 77.5443 46.5979C77.5443 47.6333 77.2278 48.1817 76.5912 48.1817L76.5876 48.1853Z" fill="white"/>
<path d="M80.9932 43.9606H83.4315V43.441H80.4214V48.5857H80.9932V46.1865H82.3994V45.667H80.9932V43.9606Z" fill="white"/>
<path d="M85.1001 44.6461C84.165 44.6461 83.417 45.3496 83.417 46.6593C83.417 47.9689 84.1363 48.6652 85.0713 48.6652C86.0064 48.6652 86.758 47.94 86.758 46.6304C86.758 45.3208 86.0423 44.6461 85.1001 44.6461ZM85.0857 48.1853C84.4168 48.1853 83.9744 47.6586 83.9744 46.6448C83.9744 45.631 84.4204 45.126 85.0857 45.126C85.751 45.126 86.2078 45.631 86.2078 46.6448C86.2078 47.6586 85.7546 48.1853 85.0857 48.1853Z" fill="white"/>
<path d="M89.7897 46.9803C89.7897 47.8245 89.3762 48.1853 88.8403 48.1853C88.2253 48.1853 87.9304 47.8137 87.9304 46.9803V44.7218H87.3838V47.0741C87.3838 48.1816 87.9196 48.6615 88.7324 48.6615C89.2107 48.6615 89.5704 48.4378 89.7897 48.1131V48.5857H90.3436V44.7254H89.7897V46.9839V46.9803Z" fill="white"/>
<path d="M92.8758 44.6461C92.3939 44.6461 92.0343 44.8734 91.8149 45.1981V44.7254H91.2646V48.5857H91.8149V46.3273C91.8149 45.4831 92.2321 45.1223 92.7679 45.1223C93.3829 45.1223 93.6742 45.4939 93.6742 46.3273V48.5857H94.2244V46.2299C94.2244 45.1223 93.6886 44.6425 92.8758 44.6425V44.6461Z" fill="white"/>
<path d="M97.5291 45.1621C97.2557 44.8518 96.9285 44.6425 96.443 44.6425C95.6374 44.6425 94.9937 45.346 94.9937 46.717C94.9937 48.0879 95.6014 48.6616 96.371 48.6616C96.8925 48.6616 97.2557 48.4054 97.5255 48.1132V48.5858H98.0757V43.3834H97.5255V45.1621H97.5291ZM97.5291 47.6262C97.2557 47.9617 96.9213 48.1817 96.5113 48.1817C95.9035 48.1817 95.5367 47.6767 95.5367 46.7062C95.5367 45.6671 95.8496 45.1188 96.4897 45.1188C96.9429 45.1188 97.3133 45.3749 97.5291 45.6996V47.6225V47.6262Z" fill="white"/>
<path d="M100.406 44.6461C99.9101 44.6461 99.4569 44.7724 99.1189 44.9564L99.3203 45.4074C99.6367 45.2234 99.9676 45.1115 100.37 45.1115C100.931 45.1115 101.201 45.3929 101.201 45.963V46.4211C100.975 46.2949 100.629 46.1975 100.241 46.1975C99.4821 46.1975 98.77 46.5654 98.77 47.4349C98.77 48.3657 99.403 48.6652 100.004 48.6652C100.554 48.6652 100.931 48.409 101.201 48.1168V48.5894H101.751V45.9016C101.751 44.9997 101.234 44.6497 100.403 44.6497L100.406 44.6461ZM101.201 47.637C100.967 47.9544 100.597 48.2142 100.093 48.2142C99.6295 48.2142 99.3167 47.9653 99.3167 47.3916C99.3167 46.9046 99.6511 46.6376 100.216 46.6376C100.683 46.6376 100.957 46.717 101.201 46.8577V47.637Z" fill="white"/>
<path d="M103.507 43.3834H102.953V44.7219H102.478V45.1873H102.953V47.7885C102.953 48.4271 103.212 48.658 103.69 48.658C103.978 48.658 104.183 48.6147 104.395 48.5281L104.434 48.0519C104.258 48.124 104.114 48.1601 103.891 48.1601C103.6 48.1601 103.507 48.041 103.507 47.6983V45.1873H104.46V44.7219H103.507V43.3834Z" fill="white"/>
<path d="M105.707 43.2499C105.481 43.2499 105.301 43.4267 105.301 43.6503C105.301 43.874 105.481 44.04 105.707 44.04C105.912 44.04 106.085 43.8596 106.085 43.6503C106.085 43.4267 105.909 43.2499 105.707 43.2499Z" fill="white"/>
<path d="M105.97 44.7218H105.419V48.5821H105.97V44.7218Z" fill="white"/>
<path d="M108.48 44.6461C107.545 44.6461 106.797 45.3496 106.797 46.6593C106.797 47.9689 107.513 48.6652 108.451 48.6652C109.39 48.6652 110.134 47.94 110.134 46.6304C110.134 45.3208 109.415 44.6461 108.48 44.6461ZM108.466 48.1853C107.8 48.1853 107.351 47.6586 107.351 46.6448C107.351 45.631 107.8 45.126 108.466 45.126C109.131 45.126 109.588 45.631 109.588 46.6448C109.588 47.6586 109.135 48.1853 108.466 48.1853Z" fill="white"/>
<path d="M112.541 44.6461C112.059 44.6461 111.699 44.8734 111.476 45.1981V44.7254H110.926V48.5857H111.476V46.3273C111.476 45.4831 111.893 45.1223 112.429 45.1223C113.044 45.1223 113.339 45.4939 113.339 46.3273V48.5857H113.886V46.2299C113.886 45.1223 113.35 44.6425 112.541 44.6425V44.6461Z" fill="white"/>
<path d="M63.1051 25.6584C60.8969 25.6621 59.0771 27.3938 59.0771 29.5657C59.0771 31.7375 60.8969 33.4512 63.1051 33.4584C65.3348 33.4512 67.1366 31.7159 67.1366 29.5657C67.1366 27.4154 65.3348 25.6621 63.1051 25.6584ZM63.0511 31.6762C61.8967 31.6762 61.0264 30.731 61.0264 29.5657C61.0264 28.4003 61.9578 27.4371 63.1086 27.4371C64.2595 27.4371 65.1586 28.3823 65.1586 29.5657C65.1586 30.749 64.2163 31.6762 63.0547 31.6762H63.0511Z" fill="white"/>
<path d="M44.6234 22.9707C45.2384 23.5804 45.9433 24.1144 46.6374 24.4571L46.7093 24.4968L47.8997 23.0862L47.7846 23.0212C46.6554 22.4079 45.7707 21.6322 45.1916 20.6545C44.6162 19.6913 44.3213 18.5729 44.3213 17.2344V15.9789H42.1923V17.1009C42.1923 18.5512 41.865 19.6913 41.25 20.6906C40.5631 21.7982 39.5454 22.6893 38.2435 23.5155L38.1284 23.5877L39.4195 24.9297L39.4914 24.8901C40.2611 24.4716 41.0774 23.8258 41.7859 23.1042C42.4009 22.4729 42.9331 21.7982 43.2568 21.1596C43.5697 21.7874 44.048 22.426 44.6234 22.9743V22.9707Z" fill="white"/>
<path d="M42.3184 32.5348H51.2301V26.4269H42.3184V32.5348ZM44.3215 28.1514H49.2269V30.8103H44.3215V28.1514Z" fill="white"/>
<path d="M72.0312 32.5348H82.1082V26.4269H72.0312V32.5348ZM74.0128 28.1514H80.1302V30.8103H74.0128V28.1514Z" fill="white"/>
<path d="M51.2658 15.618H49.2842V25.727H51.2658V21.2534H53.5854V19.4567H51.2658V15.618Z" fill="white"/>
<path d="M92.3504 23.4866C93.0013 24.053 93.7458 24.5292 94.4471 24.8359L94.519 24.8683L95.5907 23.4144L95.4756 23.3567C94.4543 22.8335 93.5444 22.1842 92.8899 21.3904C92.2245 20.5823 91.8289 19.6082 91.8289 18.4357V18.0929H94.7779V16.354H86.7725V18.0929H89.7179V18.5114C89.7179 19.5793 89.3654 20.5751 88.7792 21.4373C88.0923 22.4728 87.0889 23.3062 86.1143 23.8473L85.9849 23.9159L87.3011 25.2832L87.3731 25.2471C88.0815 24.8431 88.8655 24.2334 89.5345 23.5479C90.0703 22.9851 90.5522 22.3898 90.8471 21.7945C91.2032 22.3718 91.7498 22.949 92.354 23.4866H92.3504Z" fill="white"/>
<path d="M106.682 28.1911H113.886V32.5312H115.885V26.4666H106.682V28.1911Z" fill="white"/>
<path d="M111.652 21.239C111.652 20.2829 111.224 19.4026 110.591 18.7316H112.569V17.0107H108.793V15.1166H106.646V17.0107H102.78V18.7316H104.801C104.182 19.4026 103.754 20.2757 103.754 21.239C103.754 23.3711 105.506 25.1029 107.696 25.1101C109.886 25.1029 111.648 23.3711 111.652 21.239ZM105.664 21.1596C105.664 19.9798 106.657 18.9805 107.696 18.9805C108.735 18.9805 109.724 19.9835 109.728 21.1596C109.728 22.3213 108.735 23.3242 107.696 23.3278C106.653 23.3242 105.668 22.3213 105.664 21.1596Z" fill="white"/>
<path d="M115.885 15.618H113.907V25.7631H115.885V21.8919H118.212V20.0953H115.885V15.618Z" fill="white"/>
<path d="M99.101 15.618H97.123V25.7631H99.101V21.2534H101.424V19.4567H99.101V15.618Z" fill="white"/>
<path d="M65.5256 18.6269H62.4111V20.4055H65.5256V26.0842H67.5072V15.618H65.5256V18.6269Z" fill="white"/>
<path d="M60.4939 23.2341C61.1125 23.8402 61.8354 24.3741 62.5259 24.7349L62.6014 24.7782L63.7918 23.3676L63.6767 23.3026C62.5474 22.7074 61.6807 21.9353 61.0981 20.972C60.5083 20.016 60.2134 18.8543 60.2134 17.5158V15.9789H58.0808V17.3859C58.0808 18.8362 57.7571 19.9727 57.1565 20.954C56.4732 22.0796 55.4339 22.9779 54.132 23.7969L54.0205 23.8691L55.3188 25.2148L55.3835 25.1715C56.1495 24.7494 56.9479 24.1396 57.6564 23.4433C58.2966 22.8048 58.8288 22.1085 59.1525 21.441C59.4582 22.0507 59.9257 22.6713 60.4939 23.2377V23.2341Z" fill="white"/>
<path d="M94.8538 25.6584C92.6456 25.6621 90.8259 27.3938 90.8223 29.5657C90.8259 31.7159 92.642 33.4512 94.8538 33.4584C97.0799 33.4512 98.8853 31.7159 98.8853 29.5657C98.8853 27.4154 97.0799 25.6621 94.8538 25.6584ZM94.7962 31.6762C93.6454 31.6762 92.7679 30.731 92.7679 29.5657C92.7679 28.4003 93.6957 27.4371 94.8538 27.4371C96.0118 27.4371 96.9001 28.3823 96.9037 29.5657C96.9037 30.7274 95.9578 31.6762 94.7962 31.6762Z" fill="white"/>
<path d="M74.4443 21.4158H76.4259V16.2531H71.0781V17.9703H74.4443V21.4158Z" fill="white"/>
<path d="M80.3929 21.4158H82.378V16.2531H77.0303V17.9703H80.3929V21.4158Z" fill="white"/>
<path d="M130.904 20.1891H129.238V15.8994H127.365V32.0983H129.238V22.1373H130.904V32.5312H132.846V15.618H130.904V20.1891Z" fill="white"/>
<path d="M124.617 22.4295C124.171 21.4518 123.987 20.3586 123.987 19.0165V18.378H126.235V16.556H119.704V18.378H122.024V19.0526C122.024 20.3225 121.858 21.3616 121.459 22.3248C120.995 23.4324 120.215 24.4282 118.971 25.4961L118.884 25.5754L120.114 26.7985L120.19 26.7407C120.808 26.2826 121.456 25.6187 121.995 24.9333C122.452 24.356 122.837 23.7571 123.078 23.2304C123.326 23.7427 123.714 24.3308 124.167 24.8791C124.692 25.5213 125.286 26.131 125.854 26.4954L125.93 26.5459L126.965 25.3049L126.883 25.2291C125.768 24.255 125.077 23.3855 124.624 22.4259L124.617 22.4295Z" fill="white"/>
<path d="M69.4204 23.8184H75.9981V25.745H78.1451V23.8184H84.8272V22.0903H69.4204V23.8184Z" fill="white"/>
<path d="M144.127 23.2665H137.431V18.1543H142.53V16.354H135.424V25.0126H144.127V23.2665Z" fill="white"/>
<path d="M140.34 27.1412H138.337V32.5312H147.705V30.7562H140.34V27.1412Z" fill="white"/>
<path d="M147.659 20.301V15.6145H145.681V28.0938H147.659V22.0977H150V20.301H147.659Z" fill="white"/>
<path d="M42.0087 10.3976L36.8767 8.26539L42.0087 6.1332L41.0953 3.92885L35.9669 6.06104L38.0923 0.912764L35.8913 0L33.7695 5.14828L31.6441 0L29.4431 0.912764L31.5685 6.06104L26.4401 3.92885L25.5303 6.1332L30.6587 8.26539L25.5303 10.3976L26.4401 12.6019L31.5685 10.4697L29.4431 15.618L31.6441 16.5308L33.7695 11.3861L35.8913 16.5308L38.0923 15.6144L35.9669 10.4697L41.0953 12.6019L42.0087 10.3976Z" fill="white"/>
<path d="M8.80409 24.7601H12.217V15.618H0.546875V18.6991H8.80409V24.7601Z" fill="white"/>
<path d="M22.1176 24.7601H25.5305V15.618H13.8604V18.6991H22.1176V24.7601Z" fill="white"/>
<path d="M0 29.4898H22.1175V34.198H25.5305V26.4088H0V29.4898Z" fill="white"/>
<path d="M8.25732 48.5858H25.5306V35.7819H8.25732V48.5858ZM11.6703 38.8629H22.1212V45.5048H11.6703V38.8629Z" fill="white"/>
</g>
<defs>
<clipPath id="clip0_9_122">
<rect width="150" height="50" fill="white"/>
</clipPath>
</defs>
</svg>
