<svg width="75" height="81" viewBox="0 0 75 81" fill="none" xmlns="http://www.w3.org/2000/svg">
<g clip-path="url(#clip0_67_1436)">
<path d="M45.1788 60.0889C59.9341 60.0889 71.8956 48.0225 71.8956 33.1378C71.8956 18.2532 59.9341 6.18677 45.1788 6.18677C30.4235 6.18677 18.4619 18.2532 18.4619 33.1378C18.4619 48.0225 30.4235 60.0889 45.1788 60.0889Z" fill="#FE7C1C"/>
<path d="M45.5355 81.5416H29.3545C28.4579 81.5416 27.7344 80.8118 27.7344 79.9073V66.8429C27.7548 64.3246 25.5029 62.4025 22.66 59.9664C18.0748 56.0399 11.798 50.6641 11.5535 39.1313C11.4108 32.3061 13.9786 25.8305 18.7677 20.8864C23.6484 15.86 30.455 12.9717 37.445 12.9717C44.435 12.9717 50.997 15.7264 55.9185 20.7322C60.7687 25.666 63.4078 32.1931 63.3467 39.1004C63.2448 50.7566 56.8254 56.1838 52.1382 60.1514C49.3667 62.495 47.176 64.3452 47.1658 66.6168V79.9073C47.1658 80.8118 46.4423 81.5416 45.5456 81.5416H45.5355ZM30.9645 78.273H43.9153V66.6065C43.9459 62.8136 46.911 60.3056 50.0494 57.6537C54.7162 53.7066 60.0147 49.2251 60.0962 39.0799C60.1472 33.0462 57.8444 27.3517 53.6055 23.0346C49.2954 18.6559 43.5587 16.2403 37.4348 16.2403C31.3109 16.2403 25.3501 18.7689 21.0705 23.1785C16.8928 27.4854 14.6511 33.1284 14.7734 39.0593C14.9874 49.1325 20.1636 53.5627 24.7387 57.4789C27.9484 60.2234 30.9849 62.8239 30.9543 66.8635V78.2833L30.9645 78.273Z" fill="black"/>
<path d="M37.4453 11.3375C36.5486 11.3375 35.8252 10.6077 35.8252 9.70312V3.17608C35.8252 2.27154 36.5486 1.54175 37.4453 1.54175C38.342 1.54175 39.0655 2.27154 39.0655 3.17608V9.70312C39.0655 10.6077 38.342 11.3375 37.4453 11.3375Z" fill="black"/>
<path d="M58.0477 19.9407C57.6299 19.9407 57.2223 19.7866 56.9064 19.4576C56.2747 18.8204 56.2747 17.7822 56.9064 17.1449L61.4815 12.5297C62.1133 11.8924 63.1424 11.8924 63.7741 12.5297C64.4059 13.167 64.4059 14.2052 63.7741 14.8425L59.1991 19.4576C58.8832 19.7763 58.4654 19.9407 58.0578 19.9407H58.0477Z" fill="black"/>
<path d="M73.0465 40.7245H66.5762C65.6795 40.7245 64.9561 39.9947 64.9561 39.0901C64.9561 38.1856 65.6795 37.4558 66.5762 37.4558H73.0465C73.9432 37.4558 74.6666 38.1856 74.6666 39.0901C74.6666 39.9947 73.9432 40.7245 73.0465 40.7245Z" fill="black"/>
<path d="M62.6227 66.1236C62.205 66.1236 61.7974 65.9694 61.4815 65.6405L56.9064 61.0253C56.2747 60.388 56.2747 59.3499 56.9064 58.7126C57.5382 58.0753 58.5673 58.0753 59.1991 58.7126L63.7741 63.3278C64.4059 63.9651 64.4059 65.0032 63.7741 65.6405C63.4583 65.9591 63.0405 66.1236 62.6329 66.1236H62.6227Z" fill="black"/>
<path d="M12.2664 66.1236C11.8486 66.1236 11.4411 65.9694 11.1252 65.6405C10.4934 65.0032 10.4934 63.9651 11.1252 63.3278L15.7003 58.7126C16.332 58.0753 17.3612 58.0753 17.9929 58.7126C18.6246 59.3499 18.6246 60.388 17.9929 61.0253L13.4178 65.6405C13.1019 65.9591 12.6842 66.1236 12.2766 66.1236H12.2664Z" fill="black"/>
<path d="M8.31312 40.7245H1.84279C0.94611 40.7245 0.222656 39.9947 0.222656 39.0901C0.222656 38.1856 0.94611 37.4558 1.84279 37.4558H8.31312C9.20979 37.4558 9.93324 38.1856 9.93324 39.0901C9.93324 39.9947 9.20979 40.7245 8.31312 40.7245Z" fill="black"/>
<path d="M16.8522 19.9407C16.4345 19.9407 16.0269 19.7866 15.711 19.4576L11.1359 14.8425C10.5042 14.2052 10.5042 13.167 11.1359 12.5297C11.7677 11.8924 12.7968 11.8924 13.4286 12.5297L18.0036 17.1449C18.6354 17.7822 18.6354 18.8204 18.0036 19.4576C17.6878 19.7763 17.27 19.9407 16.8624 19.9407H16.8522Z" fill="black"/>
<path d="M45.5354 75.0045H29.3545C28.4578 75.0045 27.7344 74.2747 27.7344 73.3701V66.8431C27.7344 65.9385 28.4578 65.2087 29.3545 65.2087H45.5354C46.4321 65.2087 47.1556 65.9385 47.1556 66.8431V73.3701C47.1556 74.2747 46.4321 75.0045 45.5354 75.0045ZM30.9644 71.7358H43.9153V68.4671H30.9644V71.7358Z" fill="black"/>
<path d="M40.6855 68.4773C40.5327 68.4773 40.3798 68.4568 40.227 68.4054C39.3711 68.1484 38.882 67.2439 39.1265 66.3804L46.249 41.958L38.077 45.4939C37.2517 45.8536 36.304 45.4631 35.9474 44.6407C35.5908 43.8082 35.978 42.8522 36.7931 42.4925L48.1239 37.5998C48.7047 37.3531 49.367 37.4559 49.8357 37.8773C50.3044 38.2987 50.4878 38.9566 50.3146 39.563L42.2241 67.3158C42.0204 68.025 41.3682 68.4876 40.6753 68.4876L40.6855 68.4773Z" fill="black"/>
<path d="M34.2049 68.4773C33.5018 68.4773 32.8599 68.0148 32.6561 67.3056L24.5656 39.5528C24.3924 38.9463 24.5656 38.2885 25.0445 37.867C25.5132 37.4456 26.1756 37.3428 26.7564 37.5895L38.0871 42.4822C38.9124 42.8317 39.2894 43.7979 38.9328 44.6305C38.5762 45.4631 37.6285 45.8434 36.8032 45.4836L28.6312 41.9477L35.7537 66.3702C36.0084 67.2336 35.5193 68.1381 34.6532 68.3951C34.5004 68.4362 34.3475 68.4671 34.1947 68.4671L34.2049 68.4773Z" fill="black"/>
<path d="M48.7754 71.746H45.5352C44.6385 71.746 43.915 71.0162 43.915 70.1116C43.915 69.2071 44.6385 68.4773 45.5352 68.4773H48.7754C49.6721 68.4773 50.3956 69.2071 50.3956 70.1116C50.3956 71.0162 49.6721 71.746 48.7754 71.746Z" fill="black"/>
<path d="M48.7754 78.2731H45.5352C44.6385 78.2731 43.915 77.5433 43.915 76.6387C43.915 75.7342 44.6385 75.0044 45.5352 75.0044H48.7754C49.6721 75.0044 50.3956 75.7342 50.3956 76.6387C50.3956 77.5433 49.6721 78.2731 48.7754 78.2731Z" fill="black"/>
<path d="M29.3545 71.746H26.1143C25.2176 71.746 24.4941 71.0162 24.4941 70.1116C24.4941 69.2071 25.2176 68.4773 26.1143 68.4773H29.3545C30.2512 68.4773 30.9747 69.2071 30.9747 70.1116C30.9747 71.0162 30.2512 71.746 29.3545 71.746Z" fill="black"/>
<path d="M29.3545 78.2731H26.1143C25.2176 78.2731 24.4941 77.5433 24.4941 76.6387C24.4941 75.7342 25.2176 75.0044 26.1143 75.0044H29.3545C30.2512 75.0044 30.9747 75.7342 30.9747 76.6387C30.9747 77.5433 30.2512 78.2731 29.3545 78.2731Z" fill="black"/>
</g>
<defs>
<clipPath id="clip0_67_1436">
<rect width="74.4444" height="80" fill="white" transform="translate(0.222656 0.430664)"/>
</clipPath>
</defs>
</svg>
