<?xml version="1.0" encoding="UTF-8"?>
<svg id="Layer_1" data-name="Layer 1" xmlns="http://www.w3.org/2000/svg" viewBox="0 0 32 32">
  <defs>
    <style>
      .cls-1 {
        fill: #feefd2;
      }

      .cls-2 {
        fill: #e94655;
      }

      .cls-3 {
        fill: #5781c2;
      }

      .cls-4 {
        fill: #e74e44;
      }

      .cls-5 {
        fill: #4968a2;
      }
    </style>
  </defs>
  <path class="cls-2" d="m27.3,17.13c-.07.51-.19.97-.53,1.36-.23.27-.65.22-.89,0-.26-.24-.22-.65,0-.9,0,0,.01-.01.02-.02,0,0,0,0-.01.01.02-.03.04-.06.06-.1,0,0,0,0,0,0,.02-.04.03-.07.04-.11.02-.07.04-.15.05-.23,0-.03.01-.06.02-.09h0s0-.02,0-.02h0c.04-.38.08-.76.03-1.14,0-.03-.03-.17-.04-.19-.02-.08-.05-.16-.07-.24-.02-.03-.03-.07-.05-.1-.03-.07-.07-.13-.11-.19h0s0,0,0-.01c-.02-.03-.04-.05-.07-.08-.04-.04-.08-.08-.12-.12-.02,0-.11-.07-.12-.08-.02-.01-.03-.02-.05-.03h0s0,0,0,0c0,0,0,0,0,0,0,0-.02,0-.04-.01-.33-.11-.52-.44-.44-.79.07-.33.46-.55.77-.45.88.3,1.44,1.12,1.57,2.04.07.5.05,1-.01,1.5Z"/>
  <path class="cls-5" d="m17.12,24.74h.23c.76-.62,1.31-1.48,1.57-2.53-.29,1.13-.93,1.9-1.8,2.53Z"/>
  <path class="cls-3" d="m23.08,21.48c-.66-.46-.79-1.05-.72-1.86.17-2.01-1.27-3.71-3.3-4.04-.31-.05-.63-.07-.94-.09-.42-.03-.61-.23-.61-.65,0-.72,0-1.44,0-2.16v-.39c-1.24.41-2.31,1.04-3.33,1.84.95.9,1.5,2.01,1.76,3.27.08.36.13.72.16,1.08.02.25.13.41.34.53.52.28,1.04.57,1.56.86.81.44,1.16,1.22.97,2.13-.02.08-.04.15-.05.23h0c-.26,1.05-.81,1.91-1.57,2.53l1.1-.02c-.03-.09-.03-.19-.02-.29.05-.33.33-.49.72-.43,1.1.18,2.15.08,3.07-.62.49-.37.84-.85.98-1.46.03-.14-.02-.37-.12-.44Zm-2.34-.75c-.43,0-.77-.32-.78-.75,0-.44.32-.79.74-.79.42,0,.77.33.78.76.01.43-.32.78-.74.79Z"/>
  <path class="cls-1" d="m17.47,20.87c-.54-.31-1.09-.61-1.64-.91-.55-.3-.81-.77-.86-1.4-.08-1.14-.4-2.2-1.11-3.1-1.02-1.28-2.4-1.67-3.93-1.52-3.34.33-5.38,2.39-6.64,5.4-.35.83-.53,1.72-.52,2.63.04,1.77,1.31,2.85,3.03,2.61.84-.12,1.46-.56,1.89-1.29.41-.7.57-1.5.77-2.27.47-1.82,1.1-3.56,2.24-5.07.22-.29.45-.57.7-.83.24-.25.56-.24.79-.01.22.22.24.56,0,.81-1.34,1.42-2.04,3.18-2.56,5.04-.23.82-.43,1.67-.75,2.45-.45,1.08-1.31,1.83-2.3,2.17h2.01l3.74-.03c-.61-.18-1.19-.49-1.72-.97-.07-.06-.14-.13-.2-.2-.2-.25-.18-.57.04-.79.21-.21.53-.21.77,0,1.46,1.3,3.09,1.35,4.78.63,1.06-.45,1.62-1.37,1.85-2.49.09-.4-.04-.65-.4-.86Zm-4-.37c-.47,0-.8-.34-.8-.81,0-.46.33-.79.78-.79.46,0,.81.35.8.81,0,.45-.34.79-.79.79Z"/>
  <path d="m24.37,21.87c-.02.34-.15.7-.35,1.09-.03.06-.06.12-.1.17-.7,1.23-1.81,1.87-3.2,2.03-.58.07-1.17,0-1.76-.05-.28-.03-.46-.17-.52-.39-.03-.09-.03-.19-.02-.29.05-.33.33-.49.72-.43,1.1.18,2.15.08,3.07-.62.49-.37.84-.85.98-1.46.03-.14-.02-.37-.12-.44-.66-.46-.79-1.05-.72-1.86.17-2.01-1.27-3.71-3.3-4.04-.31-.05-.63-.07-.94-.09-.42-.03-.61-.23-.61-.65,0-.72,0-1.44,0-2.16v-.39c-1.24.41-2.31,1.04-3.33,1.84.95.9,1.5,2.01,1.76,3.27.08.36.13.72.16,1.08.02.25.13.41.34.53.52.28,1.04.57,1.56.86.81.44,1.16,1.22.97,2.13-.02.08-.04.16-.05.23h0c-.02.07-.04.14-.06.21-.28.95-.81,1.74-1.51,2.32-.08.06-.15.12-.23.18-.7.5-1.56.8-2.51.85-.79.05-1.55,0-2.26-.23-.61-.18-1.19-.49-1.72-.97-.07-.06-.14-.13-.2-.2-.2-.25-.18-.57.04-.79.21-.21.53-.21.77,0,1.46,1.3,3.09,1.35,4.78.63,1.06-.45,1.62-1.37,1.85-2.49.09-.4-.04-.65-.4-.86-.54-.31-1.09-.61-1.64-.91-.55-.3-.81-.77-.86-1.4-.08-1.14-.4-2.2-1.11-3.1-1.02-1.28-2.4-1.67-3.93-1.52-3.34.33-5.38,2.39-6.64,5.4-.35.83-.53,1.72-.52,2.63.04,1.77,1.31,2.85,3.03,2.61.84-.12,1.46-.56,1.89-1.29.41-.7.57-1.5.77-2.27.47-1.82,1.1-3.56,2.24-5.07.22-.29.45-.57.7-.83.24-.25.56-.24.79-.01.22.22.24.56,0,.81-1.34,1.42-2.04,3.18-2.56,5.04-.23.82-.43,1.67-.75,2.45-.45,1.08-1.31,1.83-2.3,2.17-1.13.39-2.44.25-3.5-.53-1.02-.75-1.43-1.83-1.43-3.08-.01-2.09.74-3.93,1.95-5.58,1.28-1.74,2.93-2.96,5.04-3.42.96-.21,1.91-.27,2.85-.11.52.09,1.04.24,1.55.48.1.04.28-.02.38-.09.09-.07.19-.14.28-.21.05-.04.1-.08.16-.12.36-.26.73-.51,1.1-.73.41-.24.83-.46,1.26-.65.07-.03.14-.06.22-.09.08-.04.17-.07.25-.1.09-.03.17-.06.26-.09.09-.03.17-.06.26-.09.21-.07.42-.13.64-.18.48-.11.77.12.78.64,0,.78.01,1.57,0,2.35,0,.29.07.4.37.43,2.37.27,4.15,1.99,4.48,4.34.03.2.03.4.03.61,0,.23-.01.45,0,.68,0,.13.05.31.14.38.55.43.77.91.73,1.46Z"/>
  <path d="m14.26,19.71c0,.45-.34.79-.79.79-.47,0-.8-.34-.8-.81,0-.46.33-.79.78-.79.46,0,.81.35.8.81Z"/>
  <path d="m21.48,19.94c.01.43-.32.78-.74.79-.43,0-.77-.32-.78-.75,0-.44.32-.79.74-.79.42,0,.77.33.78.76Z"/>
  <path d="m14.26,19.71c0,.45-.34.79-.79.79-.47,0-.8-.34-.8-.81,0-.46.33-.79.78-.79.46,0,.81.35.8.81Z"/>
  <path d="m21.48,19.94c.01.43-.32.78-.74.79-.43,0-.77-.32-.78-.75,0-.44.32-.79.74-.79.42,0,.77.33.78.76Z"/>
  <path class="cls-4" d="m28.49,13.81c-.92-1.58-2.94-2.14-4.52-1.26-.4.23-.96-.05-.94-.55.03-1.02-.28-2.01-.89-2.83-1.09-1.49-3.06-2.03-4.77-1.44-1.6.55-2.75,2.17-2.83,3.88-.03.48-.46.68-.82.6l-.3,1.03c.09-.07.19-.14.28-.21.05-.04.1-.08.16-.12.36-.26.73-.51,1.1-.73.41-.24.83-.46,1.26-.65.07-.03.14-.06.22-.09.08-.04.17-.07.25-.1.09-.03.17-.06.26-.09.09-.03.17-.06.26-.09.21-.07.42-.13.64-.18.48-.11.77.12.78.64,0,.78.01,1.57,0,2.35,0,.29.07.4.37.43,2.37.27,4.15,1.99,4.48,4.34.03.2.03.4.03.61l-.28.9,1.16,1.62h0s1.2-.43,1.2-.43l1.06-.38h.01s0,0,0,0l-.65-.35c.87-.48,1.65-1.13,2.21-1.97.98-1.47,1.2-3.36.29-4.92Zm-1.2,3.32c-.07.51-.19.97-.53,1.36-.23.27-.65.22-.89,0-.26-.24-.22-.65,0-.9,0,0,.01-.01.02-.02,0,0,0,0-.01.01.02-.03.04-.06.06-.1,0,0,0,0,0,0,.02-.04.03-.07.04-.11.02-.07.04-.15.05-.23,0-.03.01-.06.02-.09h0s0-.02,0-.02h0c.04-.38.08-.76.03-1.14,0-.03-.03-.17-.04-.19-.02-.08-.05-.16-.07-.24-.02-.03-.03-.07-.05-.1-.03-.07-.07-.13-.11-.19h0s0,0,0-.01c-.02-.03-.04-.05-.07-.08-.04-.04-.08-.08-.12-.12-.02,0-.11-.07-.12-.08-.02-.01-.03-.02-.05-.03h0s0,0,0,0c0,0,0,0,0,0,0,0-.02,0-.04-.01-.33-.11-.52-.44-.44-.79.07-.33.46-.55.77-.45.88.3,1.44,1.12,1.57,2.04.07.5.05,1-.01,1.5Z"/>
  <path class="cls-2" d="m14.97,12.18l-1.54,1.06c.09-.07.19-.14.28-.21.05-.04.1-.08.16-.12.36-.26.73-.51,1.1-.73Z"/>
  <path d="m30.31,16.5c-.22,2.35-1.81,4.32-3.82,5.38-.23.12-.44.09-.61-.01-.16-.09-.27-.26-.32-.43-.06-.24,0-.51.29-.66.04-.02.09-.05.13-.07.87-.48,1.65-1.13,2.21-1.97.98-1.47,1.2-3.36.29-4.92-.92-1.58-2.94-2.14-4.52-1.26-.4.23-.96-.05-.94-.55.03-1.02-.28-2.01-.89-2.83-1.09-1.49-3.06-2.03-4.77-1.44-1.6.55-2.75,2.17-2.83,3.88-.03.48-.46.68-.82.6-.25-.06-.45-.26-.44-.6.01-.19.03-.38.06-.56.16-1.07.61-2.07,1.3-2.91,1.49-1.8,4.07-2.4,6.2-1.52,1.82.76,3.11,2.49,3.39,4.45.96-.3,2.02-.29,2.97.07,2.12.81,3.32,3.11,3.12,5.36Z"/>
  <path d="m27.3,17.13c-.07.51-.19.97-.53,1.36-.23.27-.65.22-.89,0-.26-.24-.22-.65,0-.9,0,0,.01-.01.02-.02,0,0,0,0-.01.01.02-.03.04-.06.06-.1,0,0,0,0,0,0,.02-.04.03-.07.04-.11.02-.07.04-.15.05-.23,0-.03.01-.06.02-.09h0s0-.02,0-.02h0c.04-.38.08-.76.03-1.14,0-.03-.03-.17-.04-.19-.02-.08-.05-.16-.07-.24-.02-.03-.03-.07-.05-.1-.03-.07-.07-.13-.11-.19h0s0,0,0-.01c-.02-.03-.04-.05-.07-.08-.04-.04-.08-.08-.12-.12-.02,0-.11-.07-.12-.08-.02-.01-.03-.02-.05-.03h0s0,0,0,0c0,0,0,0,0,0,0,0-.02,0-.04-.01-.33-.11-.52-.44-.44-.79.07-.33.46-.55.77-.45.88.3,1.44,1.12,1.57,2.04.07.5.05,1-.01,1.5Z"/>
</svg>