<?xml version="1.0" encoding="UTF-8"?>
<svg id="Layer_1" data-name="Layer 1" xmlns="http://www.w3.org/2000/svg" viewBox="0 0 16 16">
  <defs>
    <style>
      .cls-1 {
        fill: #feefd2;
      }

      .cls-2 {
        fill: #e94655;
      }

      .cls-3 {
        fill: #5781c2;
      }

      .cls-4 {
        fill: #e74e44;
      }
    </style>
  </defs>
  <path class="cls-2" d="m13.83,7.93c-.04.27-.1.5-.27.71-.12.14-.34.12-.46,0-.14-.13-.11-.34,0-.47,0,0,0,0,0,0,0,0,0,0,0,0,.01-.02.02-.03.03-.05,0,0,0,0,0,0,0-.02.01-.04.02-.06.01-.04.02-.08.03-.12,0-.02,0-.03,0-.05h0s0-.01,0-.01h0c.02-.2.04-.4.02-.59,0-.01-.02-.09-.02-.1-.01-.04-.02-.08-.04-.13,0-.02-.02-.03-.02-.05-.02-.03-.04-.07-.06-.1h0s0,0,0,0c-.01-.01-.02-.03-.03-.04-.02-.02-.04-.04-.06-.06,0,0-.05-.04-.06-.04,0,0-.02,0-.02-.01h0s0,0,0,0c0,0,0,0,0,0,0,0-.01,0-.02,0-.17-.06-.27-.23-.23-.41.04-.17.24-.29.4-.23.46.15.75.58.81,1.06.04.26.03.52,0,.78Z"/>
  <path class="cls-3" d="m11.64,10.2c-.34-.24-.41-.55-.38-.97.09-1.05-.66-1.93-1.72-2.1-.16-.03-.33-.04-.49-.05-.22-.02-.32-.12-.32-.34,0-.37,0-.75,0-1.12v-.21c-.64.21-1.2.54-1.73.96.5.47.78,1.04.92,1.7.04.19.07.37.08.56.01.13.07.22.18.28.27.15.54.3.81.44.42.23.6.63.51,1.11,0,.04-.02.08-.03.12h0c-.14.54-.42.99-.82,1.31h.57c-.01-.05-.02-.11,0-.16.03-.17.17-.26.37-.22.57.09,1.12.04,1.6-.32.25-.19.44-.44.51-.76.01-.07-.01-.19-.06-.23Zm-1.22-.39c-.23,0-.4-.17-.4-.39,0-.23.16-.41.38-.41.22,0,.4.17.41.39,0,.23-.17.41-.39.41Z"/>
  <path class="cls-1" d="m8.72,9.88c-.28-.16-.57-.32-.85-.47-.29-.16-.42-.4-.45-.73-.04-.59-.21-1.14-.58-1.61-.53-.67-1.25-.87-2.05-.79-1.74.17-2.8,1.25-3.45,2.81-.18.43-.28.89-.27,1.37.02.92.68,1.48,1.58,1.36.44-.06.76-.29.98-.67.21-.37.3-.78.4-1.18.25-.94.57-1.85,1.17-2.64.11-.15.23-.3.37-.43.13-.13.29-.12.41,0,.12.11.13.29,0,.42-.69.74-1.06,1.65-1.33,2.62-.12.43-.22.87-.39,1.27-.23.56-.68.95-1.2,1.13h2.99c-.32-.11-.62-.27-.89-.52-.04-.03-.07-.07-.1-.11-.1-.13-.09-.3.02-.41.11-.11.28-.11.4,0,.76.67,1.61.7,2.49.33.55-.23.84-.71.96-1.29.04-.21-.02-.34-.21-.44Zm-2.08-.19c-.24,0-.42-.17-.41-.42,0-.24.17-.41.41-.41.24,0,.42.18.42.42,0,.23-.18.41-.41.41Z"/>
  <path d="m12.3,10.4c-.01.17-.08.36-.18.57-.02.03-.03.06-.05.09-.36.64-.94.98-1.66,1.06-.3.03-.61,0-.91-.03-.15-.01-.24-.09-.27-.2-.01-.05-.02-.1,0-.15.03-.17.17-.26.37-.22.57.09,1.12.04,1.6-.32.25-.19.44-.44.51-.76.01-.07-.01-.19-.06-.23-.34-.24-.41-.55-.38-.97.09-1.05-.66-1.93-1.72-2.1-.16-.03-.33-.04-.49-.05-.22-.02-.32-.12-.32-.34,0-.37,0-.75,0-1.12v-.21c-.64.21-1.2.54-1.73.96.5.47.78,1.04.92,1.7.04.19.07.37.08.56.01.13.07.22.18.28.27.15.54.3.81.44.42.23.6.63.51,1.11,0,.04-.02.08-.03.12h0s-.02.07-.03.11c-.15.5-.42.91-.79,1.2-.04.03-.08.06-.12.09-.36.26-.81.42-1.31.44-.41.02-.81,0-1.18-.12-.32-.1-.62-.26-.89-.5-.04-.03-.07-.07-.1-.11-.1-.13-.09-.3.02-.41.11-.11.28-.11.4,0,.76.67,1.61.7,2.49.33.55-.23.84-.71.96-1.29.04-.21-.02-.34-.21-.44-.28-.16-.57-.32-.85-.47-.29-.16-.42-.4-.45-.73-.04-.59-.21-1.14-.58-1.61-.53-.67-1.25-.87-2.05-.79-1.74.17-2.8,1.25-3.45,2.81-.18.43-.28.89-.27,1.37.02.92.68,1.48,1.58,1.36.44-.06.76-.29.98-.67.21-.37.3-.78.4-1.18.25-.94.57-1.85,1.17-2.64.11-.15.23-.3.37-.43.13-.13.29-.12.41,0,.12.11.13.29,0,.42-.69.74-1.06,1.65-1.33,2.62-.12.43-.22.87-.39,1.27-.23.56-.68.95-1.2,1.13-.59.2-1.27.13-1.82-.27-.53-.39-.74-.95-.74-1.6,0-1.09.39-2.04,1.01-2.9.66-.91,1.52-1.54,2.62-1.78.5-.11.99-.14,1.48-.06.27.05.54.13.81.25.05.02.15,0,.2-.05.05-.04.1-.07.15-.11.03-.02.05-.04.08-.06.19-.14.38-.26.57-.38.21-.13.43-.24.66-.34.04-.02.07-.03.11-.05.04-.02.09-.04.13-.05.04-.02.09-.03.13-.05.04-.02.09-.03.14-.05.11-.03.22-.07.33-.09.25-.06.4.06.4.33,0,.41,0,.82,0,1.22,0,.15.04.21.19.23,1.23.14,2.16,1.03,2.33,2.26.01.1.02.21.01.32,0,.12,0,.24,0,.35,0,.07.03.16.07.2.28.22.4.47.38.76Z"/>
  <path d="m7.05,9.28c0,.23-.18.41-.41.41-.24,0-.42-.17-.41-.42,0-.24.17-.41.41-.41.24,0,.42.18.42.42Z"/>
  <path d="m10.8,9.4c0,.23-.17.41-.39.41-.23,0-.4-.17-.4-.39,0-.23.16-.41.38-.41.22,0,.4.17.41.39Z"/>
  <path d="m7.05,9.28c0,.23-.18.41-.41.41-.24,0-.42-.17-.41-.42,0-.24.17-.41.41-.41.24,0,.42.18.42.42Z"/>
  <path d="m10.8,9.4c0,.23-.17.41-.39.41-.23,0-.4-.17-.4-.39,0-.23.16-.41.38-.41.22,0,.4.17.41.39Z"/>
  <path class="cls-4" d="m14.45,6.21c-.48-.82-1.53-1.11-2.35-.66-.21.12-.5-.03-.49-.29.01-.53-.15-1.05-.46-1.47-.57-.77-1.59-1.05-2.48-.75-.83.28-1.43,1.13-1.47,2.02-.01.25-.24.35-.43.31l-.16.54s.1-.07.15-.11c.03-.02.05-.04.08-.06.19-.14.38-.26.57-.38.21-.13.43-.24.66-.34.04-.02.07-.03.11-.05.04-.02.09-.04.13-.05.04-.02.09-.03.13-.05.04-.02.09-.03.14-.05.11-.03.22-.07.33-.09.25-.06.4.06.4.33,0,.41,0,.82,0,1.22,0,.15.04.21.19.23,1.23.14,2.16,1.03,2.33,2.26.01.1.02.21.01.32l-.15.47.6.84h0s.63-.22.63-.22l.55-.2h0s0,0,0,0l-.34-.18c.45-.25.86-.59,1.15-1.02.51-.76.63-1.75.15-2.56Zm-.62,1.72c-.04.27-.1.5-.27.71-.12.14-.34.12-.46,0-.14-.13-.11-.34,0-.47,0,0,0,0,0,0,0,0,0,0,0,0,.01-.02.02-.03.03-.05,0,0,0,0,0,0,0-.02.01-.04.02-.06.01-.04.02-.08.03-.12,0-.02,0-.03,0-.05h0s0-.01,0-.01h0c.02-.2.04-.4.02-.59,0-.01-.02-.09-.02-.1-.01-.04-.02-.08-.04-.13,0-.02-.02-.03-.02-.05-.02-.03-.04-.07-.06-.1h0s0,0,0,0c-.01-.01-.02-.03-.03-.04-.02-.02-.04-.04-.06-.06,0,0-.05-.04-.06-.04,0,0-.02,0-.02-.01h0s0,0,0,0c0,0,0,0,0,0,0,0-.01,0-.02,0-.17-.06-.27-.23-.23-.41.04-.17.24-.29.4-.23.46.15.75.58.81,1.06.04.26.03.52,0,.78Z"/>
  <path class="cls-2" d="m7.41,5.36l-.8.55s.1-.07.15-.11c.03-.02.05-.04.08-.06.19-.14.38-.26.57-.38Z"/>
  <path d="m15.39,7.61c-.11,1.22-.94,2.25-1.98,2.8-.12.06-.23.05-.32,0-.08-.05-.14-.13-.16-.22-.03-.13,0-.27.15-.34.02-.01.04-.02.07-.04.45-.25.86-.59,1.15-1.02.51-.76.63-1.75.15-2.56-.48-.82-1.53-1.11-2.35-.66-.21.12-.5-.03-.49-.29.01-.53-.15-1.05-.46-1.47-.57-.77-1.59-1.05-2.48-.75-.83.28-1.43,1.13-1.47,2.02-.01.25-.24.35-.43.31-.13-.03-.24-.13-.23-.31,0-.1.01-.2.03-.29.08-.56.32-1.08.68-1.51.77-.94,2.12-1.25,3.22-.79.95.39,1.62,1.3,1.76,2.32.5-.16,1.05-.15,1.54.04,1.1.42,1.73,1.62,1.62,2.79Z"/>
  <path d="m13.83,7.93c-.04.27-.1.5-.27.71-.12.14-.34.12-.46,0-.14-.13-.11-.34,0-.47,0,0,0,0,0,0,0,0,0,0,0,0,.01-.02.02-.03.03-.05,0,0,0,0,0,0,0-.02.01-.04.02-.06.01-.04.02-.08.03-.12,0-.02,0-.03,0-.05h0s0-.01,0-.01h0c.02-.2.04-.4.02-.59,0-.01-.02-.09-.02-.1-.01-.04-.02-.08-.04-.13,0-.02-.02-.03-.02-.05-.02-.03-.04-.07-.06-.1h0s0,0,0,0c-.01-.01-.02-.03-.03-.04-.02-.02-.04-.04-.06-.06,0,0-.05-.04-.06-.04,0,0-.02,0-.02-.01h0s0,0,0,0c0,0,0,0,0,0,0,0-.01,0-.02,0-.17-.06-.27-.23-.23-.41.04-.17.24-.29.4-.23.46.15.75.58.81,1.06.04.26.03.52,0,.78Z"/>
</svg>