<svg width="104" height="45" viewBox="0 0 104 45" fill="none" xmlns="http://www.w3.org/2000/svg">
<path d="M3.43449 21.2394C4.06676 20.5962 4.06676 19.5532 3.43449 18.91C2.80221 18.2667 1.7771 18.2667 1.14483 18.91C0.512557 19.5532 0.512557 20.5962 1.14483 21.2394C1.7771 21.8827 2.80221 21.8827 3.43449 21.2394Z" fill="#E80A4D"/>
<path d="M23.1484 10.373C23.7806 9.72971 23.7806 8.68679 23.1484 8.04353C22.5161 7.40028 21.491 7.40027 20.8587 8.04353C20.2264 8.68679 20.2264 9.72971 20.8587 10.373C21.491 11.0162 22.5161 11.0162 23.1484 10.373Z" fill="#E80A4D"/>
<path d="M79.3205 26.4057C74.3194 24.3559 76.9099 15.9369 77.9893 13.8871C77.9893 13.8871 70.7575 22.489 63.4538 22.489C56.1141 22.489 52.7321 12.423 51.6528 7.95728C50.5734 12.423 47.1914 22.489 39.8517 22.489C32.512 22.489 25.3163 13.8871 25.3163 13.8871C26.3956 15.9369 28.9861 24.3559 23.985 26.4057C19.0559 28.4555 7.25488 23.9166 7.25488 23.9166C19.6316 34.5684 20.0633 44.8175 20.0633 44.8175C36.6496 42.4382 51.6168 42.5114 51.6168 42.5114C51.6168 42.5114 66.584 42.4382 83.1702 44.8175C83.1702 44.8175 83.602 34.5684 95.9787 23.9166C96.0147 23.9166 84.2136 28.4555 79.3205 26.4057Z" fill="#E80A4D"/>
<path d="M102.19 21.228C102.823 20.5847 102.823 19.5418 102.19 18.8985C101.558 18.2553 100.533 18.2553 99.9007 18.8985C99.2684 19.5418 99.2684 20.5847 99.9007 21.228C100.533 21.8712 101.558 21.8712 102.19 21.228Z" fill="#E80A4D"/>
<path d="M82.4443 10.3808C83.0765 9.73753 83.0765 8.6946 82.4443 8.05134C81.812 7.40809 80.7869 7.40809 80.1546 8.05134C79.5223 8.6946 79.5223 9.73753 80.1546 10.3808C80.7869 11.024 81.812 11.024 82.4443 10.3808Z" fill="#E80A4D"/>
<path d="M52.7987 3.49407C53.431 2.85081 53.431 1.80788 52.7987 1.16463C52.1665 0.521369 51.1414 0.521369 50.5091 1.16463C49.8768 1.80788 49.8768 2.85081 50.5091 3.49407C51.1414 4.13732 52.1665 4.13732 52.7987 3.49407Z" fill="#E80A4D"/>
</svg>
