<svg xmlns="http://www.w3.org/2000/svg" width="120.253" height="39.783" viewBox="0 0 120.253 39.783">
  <g id="log_w" transform="translate(-2041.923 92.001)">
    <path id="패스_1" data-name="패스 1" d="M112.606,23.948a2.7,2.7,0,0,1-2.538-3.6l4.695-13.234-14.13,5a2.694,2.694,0,1,1-1.8-5.079L118.293.153a2.694,2.694,0,0,1,3.437,3.441l-6.586,18.559a2.694,2.694,0,0,1-2.538,1.794" transform="translate(2040.29 -92)" fill="#db000f"/>
    <g id="그룹_3" data-name="그룹 3" transform="translate(2041.923 -73.416)">
      <rect id="사각형_2" data-name="사각형 2" width="2.784" height="9.497" transform="translate(95.216 0.163)" fill="#fff"/>
      <rect id="사각형_3" data-name="사각형 3" width="2.784" height="5.444" transform="translate(95.216 11.829)" fill="#fff"/>
      <path id="패스_2" data-name="패스 2" d="M16.946,20.78v-1.6H2.865v1.6h11.3v6.671H0v1.6H21.121v-1.6H16.946ZM3.684,31.524v5.322s0,.038,0,.1v.229l.012.009c.056.767.37,2.591,2.117,2.591H16.946v-1.6h-.021V32.9h.021V31.3H3.684ZM6.468,32.9h7.674v5.28H6.468Zm91.087-2.148H84.048v1.6H97.555ZM69.435,32.506h2.784V19.081H69.435v5.526H65.219v1.6h4.215Zm28.2-9.537H92.07v1.6h5.568ZM39.98,32.728a5.943,5.943,0,0,0,4.93-5.666,5.6,5.6,0,0,0-2.051-4.277h4.08v-1.6H39.98V18.917H37.2v2.271H30.238v1.6h4.081a5.6,5.6,0,0,0-2.051,4.277,5.943,5.943,0,0,0,4.93,5.666v2.889H27.844v1.6h21.49v-1.6H39.98Zm-4.912-5.666a3.524,3.524,0,1,1,3.521,3.357,3.441,3.441,0,0,1-3.521-3.357M61.483,38.517,61.459,31.7l-2.783.01.018,5.486s0,.033,0,.083v.244l.013.01c.058.766.378,2.589,2.125,2.583l11.789-.037,0-1.6ZM98,38.481l-11.137.035-.012-2.326H97.72v-1.6H84.068v.064h-.014l.02,2.865.013.01c.058.767.378,2.589,2.125,2.583L98,40.078ZM64.727,19.694H55.968v1.6h5.987C61.713,25.676,55.17,29.4,55.17,29.4l.737,1.064c9.169-3.93,8.82-10.766,8.82-10.766m20.979,2.17c.9.573,3.766,3.766,3.52,6.8H91.6s-1.474-6.631-5.485-9.006c0,0-1.639-.737-2.293.246s-3.029,8.677-3.029,8.677H83s1.8-7.285,2.7-6.713" transform="translate(0 -18.917)" fill="#fff"/>
    </g>
  </g>
</svg>
