<?xml version="1.0" encoding="utf-8"?>
<!-- Generator: Adobe Illustrator 28.2.0, SVG Export Plug-In . SVG Version: 6.00 Build 0)  -->
<svg version="1.1" id="Layer_1" xmlns="http://www.w3.org/2000/svg" xmlns:xlink="http://www.w3.org/1999/xlink" x="0px" y="0px"
	 viewBox="0 0 32 32" style="enable-background:new 0 0 32 32;" xml:space="preserve">
<style type="text/css">
	.st0{fill:#35763C;}
	.st1{fill:#245F2E;}
	.st2{fill:#A4BC49;}
	.st3{fill:#458C38;}
	.st4{fill:#68AC45;}
	.st5{fill:#648943;}
</style>
<g>
	<path class="st0" d="M9.96,22.18c-0.84,0.47-2.06,0.63-3.29,0.7c-2.61,0.15-4.18-0.41-4.67-1.27c-0.48-0.86,1.22-5.24,3.05-8.01
		c1.83-2.78,3.2,0.13,3.2,0.13s0.26,0.49,0.66,1.3v0c-0.07,2.43-0.06,5.02-0.03,5.42C8.91,20.86,9.17,21.62,9.96,22.18z"/>
	<path class="st1" d="M9.96,22.18c-0.79-0.56-1.05-1.31-1.08-1.72c-0.02-0.4-0.04-2.99,0.03-5.42c0.48,0.97,1.15,2.42,1.8,4.08
		C11.35,20.73,10.91,21.65,9.96,22.18z"/>
	<path class="st2" d="M14.79,18.02c-0.05,1.48,0.39,2.6,1.11,3.37c-0.73,1.12-2.03,1.59-3.7,1.49c-1.02-0.06-1.74-0.34-2.24-0.7
		c0.95-0.53,1.39-1.45,0.75-3.07c-0.65-1.66-1.32-3.1-1.8-4.08v0c0.05-1.69,0.15-3.31,0.32-4.06c0.42-1.83,3.83-1.77,3.83-1.77
		c2.63-0.06,2.86,1.03,3.11,1.39c0.15,0.21,0.27,2.01,0.33,4.06C15.63,15.3,14.85,16.33,14.79,18.02z"/>
	<path class="st3" d="M16.56,18.86c-0.02,1.06-0.25,1.9-0.66,2.53c-0.72-0.78-1.16-1.9-1.11-3.37c0.06-1.68,0.83-2.72,1.72-3.36
		C16.56,16.09,16.58,17.64,16.56,18.86z"/>
	<path class="st4" d="M22.02,22.12c-0.25,0.15-0.54,0.28-0.86,0.38c-1.85,0.59-3.99,0.27-5.26-1.11c0.41-0.63,0.64-1.47,0.66-2.53
		c0.02-1.21,0-2.77-0.05-4.2c1.26-0.91,2.76-1.02,2.76-1.02h0.65c1.04,0.12,1.9,0.57,2.54,1.17c-1.02,2.77-1.75,5.7-0.9,6.94
		C21.56,21.76,21.68,21.92,22.02,22.12z"/>
	<path class="st0" d="M22.02,22.12c-0.35-0.2-0.46-0.36-0.46-0.36c-0.84-1.24-0.12-4.17,0.9-6.94c0.77,0.71,1.23,1.63,1.32,2.42
		C23.94,18.53,24.04,20.95,22.02,22.12z"/>
	<path class="st5" d="M26.46,22.91c-2.56,0.02-3.84-0.44-4.44-0.79c2.02-1.17,1.92-3.59,1.77-4.88c-0.09-0.79-0.56-1.71-1.32-2.42
		c1.1-2.97,2.53-5.75,2.73-6.07c0.1-0.15,0.19-0.26,0.29-0.33c0.03-0.03,0.54-0.49,1.49-0.17c0,0,0,0,0,0
		c0.04,0.01,0.08,0.03,0.13,0.05c0,0,0,0,0,0h0c0.47,0.24,0.78,1.13,0.78,1.13c0.74,1.76,2.65,8.87,2.92,10.53
		C31.09,21.61,30.52,22.88,26.46,22.91z"/>
</g>
</svg>
