<svg width="107" height="166" viewBox="0 0 107 166" fill="none" xmlns="http://www.w3.org/2000/svg">
<g clip-path="url(#clip0_25_121)">
<path d="M106.37 159.734L89.2223 132.253C88.5923 131.248 87.4898 130.637 86.2889 130.637H62.113V106.331C75.3428 105.562 87.7458 100.417 97.6484 91.585L100.168 94.1083C100.838 94.7786 101.724 95.1137 102.61 95.1137C103.496 95.1137 104.381 94.7786 105.051 94.1083C106.409 92.7678 106.409 90.5599 105.051 89.2194L100.168 84.3305L92.8447 76.9972C92.8447 76.9972 92.766 76.9381 92.7069 76.8986C99.6959 68.7571 103.535 58.5259 103.535 47.6639C103.535 35.6585 98.869 24.3628 90.3838 15.8861C81.8987 7.38968 70.6376 2.71763 58.6481 2.71763C47.8201 2.71763 37.5827 6.56172 29.4519 13.5599C29.4125 13.5205 29.3929 13.4614 29.3535 13.4219L17.1671 1.19971C15.8087 -0.14079 13.6234 -0.14079 12.2847 1.19971C10.9459 2.54021 10.9263 4.7481 12.2847 6.0886L14.8046 8.6119C-5.67006 31.6567 -4.90226 67.1012 17.1671 89.1997C27.4438 99.49 40.8311 105.463 55.2225 106.311V130.617H31.0466C29.8457 130.617 28.7432 131.228 28.1132 132.234L10.8475 159.891C10.1781 160.956 10.1388 162.296 10.7491 163.4C11.3594 164.504 12.5209 165.175 13.7612 165.175H103.535C105.445 165.175 106.98 163.637 106.98 161.725C106.98 160.976 106.744 160.286 106.35 159.714L106.37 159.734ZM30.4166 24.2642L53.7853 47.6639L46.501 54.9578C40.1618 48.137 35.24 40.8825 32.5034 34.2589C30.8694 30.2965 30.1804 26.8467 30.4166 24.2839V24.2642ZM58.6677 52.5528L82.0168 75.9327C81.7018 75.9524 81.3868 75.9918 81.0324 75.9918C74.6931 75.9918 63.3139 70.965 51.3835 59.8467L58.6677 52.5528ZM86.9189 71.0635L63.5502 47.6639L70.8344 40.37C77.1737 47.1908 82.1152 54.4452 84.8321 61.0689C86.4661 65.0313 87.1551 68.4811 86.9189 71.0438V71.0635ZM58.6677 42.775L35.3187 19.3951C35.6337 19.3753 35.9487 19.3359 36.3031 19.3359C42.6424 19.3359 54.0216 24.3628 65.952 35.4811L58.6677 42.775ZM24.3529 31.4596C26.4398 39.8968 32.4444 50.0295 41.6383 59.827L29.511 71.9703C19.9233 60.4381 18.2105 44.5492 24.3726 31.4399L24.3529 31.4596ZM46.501 64.7356C55.9509 73.5868 66.3064 79.8556 74.8309 82.0438C69.8304 84.4094 64.3574 85.6908 58.6481 85.6908C49.6707 85.6908 41.1658 82.5761 34.354 76.8789L46.4814 64.7356H46.501ZM92.9826 63.8879C90.8957 55.4506 84.8911 45.2983 75.6972 35.5008L87.8442 23.3377C93.5338 30.1585 96.6444 38.6746 96.6444 47.6639C96.6444 53.3807 95.345 58.8807 92.9826 63.8879ZM82.9618 18.4488L70.8344 30.5922C61.3846 21.7409 51.0291 15.4721 42.5045 13.2839C47.5051 10.9184 52.9781 9.63699 58.6677 9.63699C67.6451 9.63699 76.15 12.7517 82.9618 18.4488ZM19.6871 13.5205L24.4711 18.3108C24.4711 18.3108 24.5695 18.3897 24.6089 18.4291C9.48909 36.0725 10.2372 62.7248 26.9123 79.4417C35.3975 87.9381 46.6585 92.6101 58.6481 92.6101C69.476 92.6101 79.7134 88.766 87.8442 81.7678C87.8836 81.8072 87.9033 81.8664 87.9426 81.9058L92.7266 86.7158C83.2768 95.0151 71.3069 99.5492 58.6284 99.5492C44.7883 99.5492 31.7947 94.1477 22.0102 84.3503C2.67732 64.9327 1.88983 33.8646 19.6871 13.5205ZM20.0021 158.275L32.9562 137.537H84.3596L97.3137 158.275H20.0021Z" fill="white"/>
<path d="M79.3789 144.456H37.957C36.0473 144.456 34.5117 146.013 34.5117 147.906C34.5117 149.798 36.067 151.356 37.957 151.356H79.3789C81.2885 151.356 82.8241 149.798 82.8241 147.906C82.8241 146.013 81.2688 144.456 79.3789 144.456Z" fill="white"/>
</g>
<defs>
<clipPath id="clip0_25_121">
<rect width="107" height="165" fill="white" transform="translate(0 0.194336)"/>
</clipPath>
</defs>
</svg>
