<svg width="121" height="137" viewBox="0 0 121 137" fill="none" xmlns="http://www.w3.org/2000/svg">
<g clip-path="url(#clip0_25_124)">
<path d="M117.426 0.72556L18.1699 0.272062C8.79082 0.229209 1.12347 7.79676 1.08078 17.1387L0.616202 118.821C0.573519 128.163 8.1714 135.8 17.5505 135.843L116.807 136.297C118.375 136.304 119.642 135.053 119.65 133.491L120.243 3.55718C120.25 1.99482 118.979 0.732652 117.426 0.72556ZM46.2183 69.3711L54.7629 60.9378L64.051 70.2741C64.228 70.452 64.4376 70.598 64.6473 70.7117C64.6957 70.7441 64.7602 70.7766 64.8086 70.7929C65.0184 70.8905 65.2444 70.9882 65.4706 71.0376C65.4706 71.0376 65.4705 71.0376 65.4867 71.0377C65.6644 71.0707 65.8584 71.0877 66.0363 71.0885C66.101 71.0888 66.1495 71.089 66.2143 71.0732C66.2789 71.0735 66.3275 71.0737 66.3922 71.0579C66.6349 71.0268 66.8777 70.9796 67.1207 70.884C68.19 70.454 68.8738 69.4263 68.8791 68.2827L68.9694 48.5035L102.993 48.659L102.812 88.2013L46.1335 87.9423L46.2185 69.3389L46.2183 69.3711ZM63.5193 6.13288L63.2665 61.4599L56.7954 54.9552C56.5218 54.6801 56.1993 54.4693 55.8604 54.3228C54.8436 53.8993 53.6136 54.1031 52.7851 54.9369L46.2548 61.3821L46.5076 6.05515L63.5193 6.13288ZM6.29208 118.863L6.75673 17.1647C6.78521 10.9313 11.9022 5.88093 18.1603 5.90953L29.5122 5.96139L28.9444 130.242L17.5925 130.19C11.3344 130.161 6.26375 125.064 6.29215 118.847L6.29208 118.863ZM114.003 130.646L34.6041 130.284L35.1719 6.00336L40.8478 6.02929L40.4607 90.7673C40.4535 92.3297 41.7253 93.5919 43.2777 93.599L105.665 93.884C107.233 93.8912 108.5 92.6245 108.507 91.0782L108.714 45.8825C108.721 44.3201 107.449 43.0579 105.897 43.0508L69.0275 42.8824L69.1953 6.15881L114.571 6.36613L114.003 130.646Z" fill="white"/>
<path d="M105.6 108.01L65.9007 107.828C64.3321 107.821 63.065 109.088 63.0579 110.634C63.0509 112.18 64.3064 113.459 65.8749 113.466L105.574 113.647C107.143 113.654 108.41 112.404 108.417 110.841C108.424 109.279 107.152 108.017 105.6 108.01Z" fill="white"/>
<path d="M105.549 119.317L80.0311 119.2C78.4625 119.193 77.1954 120.46 77.1883 122.006C77.1812 123.552 78.4529 124.83 80.0053 124.838L105.523 124.954C107.091 124.961 108.359 123.695 108.366 122.148C108.373 120.602 107.101 119.324 105.549 119.317Z" fill="white"/>
<path d="M94.39 76.8877L54.6907 76.7063C53.1222 76.6991 51.855 77.9658 51.848 79.5121C51.8409 81.0583 53.1126 82.3366 54.665 82.3437L94.3643 82.5251C95.9328 82.5322 97.2 81.2656 97.207 79.7193C97.2141 78.173 95.9424 76.8948 94.39 76.8877Z" fill="white"/>
<path d="M94.4417 65.5968L77.43 65.519C75.8614 65.5119 74.5944 66.7624 74.5872 68.3248C74.5801 69.8872 75.8357 71.1493 77.4042 71.1564L94.4159 71.2342C95.9845 71.2413 97.2516 69.9746 97.2587 68.4284C97.2657 66.8821 95.9941 65.6039 94.4417 65.5968Z" fill="white"/>
<path d="M94.4934 54.2899L77.4817 54.2121C75.9132 54.205 74.6461 55.4556 74.639 57.0179C74.6318 58.5803 75.8874 59.8424 77.456 59.8495L94.4677 59.9273C96.0362 59.9344 97.3034 58.6678 97.3104 57.1215C97.3175 55.5752 96.0458 54.297 94.4934 54.2899Z" fill="white"/>
</g>
<defs>
<clipPath id="clip0_25_124">
<rect width="119.115" height="135.589" fill="white" transform="translate(1.1582 0.194336) rotate(0.26178)"/>
</clipPath>
</defs>
</svg>
