<svg width="9" height="6" viewBox="0 0 9 6" fill="none" xmlns="http://www.w3.org/2000/svg">
<path d="M0.351108 5.69701C0.254528 5.69701 0.171865 5.66291 0.103119 5.59472C0.0343729 5.52652 0 5.44454 0 5.34877C0 5.25488 0.0343729 5.17287 0.103119 5.10275C0.171865 5.03264 0.254528 4.99759 0.351108 4.99759H8.63275C8.72746 4.99759 8.80919 5.03169 8.87794 5.09988C8.94669 5.16808 8.98106 5.24913 8.98106 5.34303C8.98106 5.43879 8.94669 5.52173 8.87794 5.59185C8.80919 5.66195 8.72746 5.69701 8.63275 5.69701H0.351108ZM0.351108 3.19821C0.254528 3.19821 0.171865 3.16412 0.103119 3.09592C0.0343729 3.02773 0 2.94575 0 2.84998C0 2.75608 0.0343729 2.67407 0.103119 2.60396C0.171865 2.53385 0.254528 2.4988 0.351108 2.4988H8.63275C8.72746 2.4988 8.80919 2.53289 8.87794 2.60108C8.94669 2.66928 8.98106 2.75033 8.98106 2.84423C8.98106 2.94 8.94669 3.02294 8.87794 3.09305C8.80919 3.16316 8.72746 3.19821 8.63275 3.19821H0.351108ZM0.351108 0.699416C0.254528 0.699416 0.171865 0.665321 0.103119 0.597129C0.0343729 0.528937 0 0.446955 0 0.351181C0 0.257284 0.0343729 0.175282 0.103119 0.105175C0.171865 0.035058 0.254528 0 0.351108 0H8.63275C8.72746 0 8.80919 0.0340955 8.87794 0.102287C8.94669 0.170489 8.98106 0.251537 8.98106 0.345435C8.98106 0.441208 8.94669 0.524149 8.87794 0.594256C8.80919 0.664363 8.72746 0.699416 8.63275 0.699416H0.351108Z" fill="#1D1D1D"/>
</svg>
