<svg width="77" height="68" viewBox="0 0 77 68" fill="none" xmlns="http://www.w3.org/2000/svg">
<g clip-path="url(#clip0_67_1454)">
<path d="M36.2577 59.6518C51.6434 59.6518 64.116 47.179 64.116 31.7929C64.116 16.4069 51.6434 3.93408 36.2577 3.93408C20.872 3.93408 8.39941 16.4069 8.39941 31.7929C8.39941 47.179 20.872 59.6518 36.2577 59.6518Z" fill="#749DF5"/>
<path d="M36.2582 66.2364C29.9094 66.2364 23.9335 65.8929 19.4294 65.2649C13.4633 64.4308 11.1377 63.3219 11.1377 61.3201V37.6121C11.1377 37.0724 11.4026 36.5719 11.8442 36.2579C12.2858 35.9537 12.8549 35.885 13.3554 36.0715L36.2582 44.7952L59.1611 36.0715C59.6615 35.8752 60.2307 35.9439 60.6722 36.2579C61.1138 36.5621 61.3788 37.0724 61.3788 37.6121V61.3201C61.3788 63.3219 59.0531 64.4308 53.087 65.2649C48.5732 65.8929 42.5972 66.2364 36.2484 66.2364H36.2582ZM14.4151 60.7706C16.1029 61.6145 23.4821 62.9589 36.2582 62.9589C49.0344 62.9589 56.4135 61.6145 58.1013 60.7706V39.9868L36.8372 48.0825C36.4643 48.2297 36.0423 48.2297 35.6695 48.0825L14.4053 39.9868V60.7706H14.4151Z" fill="black"/>
<path d="M36.2581 48.1903C36.0619 48.1903 35.8656 48.1511 35.6792 48.0824L1.22676 34.9625C0.588939 34.7172 0.166992 34.1088 0.166992 33.4317C0.166992 32.7546 0.588939 32.1364 1.22676 31.9009L35.6694 18.781C36.0422 18.6339 36.4642 18.6339 36.8371 18.781L71.2797 31.9009C71.9175 32.1462 72.3394 32.7546 72.3394 33.4317C72.3394 34.1088 71.9175 34.727 71.2797 34.9625L36.8371 48.0824C36.6506 48.1511 36.4544 48.1903 36.2483 48.1903H36.2581ZM6.41769 33.4317L36.2581 44.7951L66.0986 33.4317L36.2581 22.0684L6.41769 33.4317Z" fill="black"/>
<path d="M70.7004 46.5516C69.7976 46.5516 69.0617 45.8156 69.0617 44.9128V35.0705H37.8965C36.9938 35.0705 36.2578 34.3345 36.2578 33.4317C36.2578 32.5289 36.9938 31.793 37.8965 31.793H70.7004C71.6032 31.793 72.3391 32.5289 72.3391 33.4317V44.9128C72.3391 45.8156 71.6032 46.5516 70.7004 46.5516Z" fill="black"/>
<path d="M70.7011 67.8751C68.9839 67.8751 67.3354 67.149 66.1677 65.8733C65.0098 64.6074 64.4308 62.8902 64.5878 61.1827L65.7752 48.1119C65.8144 45.433 68.0124 43.2742 70.6913 43.2742C73.3702 43.2742 75.5682 45.433 75.6075 48.1119L76.7948 61.1827C76.9518 62.9 76.3729 64.6074 75.215 65.8733C74.0571 67.1392 72.4085 67.8751 70.6815 67.8751H70.7011ZM70.7011 46.5517C69.7984 46.5517 69.0624 47.2876 69.0624 48.1904C69.0624 48.2395 69.0624 48.2886 69.0624 48.3376L67.8653 61.4771C67.7966 62.2818 68.0517 63.057 68.6012 63.6556C69.1507 64.2542 69.8965 64.5878 70.7109 64.5878C71.5254 64.5878 72.2712 64.2542 72.8207 63.6556C73.3702 63.057 73.6253 62.2818 73.5566 61.4771L72.3595 48.3376C72.3595 48.3376 72.3595 48.2395 72.3595 48.1904C72.3595 47.2876 71.6235 46.5517 70.7208 46.5517H70.7011Z" fill="black"/>
<path d="M36.7292 9.44887C35.8656 9.44887 35.1689 8.75216 35.1689 7.88862V1.65742C35.1689 0.793885 35.8656 0.097168 36.7292 0.097168C37.5927 0.097168 38.2894 0.793885 38.2894 1.65742V7.88862C38.2894 8.75216 37.5927 9.44887 36.7292 9.44887Z" fill="black"/>
<path d="M56.5709 17.6623C56.1686 17.6623 55.7761 17.5151 55.4719 17.2011C54.8635 16.5927 54.8635 15.6016 55.4719 14.9932L59.8778 10.5872C60.4862 9.97876 61.4773 9.97876 62.0857 10.5872C62.6941 11.1956 62.6941 12.1867 62.0857 12.7951L57.6798 17.2011C57.3756 17.5053 56.9733 17.6623 56.5808 17.6623H56.5709Z" fill="black"/>
<path d="M16.888 17.6623C16.4857 17.6623 16.0931 17.5151 15.789 17.2011L11.383 12.7951C10.7747 12.1867 10.7747 11.1956 11.383 10.5872C11.9914 9.97876 12.9825 9.97876 13.5909 10.5872L17.9968 14.9932C18.6052 15.6016 18.6052 16.5927 17.9968 17.2011C17.6926 17.5053 17.2903 17.6623 16.8978 17.6623H16.888Z" fill="black"/>
</g>
<defs>
<clipPath id="clip0_67_1454">
<rect width="76.6667" height="67.7778" fill="white" transform="translate(0.166992 0.097168)"/>
</clipPath>
</defs>
</svg>
