<svg xmlns="http://www.w3.org/2000/svg" xmlns:xlink="http://www.w3.org/1999/xlink" width="191.691" height="33.032" viewBox="0 0 191.691 33.032">
  <defs>
    <clipPath id="clip-path">
      <rect id="사각형_2" data-name="사각형 2" width="191.691" height="33.032" transform="translate(0 0)" fill="none"/>
    </clipPath>
  </defs>
  <g id="그룹_2" data-name="그룹 2" transform="translate(766 479)">
    <g id="그룹_1" data-name="그룹 1" transform="translate(-766 -479)" clip-path="url(#clip-path)">
      <path id="패스_1" data-name="패스 1" d="M77.02,28.591a4.144,4.144,0,0,1-.908,2.3,1.081,1.081,0,0,1-1.53-1.527.2.2,0,0,1,.03-.03s-.013.009-.022.018c.035-.052.069-.108.1-.164a.016.016,0,0,0,0-.013c.026-.06.043-.121.065-.186.035-.125.065-.255.091-.385.009-.052.018-.1.026-.156v-.022a.025.025,0,0,0,0-.017V28.4a8.088,8.088,0,0,0,.057-1.911c-.013-.043-.057-.29-.065-.324-.035-.138-.078-.272-.121-.411-.026-.056-.052-.112-.082-.169-.056-.112-.125-.212-.19-.32v0s-.009-.008-.009-.013c-.039-.043-.074-.087-.112-.13a2.271,2.271,0,0,0-.212-.2c-.026-.013-.181-.121-.212-.139a.787.787,0,0,0-.082-.043l0,0a.013.013,0,0,0-.008,0,.006.006,0,0,1-.009,0,.341.341,0,0,1-.06-.022,1.107,1.107,0,0,1-.757-1.327,1.094,1.094,0,0,1,1.332-.757,4.152,4.152,0,0,1,2.7,3.438,9.035,9.035,0,0,1-.021,2.534" transform="translate(-32.861 -10.165)" fill="#fff"/>
      <path id="패스_2" data-name="패스 2" d="M48.431,53.388l.4,0a7.883,7.883,0,0,0,2.7-4.259,7.3,7.3,0,0,1-3.1,4.264" transform="translate(-21.807 -22.119)" fill="#fff"/>
      <path id="패스_3" data-name="패스 3" d="M39.112,32.982a4.769,4.769,0,0,1-.6,1.847c-.052.1-.108.195-.164.29a6.908,6.908,0,0,1-5.5,3.429,15.781,15.781,0,0,1-3.027-.091.922.922,0,0,1-.895-.661,1.035,1.035,0,0,1-.026-.493c.091-.549.571-.83,1.241-.726a6.668,6.668,0,0,0,5.288-1.047,4.148,4.148,0,0,0,1.682-2.461.87.87,0,0,0-.2-.744,3.026,3.026,0,0,1-1.245-3.143,6.445,6.445,0,0,0-5.686-6.828c-.536-.086-1.081-.121-1.621-.16a.977.977,0,0,1-1.055-1.1c-.009-1.215,0-2.43,0-3.645v-.666a18.539,18.539,0,0,0-5.729,3.114A10.179,10.179,0,0,1,24.6,25.406a13.6,13.6,0,0,1,.272,1.825,1.018,1.018,0,0,0,.588.9c.9.471,1.79.96,2.685,1.444a3.138,3.138,0,0,1,1.678,3.6c-.026.134-.06.264-.091.389v0c-.03.117-.065.234-.1.35a7.814,7.814,0,0,1-2.6,3.909c-.13.108-.264.208-.4.3a8.335,8.335,0,0,1-4.329,1.44,11.172,11.172,0,0,1-3.9-.385,7.839,7.839,0,0,1-2.962-1.63,2.541,2.541,0,0,1-.346-.341.967.967,0,0,1,1.4-1.328c2.508,2.188,5.327,2.275,8.238,1.064a5.447,5.447,0,0,0,3.2-4.2,1.176,1.176,0,0,0-.688-1.445c-.934-.519-1.877-1.029-2.82-1.53a2.723,2.723,0,0,1-1.483-2.37,9.143,9.143,0,0,0-1.915-5.228,7.3,7.3,0,0,0-6.776-2.573c-5.76.554-9.262,4.043-11.442,9.115a10.659,10.659,0,0,0-.891,4.446,4.32,4.32,0,0,0,5.223,4.4,4.3,4.3,0,0,0,3.26-2.183,14.6,14.6,0,0,0,1.332-3.835,23.681,23.681,0,0,1,3.861-8.562,13.3,13.3,0,0,1,1.21-1.4.962.962,0,1,1,1.38,1.341,19.713,19.713,0,0,0-4.411,8.5,36.47,36.47,0,0,1-1.3,4.138A6.579,6.579,0,0,1,8.5,39.222a6.645,6.645,0,0,1-6.037-.891A6.043,6.043,0,0,1,0,33.133,15.386,15.386,0,0,1,3.351,23.72a14.429,14.429,0,0,1,8.687-5.773,13.131,13.131,0,0,1,4.9-.181,10.708,10.708,0,0,1,2.668.8.8.8,0,0,0,.649-.156c.16-.121.324-.242.489-.358.086-.069.178-.134.268-.195a22.139,22.139,0,0,1,1.9-1.232,19.93,19.93,0,0,1,2.171-1.1c.121-.052.246-.1.372-.151.143-.061.285-.117.433-.169s.294-.108.441-.156.3-.1.45-.147q.545-.168,1.1-.3c.83-.19,1.328.2,1.336,1.073.009,1.323.022,2.651-.008,3.974-.013.5.117.675.635.731a8.513,8.513,0,0,1,7.71,7.321,6.785,6.785,0,0,1,.048,1.025c0,.38-.022.765,0,1.141a.946.946,0,0,0,.246.644,2.734,2.734,0,0,1,1.258,2.465" transform="translate(0 -6.557)" fill="#fff"/>
      <path id="패스_4" data-name="패스 4" d="M37.245,40.323a1.334,1.334,0,0,1-1.358,1.336,1.349,1.349,0,1,1-.026-2.7,1.335,1.335,0,0,1,1.384,1.362" transform="translate(-15.542 -17.543)" fill="#fff"/>
      <path id="패스_5" data-name="패스 5" d="M59.967,41.11a1.3,1.3,0,0,1-1.28,1.336,1.306,1.306,0,0,1-.065-2.612,1.307,1.307,0,0,1,1.345,1.275" transform="translate(-25.824 -17.937)" fill="#fff"/>
      <path id="패스_6" data-name="패스 6" d="M37.245,40.323a1.334,1.334,0,0,1-1.358,1.336,1.349,1.349,0,1,1-.026-2.7,1.335,1.335,0,0,1,1.384,1.362" transform="translate(-15.542 -17.543)" fill="#fff"/>
      <path id="패스_7" data-name="패스 7" d="M59.967,41.11a1.3,1.3,0,0,1-1.28,1.336,1.306,1.306,0,0,1-.065-2.612,1.307,1.307,0,0,1,1.345,1.275" transform="translate(-25.824 -17.937)" fill="#fff"/>
      <path id="패스_8" data-name="패스 8" d="M39.512,18.321l-2.66,1.786c.16-.121.324-.242.489-.359.087-.069.178-.134.268-.195a22.273,22.273,0,0,1,1.9-1.232" transform="translate(-16.594 -8.249)" fill="#fff"/>
      <path id="패스_9" data-name="패스 9" d="M65.757,17.362a11.863,11.863,0,0,1-6.572,9.089,1.03,1.03,0,0,1-1.051-.021,1.228,1.228,0,0,1-.545-.726.935.935,0,0,1,.506-1.12c.074-.039.147-.078.221-.125a10.756,10.756,0,0,0,3.805-3.325,7.692,7.692,0,0,0,.5-8.306A5.865,5.865,0,0,0,54.83,10.7a1.091,1.091,0,0,1-1.626-.93A7.575,7.575,0,0,0,51.677,4.99,7.306,7.306,0,0,0,38.589,9.1a1.116,1.116,0,0,1-1.409,1.012A.933.933,0,0,1,36.427,9.1c.017-.32.047-.64.1-.952a9.868,9.868,0,0,1,2.244-4.907A9.505,9.505,0,0,1,49.442.675a9.624,9.624,0,0,1,5.833,7.52,8.031,8.031,0,0,1,5.115.117,8.753,8.753,0,0,1,5.366,9.051" transform="translate(-16.401 0)" fill="#fff"/>
      <path id="패스_10" data-name="패스 10" d="M77.02,28.591a4.144,4.144,0,0,1-.908,2.3,1.081,1.081,0,0,1-1.53-1.527.2.2,0,0,1,.03-.03s-.013.009-.022.018c.035-.052.069-.108.1-.164a.016.016,0,0,0,0-.013c.026-.06.043-.121.065-.186.035-.125.065-.255.091-.385.009-.052.018-.1.026-.156v-.022a.025.025,0,0,0,0-.017V28.4a8.088,8.088,0,0,0,.057-1.911c-.013-.043-.057-.29-.065-.324-.035-.138-.078-.272-.121-.411-.026-.056-.052-.112-.082-.169-.056-.112-.125-.212-.19-.32v0s-.009-.008-.009-.013c-.039-.043-.074-.087-.112-.13a2.271,2.271,0,0,0-.212-.2c-.026-.013-.181-.121-.212-.139a.787.787,0,0,0-.082-.043l0,0a.013.013,0,0,0-.008,0,.006.006,0,0,1-.009,0,.341.341,0,0,1-.06-.022,1.107,1.107,0,0,1-.757-1.327,1.094,1.094,0,0,1,1.332-.757,4.152,4.152,0,0,1,2.7,3.438,9.035,9.035,0,0,1-.021,2.534" transform="translate(-32.861 -10.165)" fill="#fff"/>
      <path id="패스_11" data-name="패스 11" d="M99.042,26.834c-1.621,0-1.925-.683-1.925-1.646,0-.785.279-1.621,1.925-1.621h7.116V22.073h-5.14c-1.8,0-2-.734-2-1.8v-4.3c0-1.089.177-1.874,2-1.874h14.105c1.7,0,1.925.785,1.925,1.672,0,.734-.228,1.6-1.925,1.6h-12v1.393h12c1.621,0,1.925.836,1.925,1.646,0,.886-.228,1.671-1.925,1.671H110.26v1.494h7.192c1.646,0,1.925.836,1.925,1.621,0,.963-.3,1.646-1.925,1.646Zm3.672,9.041c-3.165-.076-4.33-1.671-4.33-3.976,0-2.33.962-3.9,4.381-3.976H113.6c3.393,0,4.381,1.672,4.381,3.976s-1.165,3.874-4.33,3.976Zm9.8-3.064c.987,0,1.393-.2,1.393-.911s-.406-.911-1.393-.911h-8.661c-.987,0-1.392.2-1.392.911s.405.911,1.392.911Z" transform="translate(-43.73 -6.347)" fill="#fff"/>
      <path id="패스_12" data-name="패스 12" d="M143.63,36.077c-1.95,0-2.051-.811-2.051-1.748V30.962c0-.684.228-1.342,1.925-1.342H156.14v-.911H143.276c-1.418,0-1.773-.532-1.773-1.368,0-.683.355-1.342,1.773-1.342h5.6V24.732h-7.42c-1.191,0-1.672-.43-1.672-1.342,0-.734.481-1.317,1.672-1.317h18.917c1.19,0,1.671.583,1.671,1.317,0,.912-.481,1.342-1.671,1.342h-7.395V26h5.369c1.57,0,1.9.659,1.9,1.393v3.57c0,.81-.3,1.317-1.925,1.317H145.681v1.064H158.5c1.925,0,2.3.557,2.3,1.368,0,.988-.456,1.368-2.3,1.368Zm-.152-15.068c-1.773,0-1.925-.937-1.925-1.9V16.3c0-1.7.962-2.2,2.051-2.2h14.612c1.064,0,2.052.456,2.052,2.2V19.11c0,.962-.152,1.9-1.925,1.9Zm12.687-4.1H145.656V18.2h10.509Z" transform="translate(-62.94 -6.347)" fill="#fff"/>
      <path id="패스_13" data-name="패스 13" d="M184.749,35.266c-1.849,0-2.3-.836-2.3-1.722,0-1.038.456-1.773,2.3-1.773h6.762v-4.71h-5.267c-1.849,0-2.051-.76-2.051-1.773V16.3c0-1.7.911-2.2,2-2.2a1.94,1.94,0,0,1,2.127,2.2v1.545h10.433V16.3a1.94,1.94,0,0,1,2.128-2.2c1.088,0,2,.532,2,2.2v8.99c0,1.013-.2,1.773-2.051,1.773h-5.217v4.71h6.736c1.849,0,2.3.734,2.3,1.773,0,.886-.456,1.722-2.3,1.722Zm14-14.08H188.32v2.532h10.433Z" transform="translate(-82.151 -6.347)" fill="#fff"/>
      <path id="패스_14" data-name="패스 14" d="M229.49,35c-1.849,0-2.3-.836-2.3-1.722,0-1.038.456-1.773,2.3-1.773h6.761V29.78h-1.444c-3.57-.025-5.369-1.292-5.369-3.52V25.5c0-2.659,2.026-3.723,5.47-3.723h6.736c3.444,0,5.47,1.064,5.47,3.723v.76c0,2.127-1.773,3.495-5.343,3.52h-1.418V31.5h6.736c1.849,0,2.3.734,2.3,1.773,0,.886-.456,1.722-2.3,1.722ZM230.7,20.689c-1.949,0-2.3-.785-2.3-1.6,0-1.013.38-1.646,2.3-1.646H245.8c1.924,0,2.3.633,2.3,1.646,0,.81-.355,1.6-2.3,1.6Zm2.356-4.3a1.274,1.274,0,0,1-1.418-1.418c0-.81.228-1.469,1.418-1.469h9.876c1.19,0,1.419.659,1.419,1.469a1.275,1.275,0,0,1-1.419,1.418Zm7.825,10.484a5.677,5.677,0,0,0,1.621-.228.747.747,0,0,0,.507-.759v-.127a.792.792,0,0,0-.507-.81,5.532,5.532,0,0,0-1.7-.177h-5.065a5.247,5.247,0,0,0-1.671.177.781.781,0,0,0-.532.81v.127a.739.739,0,0,0,.532.759,5.336,5.336,0,0,0,1.6.228Z" transform="translate(-102.296 -6.077)" fill="#fff"/>
      <path id="패스_15" data-name="패스 15" d="M269.295,25.233c-.684-1.089-.329-1.823.76-2.608,2.457-1.722,2.684-2.988,2.684-5.343V15.965a2.1,2.1,0,1,1,4.2,0v1.241c0,2.431.076,3.393,2.356,5.242,1.013.836,1.444,1.519.759,2.608a1.84,1.84,0,0,1-1.519.886,1.866,1.866,0,0,1-1.165-.329,11.917,11.917,0,0,1-2.406-2.38,7.921,7.921,0,0,1-2.507,2.355,3.16,3.16,0,0,1-1.519.481,1.722,1.722,0,0,1-1.646-.836m3.7,10.408c-1.849,0-2.051-.76-2.051-1.773V29.64c0-1.7.962-2.2,2.051-2.2,1.064,0,2.051.456,2.051,2.2v2.507h13.32c1.849,0,2.3.836,2.3,1.722,0,1.038-.456,1.773-2.3,1.773Zm8.813-9.37V20.928h-1.19c-1.823,0-2.2-.76-2.2-1.8,0-.81.279-1.747,2.2-1.747h1.19V15.838c0-1.7.683-2.2,1.773-2.2,1.038,0,1.772.506,1.772,2.2V26.271c0,1.747-.659,2.229-1.747,2.229s-1.8-.482-1.8-2.229m5.09.025V15.838c0-1.7.684-2.2,1.773-2.2,1.038,0,1.772.506,1.772,2.2V26.3c0,1.748-.658,2.229-1.747,2.229s-1.8-.481-1.8-2.229" transform="translate(-121.1 -6.139)" fill="#fff"/>
      <path id="패스_16" data-name="패스 16" d="M314.639,34.73c-1.848,0-2.051-.76-2.051-1.773V15.838c0-1.038.2-1.95,2.051-1.95h5.5c1.848,0,2.3.734,2.3,1.773,0,.886-.456,1.722-2.3,1.722h-3.444v5.191h3.318c1.848,0,2.3.734,2.3,1.773,0,.886-.456,1.722-2.3,1.722h-3.318v5.166h3.95c1.849,0,2.3.836,2.3,1.722,0,1.038-.456,1.773-2.3,1.773Zm13.7-1.6V26.018h-2.431c-1.849,0-2.2-.734-2.2-1.772,0-.912.38-1.722,2.2-1.722h2.431V15.838c0-1.7.963-2.2,2.051-2.2,1.064,0,2.052.456,2.052,2.2v17.3c0,1.747-.962,2.229-2.052,2.229-1.139,0-2.051-.532-2.051-2.229" transform="translate(-140.752 -6.139)" fill="#fff"/>
    </g>
  </g>
</svg>
