<svg width="10" height="10" viewBox="0 0 10 10" fill="none" xmlns="http://www.w3.org/2000/svg">
<path d="M4.54248 5.64136H1.04248C0.912857 5.64136 0.804197 5.59832 0.716503 5.51224C0.628808 5.42615 0.584961 5.31812 0.584961 5.18813C0.584961 5.05813 0.628808 4.94867 0.716503 4.85974C0.804197 4.77079 0.912857 4.72632 1.04248 4.72632H4.54248V1.22632C4.54248 1.09669 4.58608 0.988035 4.67327 0.900341C4.76045 0.812647 4.86849 0.768799 4.99738 0.768799C5.12627 0.768799 5.23518 0.812647 5.32411 0.900341C5.41305 0.988035 5.45752 1.09669 5.45752 1.22632V4.72632H8.95752C9.08715 4.72632 9.19581 4.76995 9.2835 4.85719C9.3712 4.94446 9.41504 5.05258 9.41504 5.18157C9.41504 5.31289 9.3712 5.42235 9.2835 5.50994C9.19581 5.59756 9.08715 5.64136 8.95752 5.64136H5.45752V9.14136C5.45752 9.27333 5.41393 9.38258 5.32673 9.46909C5.23955 9.55562 5.13152 9.59888 5.00263 9.59888C4.87374 9.59888 4.76483 9.55562 4.6759 9.46909C4.58695 9.38258 4.54248 9.27333 4.54248 9.14136V5.64136Z" fill="white"/>
</svg>
