<svg width="26" height="26" viewBox="0 0 26 26" fill="none" xmlns="http://www.w3.org/2000/svg">
<path d="M12.9913 26C11.1989 26 9.5141 25.6626 7.93674 24.9877C6.35938 24.3128 4.97969 23.3844 3.79767 22.2023C2.61563 21.0203 1.68718 19.6406 1.01232 18.0633C0.337441 16.4859 0 14.8011 0 13.0087C0 11.1973 0.337441 9.50629 1.01232 7.93579C1.68718 6.3653 2.61563 4.98805 3.79767 3.80406C4.97969 2.62008 6.35938 1.69007 7.93674 1.01404C9.5141 0.338013 11.1989 0 12.9913 0C14.8027 0 16.4937 0.338099 18.0642 1.0143C19.6347 1.69049 21.0119 2.62076 22.1959 3.80509C23.3799 4.98939 24.3099 6.367 24.986 7.93791C25.662 9.50882 26 11.1962 26 13C26 14.7981 25.662 16.4859 24.986 18.0633C24.3099 19.6406 23.3799 21.0203 22.1959 22.2023C21.0119 23.3844 19.6347 24.3128 18.0642 24.9877C16.4937 25.6626 14.8027 26 12.9913 26ZM13 24.2693C13.5412 23.7331 14.0452 22.8604 14.5122 21.6511C14.9791 20.4418 15.3386 19.1029 15.5905 17.6344H10.4166C10.6778 19.1451 11.0396 20.5027 11.5019 21.7073C11.9641 22.9119 12.4635 23.7659 13 24.2693ZM10.8226 24.0572C10.3403 23.2949 9.90597 22.3574 9.51966 21.2448C9.13332 20.1322 8.83976 18.9287 8.63897 17.6344H2.74353C3.51523 19.3539 4.61355 20.7693 6.03851 21.8805C7.46346 22.9917 9.05816 23.7173 10.8226 24.0572ZM15.1774 24.0572C16.9372 23.7219 18.5307 22.9975 19.958 21.884C21.3853 20.7704 22.4871 19.3539 23.2635 17.6344H17.368C17.1158 18.9381 16.7964 20.1462 16.4101 21.2588C16.0238 22.3714 15.6129 23.3042 15.1774 24.0572ZM2.16899 15.8827H8.46533C8.3979 15.3563 8.35577 14.8433 8.33892 14.3437C8.32204 13.8441 8.31361 13.3718 8.31361 12.927C8.31361 12.4821 8.32204 12.022 8.33892 11.5467C8.35577 11.0714 8.3979 10.595 8.46533 10.1173H2.16899C2.01632 10.6015 1.90861 11.0851 1.84586 11.5682C1.78311 12.0512 1.75173 12.5285 1.75173 13C1.75173 13.4715 1.78311 13.9488 1.84586 14.4318C1.90861 14.9149 2.01632 15.3985 2.16899 15.8827ZM10.2718 15.8827H15.7352C15.8054 15.332 15.8501 14.8257 15.8693 14.3637C15.8885 13.9017 15.8981 13.4472 15.8981 13C15.8981 12.5528 15.8885 12.0922 15.8693 11.618C15.8501 11.1439 15.8054 10.6437 15.7352 10.1173H10.2718C10.1969 10.6437 10.1499 11.1439 10.1307 11.618C10.1115 12.0922 10.1019 12.5528 10.1019 13C10.1019 13.4472 10.1115 13.9078 10.1307 14.382C10.1499 14.8561 10.1969 15.3563 10.2718 15.8827ZM17.5347 15.8827H23.8381C23.986 15.3985 24.0914 14.9149 24.1541 14.4318C24.2169 13.9488 24.2483 13.4715 24.2483 13C24.2483 12.5285 24.2169 12.0451 24.1541 11.5499C24.0914 11.0547 23.986 10.5772 23.8381 10.1173H17.5347C17.6021 10.6437 17.6442 11.1567 17.6611 11.6563C17.678 12.1559 17.6864 12.6282 17.6864 13.0731C17.6864 13.5179 17.678 13.978 17.6611 14.4533C17.6442 14.9286 17.6021 15.405 17.5347 15.8827ZM17.368 8.36558H23.2635C22.4824 6.63204 21.3899 5.21669 19.9861 4.11953C18.5822 3.02237 16.9793 2.2921 15.1774 1.92873C15.6597 2.7379 16.0905 3.69177 16.4698 4.79035C16.8491 5.88892 17.1485 7.08066 17.368 8.36558ZM10.4166 8.36558H15.5905C15.3245 6.86899 14.9534 5.50551 14.4771 4.27516C14.0008 3.04478 13.5084 2.19662 13 1.73066C12.4916 2.19662 11.9992 3.04478 11.5229 4.27516C11.0466 5.50551 10.6778 6.86899 10.4166 8.36558ZM2.74353 8.36558H8.63897C8.85381 7.08066 9.15088 5.88892 9.53018 4.79035C9.90947 3.69177 10.3403 2.7379 10.8226 1.92873C9.01601 2.29678 7.41195 3.02938 6.01042 4.12654C4.60889 5.2237 3.51992 6.63671 2.74353 8.36558Z" fill="white"/>
</svg>
