<svg width="26" height="24" viewBox="0 0 26 24" fill="none" xmlns="http://www.w3.org/2000/svg">
<path d="M13 11.488C11.3233 11.488 9.90726 10.9332 8.75186 9.82362C7.59647 8.71406 7.01877 7.35418 7.01877 5.74399C7.01877 4.13379 7.59647 2.77391 8.75186 1.66435C9.90726 0.554784 11.3233 0 13 0C14.6767 0 16.0927 0.554784 17.2481 1.66435C18.4035 2.77391 18.9812 4.13379 18.9812 5.74399C18.9812 7.35418 18.4035 8.71406 17.2481 9.82362C16.0927 10.9332 14.6767 11.488 13 11.488ZM0 21.6667V20.7378C0 20.1765 0.171253 19.6408 0.51376 19.1307C0.856266 18.6206 1.34942 18.1729 1.99321 17.7875C3.70887 16.853 5.50119 16.1321 7.37019 15.6248C9.23921 15.1174 11.1125 14.8638 12.9899 14.8638C14.8674 14.8638 16.7448 15.1173 18.622 15.6243C20.4992 16.1314 22.2949 16.8523 24.0091 17.7869C24.6522 18.1404 25.1448 18.5802 25.4869 19.1064C25.829 19.6325 26 20.1763 26 20.7377V21.6667C26 22.316 25.7639 22.8673 25.2917 23.3204C24.8195 23.7735 24.2451 24 23.5684 24H2.41553C1.73883 24 1.16706 23.7735 0.700237 23.3204C0.233412 22.8673 0 22.316 0 21.6667ZM2.39129 21.7036H23.6087V20.7427C23.6087 20.533 23.5329 20.3381 23.3812 20.1581C23.2295 19.978 23.0151 19.8228 22.738 19.6925C21.2943 18.8576 19.7473 18.2268 18.097 17.8002C16.4467 17.3735 14.7473 17.1602 12.9988 17.1602C11.2386 17.1602 9.53626 17.3735 7.89177 17.8002C6.24732 18.2268 4.70724 18.8576 3.27153 19.6925C2.98643 19.8754 2.76844 20.0493 2.61756 20.2142C2.46672 20.3791 2.39129 20.5545 2.39129 20.7404V21.7036ZM13.0106 9.19152C14.0007 9.19152 14.8448 8.85296 15.5429 8.17584C16.2409 7.49869 16.5899 6.68469 16.5899 5.73383C16.5899 4.78295 16.2374 3.97233 15.5323 3.30198C14.8272 2.63162 13.9796 2.29645 12.9894 2.29645C11.9993 2.29645 11.1552 2.63501 10.4571 3.31213C9.75909 3.98928 9.41007 4.80328 9.41007 5.75414C9.41007 6.70502 9.76261 7.51564 10.4677 8.18599C11.1728 8.85635 12.0204 9.19152 13.0106 9.19152Z" fill="#1D1D1D"/>
</svg>
