<svg width="25" height="25" viewBox="0 0 25 25" fill="none" xmlns="http://www.w3.org/2000/svg">
<path d="M12.5 11.9666C10.8878 11.9666 9.52621 11.3887 8.41525 10.2329C7.3043 9.07714 6.74882 7.6606 6.74882 5.98332C6.74882 4.30603 7.3043 2.88949 8.41525 1.7337C9.52621 0.5779 10.8878 0 12.5 0C14.1122 0 15.4738 0.5779 16.5847 1.7337C17.6957 2.88949 18.2512 4.30603 18.2512 5.98332C18.2512 7.6606 17.6957 9.07714 16.5847 10.2329C15.4738 11.3887 14.1122 11.9666 12.5 11.9666ZM0 22.5695V21.6019C0 21.0172 0.164667 20.4592 0.494 19.9278C0.823333 19.3965 1.29752 18.9301 1.91655 18.5286C3.56622 17.5552 5.28961 16.8042 7.08672 16.2758C8.88386 15.7473 10.6851 15.4831 12.4903 15.4831C14.2956 15.4831 16.1008 15.7472 17.9058 16.2754C19.7108 16.8036 21.4374 17.5544 23.0857 18.528C23.704 18.8962 24.1777 19.3544 24.5066 19.9025C24.8355 20.4505 25 21.017 25 21.6017V22.5695C25 23.2459 24.773 23.8201 24.3189 24.292C23.8649 24.764 23.3126 25 22.6619 25H2.32262C1.67195 25 1.12217 24.764 0.673305 24.292C0.224435 23.8201 0 23.2459 0 22.5695ZM2.29932 22.6079H22.7007V21.607C22.7007 21.3886 22.6278 21.1856 22.4819 20.998C22.336 20.8104 22.1299 20.6488 21.8635 20.513C20.4753 19.6433 18.9878 18.9863 17.401 18.5418C15.8142 18.0974 14.1801 17.8752 12.4988 17.8752C10.8063 17.8752 9.16948 18.0974 7.58824 18.5418C6.00704 18.9863 4.52619 19.6433 3.1457 20.513C2.87156 20.7035 2.66196 20.8847 2.51689 21.0565C2.37184 21.2283 2.29932 21.411 2.29932 21.6046V22.6079ZM12.5102 9.5745C13.4622 9.5745 14.2739 9.22184 14.9451 8.5165C15.6163 7.81113 15.9519 6.96321 15.9519 5.97274C15.9519 4.98224 15.6129 4.13785 14.9349 3.43956C14.2569 2.74127 13.4419 2.39213 12.4898 2.39213C11.5378 2.39213 10.7261 2.7448 10.0549 3.45013C9.38374 4.1555 9.04814 5.00342 9.04814 5.99389C9.04814 6.98439 9.38713 7.82879 10.0651 8.52707C10.7431 9.22536 11.5581 9.5745 12.5102 9.5745Z" fill="white"/>
</svg>
