<svg width="150" height="50" viewBox="0 0 150 50" fill="none" xmlns="http://www.w3.org/2000/svg">
<path d="M43.879 38.0194C42.854 37.6515 42.6598 37.4062 42.6598 36.9841C42.6598 36.562 42.9547 36.2265 43.656 36.2265C44.1703 36.2265 44.5119 36.3961 44.886 36.7063L45.2528 36.2554C44.8212 35.9091 44.3825 35.707 43.692 35.707C42.7354 35.707 42.088 36.1977 42.088 37.0202C42.088 37.7633 42.462 38.1241 43.5697 38.5209C44.5084 38.86 44.7925 39.1306 44.7925 39.6067C44.7925 40.1515 44.3681 40.4906 43.6884 40.4906C43.1597 40.4906 42.7138 40.2453 42.3254 39.8737L41.9478 40.2994C42.3505 40.7106 42.9727 41.0137 43.6704 41.0137C44.7385 41.0137 45.3679 40.386 45.3679 39.5815C45.3679 38.777 45.019 38.4343 43.8826 38.023L43.879 38.0194Z" fill="#004289"/>
<path d="M47.6913 36.995C47.1914 36.995 46.7383 37.1177 46.4002 37.3016L46.6088 37.749C46.9217 37.565 47.2526 37.4532 47.6554 37.4532C48.2164 37.4532 48.4897 37.7309 48.4897 38.3081V38.7627C48.2632 38.6364 47.9143 38.539 47.5295 38.539C46.7707 38.539 46.0586 38.907 46.0586 39.7728C46.0586 40.7035 46.688 41.0066 47.2849 41.0066C47.8388 41.0066 48.2164 40.7468 48.4897 40.4546V40.9272H49.0364V38.236C49.0364 37.3413 48.5185 36.9878 47.6913 36.9878V36.995ZM48.4897 39.9856C48.256 40.3067 47.8819 40.5628 47.3856 40.5628C46.9145 40.5628 46.598 40.3139 46.598 39.7403C46.598 39.2569 46.9361 38.9827 47.5007 38.9827C47.9683 38.9827 48.238 39.0693 48.4897 39.2064V39.9892V39.9856Z" fill="#004289"/>
<path d="M54.553 38.6724V40.9307H55.0996V38.5822C55.0996 37.4566 54.6105 36.9949 53.8265 36.9949C53.2007 36.9949 52.8878 37.2871 52.6613 37.655C52.4779 37.2871 52.1506 36.9949 51.6075 36.9949C51.1544 36.9949 50.8307 37.2149 50.6329 37.5468V37.0778H50.0791V40.9343H50.6329V38.676C50.6329 37.821 50.9602 37.4711 51.4889 37.4711C52.0175 37.4711 52.316 37.7921 52.316 38.676V40.9343H52.8663V38.676C52.8663 37.821 53.2007 37.4711 53.7222 37.4711C54.276 37.4711 54.5494 37.7921 54.5494 38.676L54.553 38.6724Z" fill="#004289"/>
<path d="M57.3045 38.6869C56.6535 38.391 56.4593 38.2648 56.4593 37.9365C56.4593 37.6551 56.6895 37.4603 57.0959 37.4603C57.5023 37.4603 57.754 37.5685 58.0525 37.8066L58.3582 37.399C58.0669 37.1573 57.6569 36.9913 57.1318 36.9913C56.4305 36.9913 55.9307 37.3882 55.9307 37.9726C55.9307 38.5895 56.2507 38.8239 57.0239 39.1558C57.7037 39.448 57.9302 39.6248 57.9302 39.9423C57.9302 40.3175 57.6821 40.5375 57.1534 40.5375C56.7722 40.5375 56.4126 40.3824 56.1069 40.1118L55.7832 40.5123C56.15 40.8081 56.6104 41.0065 57.139 41.0065C57.8044 41.0065 58.4553 40.6782 58.4553 39.917C58.4553 39.228 58.0309 39.0151 57.3009 38.6833L57.3045 38.6869Z" fill="#004289"/>
<path d="M61.6628 39.3289C61.6628 40.1731 61.242 40.5302 60.7134 40.5302C60.0948 40.5302 59.8035 40.1586 59.8035 39.3289V37.0742H59.2568V39.4227C59.2568 40.5302 59.7927 41.01 60.6019 41.01C61.0874 41.01 61.4434 40.7827 61.6628 40.4581V40.9306H62.213V37.0742H61.6628V39.3289Z" fill="#004289"/>
<path d="M66.0975 40.9307V38.5822C66.0975 37.4711 65.5616 36.9949 64.7489 36.9949C64.2669 36.9949 63.9073 37.2221 63.6915 37.5468V37.0778H63.1377V40.9343H63.6915V38.676C63.6915 37.8318 64.1051 37.4711 64.6374 37.4711C65.2523 37.4711 65.5472 37.8462 65.5472 38.676V40.9343H66.0975V40.9307Z" fill="#004289"/>
<path d="M67.8276 41.9264L68.0038 42.3449C69.4316 42.3016 69.9494 41.7424 69.9494 40.5808V37.0707H69.3992V37.5036C69.1295 37.1934 68.7986 36.9913 68.3167 36.9913C67.5111 36.9913 66.8638 37.6948 66.8638 39.062C66.8638 40.4293 67.4751 41.0065 68.2412 41.0065C68.7626 41.0065 69.1295 40.7467 69.3992 40.4545V40.6529C69.3992 41.5512 69.1079 41.8903 67.824 41.9228L67.8276 41.9264ZM68.3814 40.5303C67.7736 40.5303 67.4068 40.0252 67.4068 39.0548C67.4068 38.0195 67.7197 37.4675 68.3599 37.4675C68.8166 37.4675 69.187 37.7237 69.3992 38.0447V39.9747C69.1295 40.3138 68.7914 40.5303 68.3814 40.5303Z" fill="#004289"/>
<path d="M76.0118 38.3225C76.0118 36.5584 75.0192 35.7864 73.6742 35.7864H72.3184V40.9307H73.5735C74.9437 40.9307 76.0118 40.1875 76.0118 38.3225ZM72.8902 36.3059H73.631C74.8106 36.3059 75.44 37.0274 75.44 38.3405C75.44 39.8196 74.7495 40.4076 73.6454 40.4076H72.8902V36.3059Z" fill="#004289"/>
<path d="M77.4755 37.5505V37.0743H76.9253V40.9307H77.4755V38.6652C77.4755 37.9293 77.7776 37.5 78.3135 37.5C78.5688 37.5 78.7343 37.5577 78.8889 37.6479L79.0256 37.0923C78.8961 37.0346 78.7127 36.9985 78.425 36.9985C78.0114 36.9985 77.6482 37.2475 77.4755 37.5541V37.5505Z" fill="#004289"/>
<path d="M82.3124 40.5627L82.0535 40.1659C81.701 40.4004 81.4385 40.5339 80.989 40.5339C80.3632 40.5339 79.9712 40.0108 79.9208 39.1919H82.4814C82.4994 39.1017 82.5066 39.0223 82.5066 38.8925C82.5066 37.7922 81.96 36.9985 80.9566 36.9985C80.0431 36.9985 79.3706 37.7597 79.3706 38.9827C79.3706 40.5014 80.2265 41.0137 80.9314 41.0137C81.5104 41.0137 81.8485 40.8586 82.3124 40.5664V40.5627ZM80.9566 37.4711C81.6291 37.4711 81.9528 37.9942 81.9959 38.741H79.9208C79.9856 37.8788 80.3848 37.4711 80.9566 37.4711Z" fill="#004289"/>
<path d="M84.3416 41.0101C84.8919 41.0101 85.2695 40.7504 85.5392 40.4581V40.9307H86.0895V38.2395C86.0895 37.3449 85.5716 36.9913 84.7444 36.9913C84.2445 36.9913 83.7914 37.114 83.4533 37.298L83.6583 37.7453C83.9748 37.5613 84.3021 37.4495 84.7049 37.4495C85.2695 37.4495 85.5392 37.7273 85.5392 38.3045V38.759C85.3127 38.6327 84.9674 38.5353 84.5826 38.5353C83.8202 38.5353 83.1045 38.9033 83.1045 39.7691C83.1045 40.6998 83.7374 41.0029 84.338 41.0029L84.3416 41.0101ZM84.5538 38.9791C85.0213 38.9791 85.2947 39.0656 85.5428 39.2027V39.9856C85.3091 40.3066 84.935 40.5628 84.4387 40.5628C83.9712 40.5628 83.6511 40.3138 83.6511 39.7403C83.6511 39.2568 83.9928 38.9827 84.5538 38.9827V38.9791Z" fill="#004289"/>
<path d="M91.606 38.6724V40.9307H92.1562V38.5822C92.1562 37.4566 91.6671 36.9949 90.8831 36.9949C90.2609 36.9949 89.9444 37.2871 89.7215 37.655C89.5381 37.2871 89.2108 36.9949 88.6677 36.9949C88.211 36.9949 87.8909 37.2149 87.6931 37.5468V37.0778H87.1465V40.9343H87.6931V38.676C87.6931 37.821 88.024 37.4711 88.5527 37.4711C89.0813 37.4711 89.3834 37.7921 89.3834 38.676V40.9343H89.9301V38.676C89.9301 37.821 90.2645 37.4711 90.7896 37.4711C91.3434 37.4711 91.6167 37.7921 91.6167 38.676L91.606 38.6724Z" fill="#004289"/>
<path d="M43.879 45.6707C42.8504 45.3028 42.6634 45.0611 42.6634 44.6354C42.6634 44.2097 42.9583 43.8814 43.6596 43.8814C44.1739 43.8814 44.5191 44.0474 44.8896 44.3576L45.2564 43.9103C44.8248 43.5676 44.3825 43.3619 43.6956 43.3619C42.7354 43.3619 42.0916 43.8453 42.0916 44.6751C42.0916 45.4182 42.4656 45.7754 43.5733 46.1722C44.512 46.5149 44.7961 46.7818 44.7961 47.2616C44.7961 47.8028 44.3717 48.1419 43.6884 48.1419C43.1597 48.1419 42.7138 47.8966 42.3254 47.525L41.9478 47.9507C42.3505 48.3619 42.9727 48.6614 43.6704 48.6614C44.7385 48.6614 45.3643 48.0373 45.3643 47.2292C45.3643 46.4211 45.0154 46.082 43.8826 45.6707H43.879Z" fill="#004289"/>
<path d="M47.6976 45.1226C48.086 45.1226 48.3414 45.2597 48.6183 45.5122L48.9492 45.101C48.6471 44.834 48.2479 44.6428 47.7336 44.6428C46.928 44.6428 46.0757 45.2453 46.0757 46.6702C46.0757 48.0158 46.8489 48.658 47.694 48.658C48.2335 48.658 48.6075 48.4523 48.9312 48.1205L48.6003 47.7705C48.3378 48.0267 48.0896 48.1782 47.7156 48.1782C47.0359 48.1782 46.6295 47.5685 46.6295 46.6197C46.6295 45.671 47.0934 45.1154 47.694 45.1154L47.6976 45.1226Z" fill="#004289"/>
<path d="M51.2977 44.6463C50.8158 44.6463 50.4525 44.8736 50.2332 45.1983V43.3873H49.6865V48.5893H50.2332V46.331C50.2332 45.4869 50.6539 45.1261 51.1862 45.1261C51.8048 45.1261 52.0961 45.4977 52.0961 46.331V48.5893H52.6463V46.2336C52.6463 45.1261 52.1105 44.6463 51.2977 44.6463Z" fill="#004289"/>
<path d="M55.0994 44.6465C54.1644 44.6465 53.4199 45.3499 53.4199 46.6595C53.4199 47.969 54.1356 48.6652 55.0706 48.6652C56.0057 48.6652 56.7573 47.9401 56.7573 46.6306C56.7573 45.3211 56.0345 44.6465 55.0994 44.6465ZM55.0886 48.1854C54.4197 48.1854 53.9702 47.6587 53.9702 46.645C53.9702 45.6313 54.4197 45.1263 55.0886 45.1263C55.7575 45.1263 56.2071 45.6313 56.2071 46.645C56.2071 47.6587 55.754 48.1854 55.0886 48.1854Z" fill="#004289"/>
<path d="M58.1352 43.3838H57.585V48.5858H58.1352V43.3838Z" fill="#004289"/>
<path d="M60.6487 44.6465C60.1488 44.6465 59.6956 44.7727 59.3612 44.9567L59.5662 45.4077C59.8827 45.2237 60.2135 45.1119 60.6163 45.1119C61.1773 45.1119 61.4507 45.3932 61.4507 45.9632V46.4214C61.2241 46.2951 60.8788 46.1977 60.494 46.1977C59.7316 46.1977 59.0195 46.5657 59.0195 47.4351C59.0195 48.3658 59.6489 48.6652 60.2495 48.6652C60.7997 48.6652 61.1773 48.4091 61.4507 48.1169V48.5895H62.0009V45.9019C62.0009 45 61.4794 44.6501 60.6523 44.6501L60.6487 44.6465ZM61.4471 47.6371C61.2169 47.9546 60.8357 48.2143 60.343 48.2143C59.8755 48.2143 59.559 47.9654 59.559 47.3918C59.559 46.9048 59.897 46.6378 60.4617 46.6378C60.9292 46.6378 61.1989 46.7172 61.4471 46.8579V47.6371Z" fill="#004289"/>
<path d="M63.5942 45.2057V44.7223H63.0439V48.5823H63.5942V46.3168C63.5942 45.5844 63.8891 45.1479 64.4285 45.1479C64.6875 45.1479 64.8529 45.2057 65.0075 45.2958L65.1478 44.7367C65.0147 44.679 64.8349 44.6393 64.5472 44.6393C64.1372 44.6393 63.7668 44.8882 63.5978 45.2021L63.5942 45.2057Z" fill="#004289"/>
<path d="M67.2553 46.342C66.6044 46.0462 66.4066 45.9127 66.4066 45.5917C66.4066 45.3139 66.6403 45.1155 67.0431 45.1155C67.4459 45.1155 67.7049 45.2273 68.0034 45.4618L68.309 45.0577C68.0141 44.816 67.6078 44.6465 67.0791 44.6465C66.3814 44.6465 65.8743 45.0433 65.8743 45.6313C65.8743 46.2194 66.198 46.4827 66.9676 46.811C67.6473 47.1032 67.8739 47.2836 67.8739 47.5974C67.8739 47.9762 67.6257 48.1927 67.1007 48.1927C66.7159 48.1927 66.3598 48.0375 66.0505 47.767L65.7305 48.171C66.0973 48.4668 66.5576 48.6616 67.0863 48.6616C67.7516 48.6616 68.4026 48.3297 68.4026 47.5758C68.4026 46.8831 67.9782 46.6739 67.2517 46.342H67.2553Z" fill="#004289"/>
<path d="M70.9126 44.6463C70.4235 44.6463 70.0675 44.8736 69.8481 45.1983V43.3873H69.2979V48.5893H69.8481V46.331C69.8481 45.4869 70.2653 45.1261 70.8011 45.1261C71.4161 45.1261 71.7074 45.4977 71.7074 46.331V48.5893H72.2576V46.2336C72.2576 45.1261 71.7254 44.6463 70.9126 44.6463Z" fill="#004289"/>
<path d="M73.8904 44.7222H73.3438V48.5822H73.8904V44.7222Z" fill="#004289"/>
<path d="M73.6287 43.2502C73.4057 43.2502 73.2295 43.427 73.2295 43.6507C73.2295 43.8743 73.4057 44.0403 73.6287 44.0403C73.8337 44.0403 74.0099 43.8599 74.0099 43.6507C74.0099 43.427 73.8337 43.2502 73.6287 43.2502Z" fill="#004289"/>
<path d="M76.7063 44.6465C76.1884 44.6465 75.8216 44.9062 75.5483 45.1984V44.7258H74.998V50.0036H75.5483V48.153C75.818 48.4596 76.1489 48.6652 76.6344 48.6652C77.4364 48.6652 78.0837 47.9582 78.0837 46.5945C78.0837 45.2309 77.4723 44.6465 76.7063 44.6465ZM76.5876 48.1854C76.1345 48.1854 75.7605 47.9293 75.5483 47.6046V45.6782C75.818 45.3427 76.1561 45.1227 76.5661 45.1227C77.1774 45.1227 77.5443 45.6277 77.5443 46.5981C77.5443 47.6335 77.2278 48.1818 76.5912 48.1818L76.5876 48.1854Z" fill="#004289"/>
<path d="M80.9937 43.9608H83.432V43.4413H80.4219V48.5856H80.9937V46.1866H82.3999V45.6671H80.9937V43.9608Z" fill="#004289"/>
<path d="M85.1006 44.6465C84.1655 44.6465 83.4175 45.3499 83.4175 46.6595C83.4175 47.969 84.1368 48.6652 85.0718 48.6652C86.0069 48.6652 86.7585 47.9401 86.7585 46.6306C86.7585 45.3211 86.0428 44.6465 85.1006 44.6465ZM85.0862 48.1854C84.4173 48.1854 83.9749 47.6587 83.9749 46.645C83.9749 45.6313 84.4209 45.1263 85.0862 45.1263C85.7515 45.1263 86.2082 45.6313 86.2082 46.645C86.2082 47.6587 85.7551 48.1854 85.0862 48.1854Z" fill="#004289"/>
<path d="M89.7893 46.9805C89.7893 47.8246 89.3757 48.1854 88.8398 48.1854C88.2248 48.1854 87.9299 47.8138 87.9299 46.9805V44.7222H87.3833V47.0743C87.3833 48.1818 87.9192 48.6616 88.7319 48.6616C89.2102 48.6616 89.5699 48.4379 89.7893 48.1132V48.5858H90.3431V44.7258H89.7893V46.9841V46.9805Z" fill="#004289"/>
<path d="M92.8753 44.6464C92.3934 44.6464 92.0338 44.8737 91.8144 45.1984V44.7258H91.2642V48.5858H91.8144V46.3275C91.8144 45.4834 92.2316 45.1226 92.7674 45.1226C93.3824 45.1226 93.6737 45.4942 93.6737 46.3275V48.5858H94.224V46.2301C94.224 45.1226 93.6881 44.6428 92.8753 44.6428V44.6464Z" fill="#004289"/>
<path d="M97.5286 45.1623C97.2553 44.852 96.928 44.6428 96.4425 44.6428C95.6369 44.6428 94.9932 45.3463 94.9932 46.7171C94.9932 48.088 95.6009 48.6616 96.3706 48.6616C96.892 48.6616 97.2553 48.4054 97.525 48.1132V48.5858H98.0752V43.3838H97.525V45.1623H97.5286ZM97.5286 47.6262C97.2553 47.9617 96.9208 48.1818 96.5108 48.1818C95.903 48.1818 95.5362 47.6767 95.5362 46.7063C95.5362 45.6673 95.8491 45.119 96.4892 45.119C96.9424 45.119 97.3128 45.3751 97.5286 45.6998V47.6226V47.6262Z" fill="#004289"/>
<path d="M100.406 44.6465C99.9101 44.6465 99.4569 44.7727 99.1189 44.9567L99.3203 45.4077C99.6367 45.2237 99.9676 45.1119 100.37 45.1119C100.931 45.1119 101.201 45.3932 101.201 45.9632V46.4214C100.975 46.2951 100.629 46.1977 100.241 46.1977C99.4821 46.1977 98.77 46.5657 98.77 47.4351C98.77 48.3658 99.403 48.6652 100.004 48.6652C100.554 48.6652 100.931 48.4091 101.201 48.1169V48.5895H101.751V45.9019C101.751 45 101.234 44.6501 100.403 44.6501L100.406 44.6465ZM101.201 47.6371C100.967 47.9546 100.597 48.2143 100.093 48.2143C99.6295 48.2143 99.3167 47.9654 99.3167 47.3918C99.3167 46.9048 99.6511 46.6378 100.216 46.6378C100.683 46.6378 100.957 46.7172 101.201 46.8579V47.6371Z" fill="#004289"/>
<path d="M103.506 43.3838H102.952V44.7222H102.478V45.1875H102.952V47.7886C102.952 48.4271 103.211 48.658 103.69 48.658C103.977 48.658 104.182 48.6147 104.394 48.5281L104.434 48.0519C104.258 48.124 104.114 48.1601 103.891 48.1601C103.6 48.1601 103.506 48.0411 103.506 47.6984V45.1875H104.459V44.7222H103.506V43.3838Z" fill="#004289"/>
<path d="M105.708 43.2502C105.481 43.2502 105.301 43.427 105.301 43.6507C105.301 43.8743 105.481 44.0403 105.708 44.0403C105.913 44.0403 106.085 43.8599 106.085 43.6507C106.085 43.427 105.909 43.2502 105.708 43.2502Z" fill="#004289"/>
<path d="M105.97 44.7222H105.419V48.5822H105.97V44.7222Z" fill="#004289"/>
<path d="M108.48 44.6465C107.545 44.6465 106.797 45.3499 106.797 46.6595C106.797 47.969 107.513 48.6652 108.452 48.6652C109.39 48.6652 110.135 47.9401 110.135 46.6306C110.135 45.3211 109.416 44.6465 108.48 44.6465ZM108.466 48.1854C107.801 48.1854 107.351 47.6587 107.351 46.645C107.351 45.6313 107.801 45.1263 108.466 45.1263C109.131 45.1263 109.588 45.6313 109.588 46.645C109.588 47.6587 109.135 48.1854 108.466 48.1854Z" fill="#004289"/>
<path d="M112.541 44.6464C112.059 44.6464 111.699 44.8737 111.477 45.1984V44.7258H110.926V48.5858H111.477V46.3275C111.477 45.4834 111.894 45.1226 112.43 45.1226C113.045 45.1226 113.339 45.4942 113.339 46.3275V48.5858H113.886V46.2301C113.886 45.1226 113.35 44.6428 112.541 44.6428V44.6464Z" fill="#004289"/>
<path d="M63.1051 25.6602C60.8969 25.6638 59.0771 27.3954 59.0771 29.5671C59.0771 31.7388 60.8969 33.4524 63.1051 33.4596C65.3348 33.4524 67.1366 31.7172 67.1366 29.5671C67.1366 27.417 65.3348 25.6638 63.1051 25.6602ZM63.0511 31.6775C61.8967 31.6775 61.0264 30.7323 61.0264 29.5671C61.0264 28.4019 61.9578 27.4387 63.1086 27.4387C64.2595 27.4387 65.1586 28.3838 65.1586 29.5671C65.1586 30.7503 64.2163 31.6775 63.0547 31.6775H63.0511Z" fill="#004289"/>
<path d="M44.6229 22.9727C45.2379 23.5823 45.9428 24.1162 46.6369 24.459L46.7088 24.4986L47.8992 23.0881L47.7841 23.0232C46.6549 22.4099 45.7702 21.6343 45.1912 20.6566C44.6157 19.6934 44.3208 18.5751 44.3208 17.2367V15.9813H42.1918V17.1033C42.1918 18.5535 41.8645 19.6934 41.2496 20.6927C40.5627 21.8002 39.5449 22.6913 38.243 23.5174L38.1279 23.5895L39.419 24.9315L39.4909 24.8919C40.2606 24.4734 41.0769 23.8276 41.7854 23.1061C42.4004 22.4748 42.9327 21.8002 43.2563 21.1617C43.5692 21.7894 44.0475 22.4279 44.6229 22.9763V22.9727Z" fill="#004289"/>
<path d="M42.3184 32.536H51.2301V26.4285H42.3184V32.536ZM44.3215 28.1529H49.2269V30.8116H44.3215V28.1529Z" fill="#004289"/>
<path d="M72.0308 32.536H82.1077V26.4285H72.0308V32.536ZM74.0124 28.1529H80.1297V30.8116H74.0124V28.1529Z" fill="#004289"/>
<path d="M51.2653 15.6206H49.2837V25.7288H51.2653V21.2555H53.5849V19.459H51.2653V15.6206Z" fill="#004289"/>
<path d="M92.3499 23.4884C93.0009 24.0547 93.7453 24.5309 94.4466 24.8376L94.5185 24.87L95.5902 23.4162L95.4751 23.3585C94.4538 22.8354 93.5439 22.186 92.8894 21.3924C92.224 20.5843 91.8284 19.6103 91.8284 18.4379V18.0951H94.7774V16.3563H86.772V18.0951H89.7174V18.5136C89.7174 19.5814 89.3649 20.5771 88.7787 21.4393C88.0918 22.4746 87.0885 23.308 86.1138 23.8491L85.9844 23.9176L87.3006 25.2849L87.3726 25.2488C88.081 24.8448 88.8651 24.2351 89.534 23.5497C90.0698 22.9869 90.5517 22.3917 90.8466 21.7964C91.2027 22.3736 91.7493 22.9508 92.3535 23.4884H92.3499Z" fill="#004289"/>
<path d="M106.682 28.1925H113.885V32.5324H115.885V26.4681H106.682V28.1925Z" fill="#004289"/>
<path d="M111.652 21.2411C111.652 20.2851 111.224 19.4049 110.591 18.7339H112.569V17.0131H108.793V15.1191H106.646V17.0131H102.78V18.7339H104.801C104.182 19.4049 103.754 20.2779 103.754 21.2411C103.754 23.3731 105.506 25.1047 107.696 25.1119C109.886 25.1047 111.648 23.3731 111.652 21.2411ZM105.664 21.1617C105.664 19.9821 106.657 18.9828 107.696 18.9828C108.735 18.9828 109.724 19.9857 109.728 21.1617C109.728 22.3233 108.735 23.3262 107.696 23.3298C106.653 23.3262 105.668 22.3233 105.664 21.1617Z" fill="#004289"/>
<path d="M115.885 15.6206H113.907V25.7649H115.885V21.8941H118.212V20.0975H115.885V15.6206Z" fill="#004289"/>
<path d="M99.101 15.6206H97.123V25.7649H99.101V21.2555H101.424V19.459H99.101V15.6206Z" fill="#004289"/>
<path d="M65.5261 18.6293H62.4116V20.4078H65.5261V26.086H67.5076V15.6206H65.5261V18.6293Z" fill="#004289"/>
<path d="M60.4939 23.236C61.1125 23.8421 61.8354 24.376 62.5259 24.7367L62.6014 24.78L63.7918 23.3695L63.6767 23.3046C62.5474 22.7093 61.6807 21.9373 61.0981 20.9741C60.5083 20.0181 60.2134 18.8565 60.2134 17.5181V15.9813H58.0808V17.3882C58.0808 18.8385 57.7571 19.9748 57.1565 20.9561C56.4732 22.0816 55.4339 22.9799 54.132 23.7988L54.0205 23.8709L55.3188 25.2165L55.3835 25.1732C56.1495 24.7512 56.9479 24.1415 57.6564 23.4452C58.2966 22.8067 58.8288 22.1105 59.1525 21.4431C59.4582 22.0527 59.9257 22.6732 60.4939 23.2396V23.236Z" fill="#004289"/>
<path d="M94.8538 25.6602C92.6456 25.6638 90.8259 27.3954 90.8223 29.5671C90.8259 31.7172 92.642 33.4524 94.8538 33.4596C97.0799 33.4524 98.8853 31.7172 98.8853 29.5671C98.8853 27.417 97.0799 25.6638 94.8538 25.6602ZM94.7962 31.6775C93.6454 31.6775 92.7679 30.7323 92.7679 29.5671C92.7679 28.4019 93.6957 27.4387 94.8538 27.4387C96.0118 27.4387 96.9001 28.3838 96.9037 29.5671C96.9037 30.7287 95.9578 31.6775 94.7962 31.6775Z" fill="#004289"/>
<path d="M74.4443 21.4177H76.4259V16.2554H71.0781V17.9725H74.4443V21.4177Z" fill="#004289"/>
<path d="M80.3933 21.4177H82.3785V16.2554H77.0308V17.9725H80.3933V21.4177Z" fill="#004289"/>
<path d="M130.903 20.1913H129.238V15.902H127.364V32.0997H129.238V22.1394H130.903V32.5326H132.845V15.6206H130.903V20.1913Z" fill="#004289"/>
<path d="M124.616 22.4314C124.17 21.4537 123.987 20.3607 123.987 19.0187V18.3801H126.235V16.5583H119.704V18.3801H122.023V19.0547C122.023 20.3246 121.858 21.3635 121.459 22.3267C120.995 23.4343 120.214 24.4299 118.97 25.4977L118.884 25.5771L120.114 26.8L120.189 26.7423C120.808 26.2842 121.455 25.6204 121.995 24.935C122.451 24.3578 122.836 23.7589 123.077 23.2322C123.325 23.7445 123.714 24.3325 124.167 24.8809C124.692 25.523 125.285 26.1327 125.854 26.497L125.929 26.5475L126.965 25.3065L126.882 25.2308C125.767 24.2568 125.077 23.3874 124.624 22.4278L124.616 22.4314Z" fill="#004289"/>
<path d="M69.4209 23.8202H75.9986V25.7466H78.1456V23.8202H84.8276V22.0922H69.4209V23.8202Z" fill="#004289"/>
<path d="M144.127 23.2683H137.431V18.1565H142.53V16.3563H135.424V25.0143H144.127V23.2683Z" fill="#004289"/>
<path d="M140.34 27.1428H138.337V32.5324H147.705V30.7575H140.34V27.1428Z" fill="#004289"/>
<path d="M147.659 20.303V15.6168H145.681V28.0952H147.659V22.0995H150V20.303H147.659Z" fill="#004289"/>
<path d="M42.0087 10.4004L36.8767 8.26833L42.0087 6.13629L41.0953 3.93211L35.9669 6.06414L38.0923 0.916238L35.8914 0.00354004L33.7695 5.15145L31.6441 0.00354004L29.4431 0.916238L31.5685 6.06414L26.4401 3.93211L25.5303 6.13629L30.6587 8.26833L25.5303 10.4004L26.4401 12.6045L31.5685 10.4725L29.4431 15.6204L31.6441 16.5331L33.7695 11.3888L35.8914 16.5331L38.0923 15.6168L35.9669 10.4725L41.0953 12.6045L42.0087 10.4004Z" fill="#009FE3"/>
<path d="M8.8036 24.762H12.2165V15.6206H0.546387V18.7014H8.8036V24.762Z" fill="#009FE3"/>
<path d="M22.1176 24.762H25.5305V15.6206H13.8604V18.7014H22.1176V24.762Z" fill="#009FE3"/>
<path d="M0 29.4912H22.1175V34.199H25.5305V26.4104H0V29.4912Z" fill="#009FE3"/>
<path d="M8.25732 48.5859H25.5306V35.7828H8.25732V48.5859ZM11.6703 38.8636H22.1212V45.5051H11.6703V38.8636Z" fill="#009FE3"/>
</svg>
