<svg width="16" height="11" viewBox="0 0 16 11" fill="none" xmlns="http://www.w3.org/2000/svg">
<path d="M0.625509 11C0.453448 11 0.306181 10.9342 0.183709 10.8025C0.0612363 10.6708 0 10.5125 0 10.3276C0 10.1463 0.0612363 9.98797 0.183709 9.85259C0.306181 9.71722 0.453448 9.64954 0.625509 9.64954H15.3795C15.5482 9.64954 15.6938 9.71537 15.8163 9.84704C15.9388 9.97873 16 10.1352 16 10.3165C16 10.5014 15.9388 10.6616 15.8163 10.797C15.6938 10.9323 15.5482 11 15.3795 11H0.625509ZM0.625509 6.17523C0.453448 6.17523 0.306181 6.1094 0.183709 5.97773C0.0612363 5.84606 0 5.68777 0 5.50284C0 5.32154 0.0612363 5.1632 0.183709 5.02782C0.306181 4.89245 0.453448 4.82477 0.625509 4.82477H15.3795C15.5482 4.82477 15.6938 4.8906 15.8163 5.02227C15.9388 5.15396 16 5.31045 16 5.49175C16 5.67667 15.9388 5.83682 15.8163 5.97218C15.6938 6.10755 15.5482 6.17523 15.3795 6.17523H0.625509ZM0.625509 1.35046C0.453448 1.35046 0.306181 1.28463 0.183709 1.15296C0.0612363 1.02129 0 0.862997 0 0.678074C0 0.496774 0.0612363 0.33844 0.183709 0.203075C0.306181 0.0676913 0.453448 0 0.625509 0H15.3795C15.5482 0 15.6938 0.0658329 15.8163 0.1975C15.9388 0.329186 16 0.485678 16 0.666978C16 0.851902 15.9388 1.01205 15.8163 1.14741C15.6938 1.28278 15.5482 1.35046 15.3795 1.35046H0.625509Z" fill="white"/>
</svg>
