<svg width="13" height="13" viewBox="0 0 13 13" fill="#1d1d1d" xmlns="http://www.w3.org/2000/svg">
<path d="M6.47206 7.57267L1.2829 12.7618C1.11347 12.9313 0.942465 13.0103 0.769877 12.9989C0.597309 12.9875 0.424343 12.8952 0.25098 12.7218C0.083898 12.5484 0.00192781 12.3739 0.00506875 12.1982C0.00820968 12.0225 0.0933212 11.8511 0.260403 11.684L5.40954 6.51016L0.229809 1.30571C0.0705596 1.14648 -0.00592428 0.97704 0.000357593 0.797395C0.00663947 0.61777 0.0933212 0.441276 0.260403 0.267912C0.427484 0.0945486 0.60045 0.00531745 0.7793 0.000218525C0.95815 -0.0048804 1.13621 0.0792519 1.31349 0.252615L6.47206 5.44765L11.6671 0.252615C11.8326 0.0871042 12.0067 0.00493044 12.1895 0.00609299C12.3723 0.00727595 12.5523 0.0945486 12.7296 0.267912C12.8928 0.441276 12.9728 0.615813 12.9696 0.791522C12.9665 0.967231 12.8814 1.13862 12.7143 1.30571L7.53457 6.51016L12.7143 11.7146C12.8736 11.8738 12.9551 12.0382 12.9591 12.2076C12.963 12.3771 12.8814 12.5484 12.7143 12.7218C12.5472 12.8952 12.3743 12.9844 12.1954 12.9895C12.0166 12.9946 11.8404 12.9085 11.6671 12.7312L6.47206 7.57267Z"/>
</svg>
