<svg width="11" height="6" viewBox="0 0 11 6" fill="none" xmlns="http://www.w3.org/2000/svg">
<path d="M5.42342 -5.27296e-07C5.52898 -5.18068e-07 5.62656 0.0208725 5.71614 0.0626187C5.8057 0.104382 5.88539 0.161794 5.95521 0.234854L10.6161 4.89573C10.7599 5.03625 10.8292 5.18252 10.8239 5.33455C10.8187 5.48655 10.7424 5.63628 10.5949 5.78372C10.4508 5.92791 10.3043 6 10.1555 6C10.0068 6 9.85953 5.92875 9.71377 5.78624L5.42088 1.46302L1.09765 5.78624C0.961677 5.92221 0.817677 5.9876 0.665654 5.98239C0.513647 5.97717 0.363922 5.90246 0.216479 5.75827C0.0722927 5.61083 0.000199567 5.46274 0.00019958 5.31399C0.000199593 5.16524 0.0737263 5.01781 0.220779 4.87171L4.88165 0.234854C4.96152 0.161794 5.04538 0.104382 5.13325 0.0626187C5.22114 0.0208725 5.31786 -5.36525e-07 5.42342 -5.27296e-07Z" fill="#666666"/>
</svg>
