<svg width="11" height="6" viewBox="0 0 11 6" fill="none" xmlns="http://www.w3.org/2000/svg">
<path d="M5.4008 6C5.29524 6 5.19766 5.97913 5.10808 5.93738C5.01852 5.89562 4.93882 5.83821 4.869 5.76515L0.208156 1.10427C0.0643599 0.96375 -0.00493466 0.817477 0.00027301 0.665454C0.00549764 0.513448 0.0818316 0.363723 0.229275 0.216279C0.373461 0.0720932 0.519929 0 0.668679 0C0.817428 0 0.964685 0.0712535 1.11045 0.21376L5.40334 4.53698L9.72657 0.21376C9.86254 0.0777843 10.0065 0.0124004 10.1586 0.0176081C10.3106 0.0228328 10.4603 0.0975378 10.6077 0.241724C10.7519 0.389167 10.824 0.537264 10.824 0.686013C10.824 0.834762 10.7505 0.982189 10.6034 1.12829L5.94256 5.76515C5.8627 5.83821 5.77884 5.89562 5.69097 5.93738C5.60308 5.97913 5.50636 6 5.4008 6Z" fill="#666666"/>
</svg>
