<svg width="9" height="9" viewBox="0 0 9 9" fill="none" xmlns="http://www.w3.org/2000/svg">
<path d="M3.95752 5.01123H0.457521C0.327896 5.01123 0.219236 4.96819 0.131542 4.88211C0.0438471 4.79603 0 4.68799 0 4.55801C0 4.42801 0.0438471 4.31854 0.131542 4.22961C0.219236 4.14067 0.327896 4.09619 0.457521 4.09619H3.95752V0.596193C3.95752 0.466568 4.00112 0.357909 4.08831 0.270214C4.17549 0.18252 4.28353 0.138672 4.41242 0.138672C4.54131 0.138672 4.65022 0.18252 4.73915 0.270214C4.82809 0.357909 4.87256 0.466568 4.87256 0.596193V4.09619H8.37256C8.50219 4.09619 8.61085 4.13982 8.69854 4.22707C8.78624 4.31433 8.83008 4.42246 8.83008 4.55144C8.83008 4.68276 8.78624 4.79222 8.69854 4.87982C8.61085 4.96743 8.50219 5.01123 8.37256 5.01123H4.87256V8.51123C4.87256 8.64321 4.82897 8.75245 4.74177 8.83896C4.65459 8.92549 4.54656 8.96876 4.41767 8.96876C4.28878 8.96876 4.17987 8.92549 4.09094 8.83896C4.00199 8.75245 3.95752 8.64321 3.95752 8.51123V5.01123Z" fill="#3D3D3D"/>
</svg>
