<svg width="99" height="91" viewBox="0 0 99 91" fill="none" xmlns="http://www.w3.org/2000/svg">
<path d="M48.4444 52.3193C61.9447 52.3193 72.8889 41.3752 72.8889 27.8749C72.8889 14.3746 61.9447 3.43042 48.4444 3.43042C34.9442 3.43042 24 14.3746 24 27.8749C24 41.3752 34.9442 52.3193 48.4444 52.3193Z" fill="#FE7C1C"/>
<path d="M24.5624 19.7005H56.6189C57.3868 19.7005 58.0357 19.0546 58.0357 18.3009C58.0357 17.5473 57.3759 16.9014 56.6189 16.9014H24.5624C23.7945 16.9014 23.1348 17.5473 23.1348 18.3009C23.1348 19.0546 23.7945 19.7005 24.5624 19.7005Z" fill="black"/>
<path d="M24.5624 25.191H56.6189C57.3868 25.191 58.0357 24.545 58.0357 23.7914C58.0357 23.0378 57.3759 22.3918 56.6189 22.3918H24.5624C23.7945 22.3918 23.1348 23.0378 23.1348 23.7914C23.1348 24.545 23.7945 25.191 24.5624 25.191Z" fill="black"/>
<path d="M24.5624 30.6817H56.6189C57.3868 30.6817 58.0357 30.0358 58.0357 29.2821C58.0357 28.5285 57.3759 27.8826 56.6189 27.8826H24.5624C23.7945 27.8826 23.1348 28.5285 23.1348 29.2821C23.1348 30.0358 23.7945 30.6817 24.5624 30.6817Z" fill="black"/>
<path d="M24.5624 36.1722H56.6189C57.3868 36.1722 58.0357 35.5262 58.0357 34.7726C58.0357 34.019 57.3759 33.373 56.6189 33.373H24.5624C23.7945 33.373 23.1348 34.019 23.1348 34.7726C23.1348 35.5262 23.7945 36.1722 24.5624 36.1722Z" fill="black"/>
<path d="M24.5624 41.6629H56.6189C57.3868 41.6629 58.0357 41.017 58.0357 40.2633C58.0357 39.5097 57.3759 38.8638 56.6189 38.8638H24.5624C23.7945 38.8638 23.1348 39.5097 23.1348 40.2633C23.1348 41.017 23.7945 41.6629 24.5624 41.6629Z" fill="black"/>
<path d="M24.5624 47.1534H56.6189C57.3868 47.1534 58.0357 46.5074 58.0357 45.7538C58.0357 45.0002 57.3759 44.3542 56.6189 44.3542H24.5624C23.7945 44.3542 23.1348 45.0002 23.1348 45.7538C23.1348 46.5074 23.7945 47.1534 24.5624 47.1534Z" fill="black"/>
<path d="M24.5624 52.6441H56.6189C57.3868 52.6441 58.0357 51.9982 58.0357 51.2445C58.0357 50.4909 57.3759 49.845 56.6189 49.845H24.5624C23.7945 49.845 23.1348 50.4909 23.1348 51.2445C23.1348 51.9982 23.7945 52.6441 24.5624 52.6441Z" fill="black"/>
<path d="M24.5624 58.1348H53.8826C54.6505 58.1348 55.3102 57.4889 55.3102 56.7353C55.3102 55.9816 54.6505 55.3357 53.8826 55.3357H24.5624C23.7945 55.3357 23.1348 55.9816 23.1348 56.7353C23.1348 57.4889 23.7945 58.1348 24.5624 58.1348Z" fill="black"/>
<path d="M24.5624 63.6253H51.0382C51.8061 63.6253 52.455 62.9794 52.455 62.2257C52.455 61.4721 51.7953 60.8262 51.0382 60.8262H24.5624C23.7945 60.8262 23.1348 61.4721 23.1348 62.2257C23.1348 62.9794 23.7945 63.6253 24.5624 63.6253Z" fill="black"/>
<path d="M24.5624 69.116H48.3019C49.0698 69.116 49.7295 68.4701 49.7295 67.7165C49.7295 66.9628 49.0698 66.3169 48.3019 66.3169H24.5624C23.7945 66.3169 23.1348 66.9628 23.1348 67.7165C23.1348 68.4701 23.7945 69.116 24.5624 69.116Z" fill="black"/>
<path d="M86.9229 46.1846L78.606 38.0025C78.0544 37.4642 77.1784 37.4642 76.6376 38.0025L63.616 50.7062V12.8102C63.616 12.0566 62.9563 11.4106 62.1992 11.4106H18.9813C18.2134 11.4106 17.5537 12.0566 17.5537 12.8102V78.6976C17.5537 79.4512 18.2134 80.0972 18.9813 80.0972H62.1992C62.9671 80.0972 63.616 79.4512 63.616 78.6976V69.7619C65.6925 69.0083 65.5844 69.0083 65.6925 68.9006C65.8007 68.9006 65.9088 68.793 65.9088 68.6853C66.017 68.5777 82.8672 51.9982 86.9121 48.0148C87.4637 47.5841 87.4637 46.7229 86.9121 46.1846H86.9229ZM60.7716 77.2981H20.29V14.2098H60.7716V53.3977C55.299 58.7807 55.5153 58.4577 55.5153 58.673C55.4072 58.7807 55.4072 58.8883 55.299 58.996L50.0428 71.8074H24.562C23.7941 71.8074 23.1344 72.4534 23.1344 73.207C23.1344 73.9606 23.7941 74.6066 24.562 74.6066C52.5736 74.6066 51.146 74.6066 51.4704 74.4989C51.5786 74.4989 51.0378 74.6066 60.8797 70.8385L60.7716 77.2981ZM53.547 70.7309L57.1593 61.9028L62.5236 67.1781L53.5578 70.7309H53.547ZM65.0328 65.7785L58.6842 59.5343L77.611 40.9093L83.9595 47.1535L65.0328 65.7785Z" fill="black"/>
</svg>
