<svg width="71" height="69" viewBox="0 0 71 69" fill="none" xmlns="http://www.w3.org/2000/svg">
<g clip-path="url(#clip0_67_1472)">
<path d="M30.9258 68.1073C47.9134 68.1073 61.6846 54.2599 61.6846 37.1783C61.6846 20.0967 47.9134 6.24927 30.9258 6.24927C13.9382 6.24927 0.166992 20.0967 0.166992 37.1783C0.166992 54.2599 13.9382 68.1073 30.9258 68.1073Z" fill="#749DF5"/>
<path d="M61.8161 11.0825C55.6866 4.27939 46.8002 0.319336 37.6009 0.319336C19.7272 0.319336 5.02441 14.738 5.02441 32.7105C5.02441 46.3168 13.5068 58.0954 25.8669 62.8678C38.4289 67.7417 52.8389 64.2894 61.8262 54.2369C72.9644 41.9506 72.9644 23.3689 61.8262 11.0825H61.8161ZM43.0235 60.4309C41.8017 61.3447 40.3677 61.954 38.8328 62.2586V49.4646C42.8216 49.5661 46.4973 49.9723 49.86 50.7846C48.426 54.3385 46.1842 58.197 43.0134 60.4309H43.0235ZM29.4416 55.0493C29.1387 54.2369 28.5227 53.6277 27.6038 53.3231C26.5838 53.0185 25.463 52.5108 24.645 51.8C23.7261 51.0892 23.6251 50.5815 23.6251 50.48C23.6251 50.48 24.029 49.6677 27.4018 49.2615C28.1188 49.16 30.3605 48.9569 30.9765 47.2307C31.5925 45.5045 29.9566 43.7783 28.6237 42.4583C28.4217 42.2552 28.3207 42.1537 28.1087 41.9506C27.5937 41.4429 27.4927 40.8337 27.7047 40.2245C28.0077 39.1075 29.0377 37.9906 30.1586 37.5844H30.4615C31.2795 37.686 32.7134 38.7014 33.7333 40.8337C34.9552 43.3722 35.8741 46.8245 36.1871 49.4646V62.2586C33.2284 62.157 30.3605 61.5478 27.6038 60.6339C28.7246 59.1108 30.0576 56.877 29.4416 55.0493ZM49.9609 14.5349C46.3862 15.3472 42.6095 15.7534 38.9237 15.8549V2.95937C44.2353 3.87323 47.911 9.55945 49.9609 14.5349ZM50.8799 48.2461C47.2042 47.4338 43.1144 46.9261 38.9237 46.8245V33.929H53.2226C53.1216 38.8029 52.3037 43.7783 50.8698 48.2461H50.8799ZM50.8799 16.9719C52.4148 21.5411 53.1317 26.5166 53.2327 31.289H38.9338V18.3934C42.9226 18.2919 46.9012 17.8857 50.89 16.9719H50.8799ZM55.7875 31.289C55.6866 26.3135 54.9696 21.135 53.3337 16.2611C55.7875 15.5503 58.3424 14.6364 60.5841 13.5195C64.7748 18.4949 67.2287 24.7904 67.5316 31.289H55.7875ZM46.2852 4.17785C50.9808 5.5994 55.1716 8.1379 58.7463 11.5902C56.7065 12.5041 54.6565 13.3164 52.5158 13.9257C51.0818 10.2702 49.143 6.81788 46.2852 4.17785ZM22.8879 6.71634C24.9278 7.6302 29.8354 10.2702 30.5524 12.4026C30.6534 12.8087 30.6534 13.2149 30.1485 13.621C28.7145 15.0426 26.5737 15.5503 24.6349 15.9565C22.6961 16.3626 20.9592 16.7688 20.2422 18.2919C19.6263 19.7134 20.5452 21.135 20.8582 21.6427C22.3931 24.2827 25.1499 25.9074 26.6848 27.2274C26.8868 27.4304 27.0888 27.6335 27.1998 27.8366C27.0989 27.9381 26.5838 28.3443 25.463 28.852C18.6164 31.6951 17.3946 31.289 16.4757 30.3751C14.6378 28.6489 12.3859 28.6489 11.6791 25.8058C11.1641 24.0796 10.8611 21.8458 10.6592 20.018C13.113 14.4334 17.5057 9.76253 22.9182 6.71634H22.8879ZM8.69002 24.9935C8.791 25.5012 8.99297 26.3135 9.09395 26.7197C10.2148 30.3751 13.1837 30.8828 14.6075 32.2028C15.6274 33.1167 16.7483 33.5228 18.0813 33.5228C19.9191 33.5228 22.3729 32.7105 25.6447 31.3905C25.8467 31.289 26.0486 31.1874 26.3617 31.0859C27.7956 30.4766 29.5325 29.5628 29.7345 28.0397C29.9364 26.6181 28.9165 25.6027 27.5937 24.5873C26.1597 23.3689 24.1199 22.0488 23.1 20.2211C22.6961 19.6119 22.6961 19.3073 22.6961 19.2057C22.999 18.9011 24.332 18.5965 25.2509 18.3934C27.3917 17.8857 30.1586 17.2765 32.0974 15.3472C33.4203 14.0272 33.6323 12.301 32.7134 10.5749C31.4915 8.34098 28.2197 6.41172 25.9679 5.19324C29.2396 3.77169 32.8144 2.95937 36.3891 2.85783V40.0214C36.3891 39.9198 36.2881 39.8183 36.2881 39.7168C34.6522 36.2644 31.7945 34.3351 29.4416 35.1475C25.7659 36.4675 23.7261 40.9352 26.2708 43.6768C26.7858 44.1845 28.3106 45.7076 28.5227 46.3168C28.3207 46.4184 28.0077 46.5199 27.0888 46.6215C25.6548 46.8245 21.2622 47.3322 21.0602 50.1753C20.8582 52.7138 24.433 54.9477 26.8868 55.6585H26.9878C27.0888 55.8616 26.9878 56.5724 26.2708 57.9939C25.9679 58.5016 25.6548 59.0093 25.3519 59.517C12.2748 53.9323 4.82245 39.3106 8.70012 24.9935H8.69002ZM47.2042 60.1262C49.557 57.5878 51.1929 54.5416 52.4148 51.3938C54.5556 52.0031 56.7065 52.8154 58.6453 53.7292C55.1716 57.1816 50.8799 59.7201 46.1842 61.1416C46.4872 60.9386 46.9012 60.5324 47.2042 60.1262ZM60.5841 51.6984C59.0492 50.8861 57.4133 50.1754 55.3735 49.5661C54.6565 49.363 53.8386 49.0584 53.3337 48.9569C54.8686 44.1845 55.6866 38.9044 55.7875 33.929H67.5316C67.2287 40.4275 64.7748 46.6215 60.5841 51.6984Z" fill="black"/>
</g>
<defs>
<clipPath id="clip0_67_1472">
<rect width="70" height="67.7778" fill="white" transform="translate(0.166992 0.319336)"/>
</clipPath>
</defs>
</svg>
