<svg width="77" height="76" viewBox="0 0 77 76" fill="none" xmlns="http://www.w3.org/2000/svg">
<g clip-path="url(#clip0_67_1465)">
<path d="M19.9883 55.1642C27.511 55.1642 33.6093 49.0428 33.6093 41.4915C33.6093 33.9403 27.511 27.8188 19.9883 27.8188C12.4655 27.8188 6.36719 33.9403 6.36719 41.4915C6.36719 49.0428 12.4655 55.1642 19.9883 55.1642Z" fill="#FE7C1C"/>
<path d="M58.7717 50.2635C68.4401 50.2635 76.2778 42.3961 76.2778 32.6911C76.2778 22.9861 68.4401 15.1187 58.7717 15.1187C49.1034 15.1187 41.2656 22.9861 41.2656 32.6911C41.2656 42.3961 49.1034 50.2635 58.7717 50.2635Z" fill="#FE7C1C"/>
<path d="M73.1646 71.764H56.1664V57.7891C66.5139 57.0432 74.6508 48.2711 74.6508 37.7522C74.6508 26.6195 65.6579 17.5925 54.5673 17.5925C43.4766 17.5925 34.606 26.6195 34.606 37.7522C34.606 48.2617 42.7335 57.0432 53.0904 57.7891V71.764H18.097V61.6228C26.1022 60.7541 32.2637 54.0782 32.2637 45.7972C32.2637 37.0157 25.1145 29.9716 16.4979 29.9716C7.88124 29.9716 0.722656 37.1384 0.722656 45.9199C0.722656 54.201 7.00641 61.009 15.0116 61.7455V71.8867H2.32182C1.45639 71.8867 0.722656 72.6327 0.722656 73.492C0.722656 74.3512 1.46579 75.0972 2.32182 75.0972H73.1646C74.03 75.0972 74.7637 74.3512 74.7637 73.492C74.6414 72.5005 73.8983 71.764 73.1646 71.764ZM37.682 37.7522C37.682 28.3569 45.3204 20.6897 54.6802 20.6897C64.0399 20.6897 71.556 28.3569 71.556 37.7522C71.556 46.6565 64.7831 53.9555 56.157 54.692V46.0333L60.4653 40.2167C60.9545 39.4707 60.8322 38.6115 60.0985 37.9883C59.3553 37.4973 58.4993 37.62 57.8785 38.3565L54.1816 43.1816L46.421 36.5058C45.8095 36.0148 44.8218 36.0148 44.201 36.7513C43.7118 37.3745 43.7118 38.3565 44.4455 38.9797L53.1939 46.2788V54.8148C44.4455 53.946 37.6726 46.6565 37.6726 37.7522H37.682ZM3.79869 45.9199C3.79869 38.8664 9.46159 33.182 16.4885 33.182C23.5154 33.182 29.1783 38.8664 29.1783 45.9199C29.1783 52.3503 24.3714 57.7891 18.0876 58.5351V52.473L23.2614 48.1484C23.8728 47.6574 24.0045 46.6659 23.506 45.9199C23.0168 45.3062 22.0291 45.174 21.286 45.6744L16.7237 49.6308L12.6599 44.5602C12.1708 43.937 11.183 43.8143 10.5622 44.3147C9.95074 44.8057 9.81905 45.7972 10.3176 46.5431L15.0022 52.4825V58.6673C8.71845 57.7986 3.78928 52.4825 3.78928 45.9294L3.79869 45.9199Z" fill="black"/>
<path d="M19.941 22.295H35.3399C39.1591 22.295 42.2445 19.2073 42.2445 15.3736C42.2445 11.54 39.1685 8.44287 35.3399 8.44287H34.5968C34.5968 4.24097 31.1445 0.652832 26.8362 0.652832C22.5278 0.652832 19.0755 3.99547 19.0755 8.44287C15.6232 8.81113 12.9141 11.7855 12.9141 15.3736C13.0364 19.2073 16.1124 22.295 19.941 22.295ZM19.941 11.54H20.9287C21.9164 11.54 22.6501 10.5485 22.4055 9.55708C21.6624 6.59215 23.8824 3.74052 26.8362 3.74052C29.7899 3.74052 32.0099 6.5827 31.2668 9.55708C31.0222 10.5485 31.7559 11.54 32.7436 11.54H35.2082C37.3059 11.54 39.0274 13.268 39.0274 15.3736C39.0274 17.4793 37.4282 19.2073 35.3305 19.2073H19.9315C17.8338 19.2073 16.1124 17.4793 16.1124 15.3736C16.1124 13.268 17.8338 11.54 19.9315 11.54H19.941Z" fill="black"/>
</g>
<defs>
<clipPath id="clip0_67_1465">
<rect width="75.5556" height="74.4444" fill="white" transform="translate(0.722656 0.652832)"/>
</clipPath>
</defs>
</svg>
