<svg width="63" height="77" viewBox="0 0 63 77" fill="none" xmlns="http://www.w3.org/2000/svg">
<g clip-path="url(#clip0_67_1431)">
<path d="M31.4998 76.4305C46.6708 76.4305 58.9693 64.2037 58.9693 49.1213C58.9693 34.0388 46.6708 21.812 31.4998 21.812C16.3288 21.812 4.03027 34.0388 4.03027 49.1213C4.03027 64.2037 16.3288 76.4305 31.4998 76.4305Z" fill="#749DF5"/>
<path d="M61.2121 33.5626H49.5103V17.5445C49.5103 16.8263 48.8887 16.2083 48.1662 16.2083H14.6232C13.9007 16.2083 13.2791 16.8263 13.2791 17.5445V33.6711H1.67806C0.955619 33.6711 0.333984 34.2891 0.333984 35.0074V71.0355C0.333984 71.7537 0.955619 72.3717 1.67806 72.3717H61.2121C61.9346 72.3717 62.5562 71.7537 62.5562 71.0355V35.0074C62.4554 34.1806 61.8338 33.5626 61.2121 33.5626ZM2.92133 36.1348H13.2791V69.5907H2.92133V36.1348ZM15.8664 18.7805H46.9314V69.5907H40.4126V53.3973C40.4126 48.4532 36.372 44.3359 31.2981 44.3359C26.2242 44.3359 22.1836 48.353 22.1836 53.3973V69.6993H15.8664V18.7805ZM24.9809 69.5907V53.3973C24.9809 49.898 27.8791 46.9165 31.4997 46.9165C35.1203 46.9165 38.0269 49.7978 38.0269 53.3973V69.6993H24.9809V69.5991V69.5907ZM59.8765 69.5907H49.5187V36.1348H59.8765V69.5907Z" fill="black"/>
<path d="M31.4997 21.8037C27.333 21.8037 23.9561 25.161 23.9561 29.295C23.9561 33.4289 27.333 36.7946 31.4997 36.7946C35.6663 36.7946 39.0433 33.4373 39.0433 29.295C39.0433 25.1526 35.6663 21.8037 31.4997 21.8037ZM31.4997 34.2474C28.7527 34.2474 26.5182 32.0342 26.5182 29.295C26.5182 26.5557 28.7527 24.3509 31.4997 24.3509C34.2466 24.3509 36.4811 26.564 36.4811 29.295C36.4811 32.0259 34.2466 34.2474 31.4997 34.2474Z" fill="black"/>
<path d="M39.6651 5.13424L42.1264 2.71232C42.4709 2.37826 42.5549 1.96069 42.3785 1.54312C42.2104 1.12554 41.782 0.875 41.362 0.875H31.5923C30.9958 0.875 30.4834 1.37609 30.4834 1.96069V16.726C30.4834 17.3106 30.9958 17.8117 31.5923 17.8117C32.1887 17.8117 32.6927 17.3106 32.6927 16.726V9.47699H41.362C41.7904 9.47699 42.2104 9.22645 42.3785 8.80888C42.5465 8.3913 42.4625 7.97373 42.1264 7.63967L39.6651 5.13424ZM37.2878 5.88587L38.6486 7.2221H32.6171V2.96286H38.6486L37.2878 4.29909C36.8594 4.80018 36.8594 5.4683 37.2878 5.88587Z" fill="black"/>
</g>
<defs>
<clipPath id="clip0_67_1431">
<rect width="62.2222" height="75.5556" fill="white" transform="translate(0.333984 0.875)"/>
</clipPath>
</defs>
</svg>
