<svg width="8" height="8" viewBox="0 0 8 8" fill="none" xmlns="http://www.w3.org/2000/svg">
<path d="M4.01953 4.41966H1.21953C1.11583 4.41966 1.0289 4.38514 0.958749 4.3161C0.888593 4.24706 0.853516 4.16042 0.853516 4.05618C0.853516 3.95192 0.888593 3.86413 0.958749 3.79281C1.0289 3.72148 1.11583 3.68581 1.21953 3.68581H4.01953V0.878885C4.01953 0.774929 4.05441 0.687786 4.12417 0.617457C4.19391 0.547128 4.28034 0.511963 4.38345 0.511963C4.48656 0.511963 4.57369 0.547128 4.64483 0.617457C4.71599 0.687786 4.75157 0.774929 4.75157 0.878885V3.68581H7.55157C7.65527 3.68581 7.74219 3.7208 7.81235 3.79077C7.8825 3.86076 7.91758 3.94747 7.91758 4.05091C7.91758 4.15623 7.8825 4.24401 7.81235 4.31426C7.74219 4.38453 7.65527 4.41966 7.55157 4.41966H4.75157V7.22658C4.75157 7.33242 4.71669 7.42003 4.64693 7.48942C4.57719 7.55881 4.49076 7.59351 4.38765 7.59351C4.28454 7.59351 4.19741 7.55881 4.12627 7.48942C4.05511 7.42003 4.01953 7.33242 4.01953 7.22658V4.41966Z" fill="white"/>
</svg>
