<svg width="9" height="9" viewBox="0 0 9 9" fill="none" xmlns="http://www.w3.org/2000/svg">
<path d="M3.95752 4.99268H0.457521C0.327896 4.99268 0.219236 4.94964 0.131542 4.86355C0.0438471 4.77747 0 4.66944 0 4.53945C0 4.40945 0.0438471 4.29998 0.131542 4.21105C0.219236 4.12211 0.327896 4.07764 0.457521 4.07764H3.95752V0.577638C3.95752 0.448013 4.00112 0.339354 4.08831 0.251659C4.17549 0.163965 4.28353 0.120117 4.41242 0.120117C4.54131 0.120117 4.65022 0.163965 4.73915 0.251659C4.82809 0.339354 4.87256 0.448013 4.87256 0.577638V4.07764H8.37256C8.50219 4.07764 8.61085 4.12126 8.69854 4.20851C8.78624 4.29578 8.83008 4.4039 8.83008 4.53289C8.83008 4.66421 8.78624 4.77367 8.69854 4.86126C8.61085 4.94887 8.50219 4.99268 8.37256 4.99268H4.87256V8.49268C4.87256 8.62465 4.82897 8.7339 4.74177 8.82041C4.65459 8.90694 4.54656 8.9502 4.41767 8.9502C4.28878 8.9502 4.17987 8.90694 4.09094 8.82041C4.00199 8.7339 3.95752 8.62465 3.95752 8.49268V4.99268Z" fill="#3D3D3D"/>
</svg>
