<svg width="8" height="8" viewBox="0 0 8 8" fill="none" xmlns="http://www.w3.org/2000/svg">
<path d="M4.01953 4.3021H1.21953C1.11583 4.3021 1.0289 4.26767 0.958749 4.1988C0.888593 4.12994 0.853516 4.04351 0.853516 3.93952C0.853516 3.83552 0.888593 3.74795 0.958749 3.6768C1.0289 3.60565 1.11583 3.57007 1.21953 3.57007H4.01953V0.770069C4.01953 0.666369 4.05441 0.579442 4.12417 0.509287C4.19391 0.439131 4.28034 0.404053 4.38345 0.404053C4.48656 0.404053 4.57369 0.439131 4.64483 0.509287C4.71599 0.579442 4.75157 0.666369 4.75157 0.770069V3.57007H7.55157C7.65527 3.57007 7.74219 3.60497 7.81235 3.67477C7.8825 3.74458 7.91758 3.83108 7.91758 3.93427C7.91758 4.03932 7.8825 4.12689 7.81235 4.19697C7.74219 4.26706 7.65527 4.3021 7.55157 4.3021H4.75157V7.1021C4.75157 7.20768 4.71669 7.29508 4.64693 7.36429C4.57719 7.43351 4.49076 7.46812 4.38765 7.46812C4.28454 7.46812 4.19741 7.43351 4.12627 7.36429C4.05511 7.29508 4.01953 7.20768 4.01953 7.1021V4.3021Z" fill="white"/>
</svg>
