<svg width="175" height="42" viewBox="0 0 175 42" fill="none" xmlns="http://www.w3.org/2000/svg">
<path d="M22.7555 39.9013C20.3895 41.229 16.9131 41.6915 13.4539 41.8971C6.06984 42.3339 1.60696 40.745 0.236065 38.2952C-1.13483 35.8497 3.69106 23.4296 8.86715 15.5492C14.0475 7.66879 17.9168 15.9089 17.9168 15.9089C17.9168 15.9089 18.6599 17.2923 19.7959 19.6136C19.5866 26.5303 19.6336 33.8839 19.7019 35.0103C19.7745 36.1752 20.5133 38.3124 22.7555 39.9013Z" fill="#35763C"/>
<path d="M22.7555 39.9012C20.5134 38.3123 19.7745 36.1752 19.7019 35.0103C19.6336 33.8839 19.5866 26.5303 19.7959 19.6178C21.1454 22.3845 23.0416 26.4874 24.8823 31.19C26.6845 35.7897 25.4332 38.398 22.7555 39.9012Z" fill="#245F2E"/>
<path d="M36.4344 28.085C36.2807 32.2822 37.532 35.4557 39.5734 37.6657C37.5106 40.8564 33.8336 42.1883 29.1102 41.8971C26.2317 41.7172 24.1861 40.9206 22.7554 39.9013C25.4331 38.398 26.6844 35.7898 24.8822 31.19C23.0415 26.4875 21.1453 22.3846 19.7958 19.6179C19.9495 14.804 20.2271 10.2171 20.714 8.08423C21.9055 2.89345 31.553 3.06905 31.553 3.06905C38.9926 2.89345 39.646 5.99849 40.3635 7.01352C40.782 7.60883 41.1194 12.7311 41.303 18.5514C38.7918 20.3631 36.6052 23.3097 36.4344 28.085Z" fill="#A4BC49"/>
<path d="M41.4357 30.4748C41.393 33.4856 40.7396 35.8711 39.5737 37.6656C37.5323 35.4557 36.281 32.2821 36.4347 28.085C36.6055 23.3096 38.7921 20.3631 41.3033 18.5514C41.4314 22.6201 41.4827 27.0314 41.4357 30.4748Z" fill="#458C38"/>
<path d="M56.9083 39.73C56.195 40.1497 55.3836 40.5137 54.4697 40.8049C49.2338 42.4795 43.1737 41.5587 39.5735 37.6656C40.7394 35.8711 41.3928 33.4856 41.4355 30.4748C41.4825 27.0314 41.4312 22.6201 41.3031 18.5514C44.8777 15.956 49.1142 15.6691 49.1142 15.6691H50.9592C53.8974 15.9988 56.336 17.2965 58.1638 19.0054C55.2726 26.8729 53.2184 35.1944 55.6057 38.7149C55.6057 38.7149 55.9303 39.1646 56.9083 39.73Z" fill="#68AC45"/>
<path d="M56.9081 39.73C55.9301 39.1647 55.6055 38.715 55.6055 38.715C53.2182 35.1945 55.2724 26.873 58.1637 19.0054C60.3417 21.0312 61.6528 23.6394 61.9134 25.8793C62.3362 29.5369 62.618 36.4065 56.9081 39.73Z" fill="#35763C"/>
<path d="M69.4727 41.9699C62.2125 42.017 58.591 40.7064 56.9083 39.73C62.6182 36.4065 62.3364 29.5368 61.9136 25.8793C61.6531 23.6394 60.342 21.0312 58.1639 19.0054C61.2644 10.5854 65.3173 2.68356 65.9024 1.75847C66.1757 1.32162 66.4533 1.02182 66.7139 0.807681C66.795 0.73059 68.247 -0.592802 70.9333 0.319439H70.9376C71.0572 0.357984 71.1767 0.400813 71.3006 0.452206C71.3006 0.452206 71.302 0.453634 71.3049 0.456489H71.3091C72.6288 1.13317 73.5213 3.6686 73.5213 3.6686C75.6054 8.67522 81.025 28.8602 81.798 33.5798C82.571 38.2952 80.9652 41.8971 69.4727 41.9699Z" fill="#648943"/>
<path d="M103.758 21.4038C102.592 21.074 101.226 20.907 99.6668 20.907C98.108 20.907 96.7072 21.074 95.537 21.4038C94.3668 21.7335 93.4743 22.2132 92.8465 22.8385C92.2187 23.4638 91.9112 24.2133 91.9197 25.0827C91.9112 25.9435 92.2187 26.6888 92.8465 27.3098C93.4743 27.9308 94.3668 28.4105 95.537 28.7445C96.7072 29.0786 98.0823 29.2456 99.6668 29.2456C101.251 29.2456 102.592 29.0786 103.758 28.7445C104.924 28.4105 105.825 27.9308 106.461 27.3098C107.098 26.6888 107.414 25.9435 107.414 25.0827C107.414 24.2219 107.098 23.4638 106.461 22.8385C105.825 22.2132 104.928 21.7335 103.758 21.4038ZM104.036 26.2091C103.643 26.5132 103.075 26.7444 102.336 26.9072C101.597 27.0699 100.705 27.147 99.6711 27.147C98.6375 27.147 97.7236 27.0656 96.9805 26.9072C96.2374 26.7487 95.6737 26.5174 95.285 26.2091C94.8964 25.9007 94.7042 25.5281 94.7042 25.087C94.7042 24.6459 94.8964 24.2647 95.285 23.952C95.6737 23.6394 96.2374 23.4038 96.9805 23.2411C97.7236 23.0783 98.6205 23.0013 99.6711 23.0013C100.722 23.0013 101.584 23.0826 102.332 23.2411C103.079 23.3996 103.647 23.6351 104.04 23.952C104.433 24.269 104.634 24.6459 104.642 25.087C104.634 25.5324 104.433 25.905 104.04 26.2091H104.036Z" fill="#101010"/>
<path d="M93.7092 15.0224C94.068 15.789 94.5335 16.4828 95.1057 17.1038C95.8702 17.9304 96.814 18.56 97.9415 18.984L99.4191 16.864C98.4582 16.4957 97.6511 15.9946 96.9977 15.365C96.3442 14.7354 95.8488 14.0288 95.52 13.245C95.1911 12.4613 95.0246 11.6475 95.0246 10.8038V8.00713H92.334V10.8038C92.3255 11.6818 92.1547 12.5512 91.8216 13.4078C91.4885 14.2643 90.976 15.0566 90.2841 15.7847C89.5923 16.5128 88.7509 17.0953 87.7559 17.5278L89.2677 19.6864C90.4037 19.2024 91.3646 18.4958 92.1589 17.5707C92.8166 16.804 93.3249 15.9518 93.7092 15.0181V15.0224Z" fill="#101010"/>
<path d="M102.396 14.6198H104.646V20.5429H107.299V6.62804H104.646V12.3499H102.396V7.04347H99.8035V19.8277H102.396V14.6198Z" fill="#101010"/>
<path d="M121.699 16.8297H126.265V19.9433H129.041V6.60234H126.265V10.0543H121.699V8.29834H111.091V18.5728H121.699V16.8297ZM126.269 12.2728V14.5427H121.704V12.2728H126.269ZM118.975 16.35H113.858V10.5168H118.975V16.35Z" fill="#101010"/>
<path d="M125.517 21.0612C124.36 20.7228 122.985 20.5515 121.401 20.5515C119.816 20.5515 118.437 20.7228 117.284 21.0612C116.13 21.3995 115.246 21.9006 114.623 22.5602C113.999 23.2197 113.692 24.0078 113.692 24.92C113.692 25.8322 114.004 26.6117 114.623 27.2584C115.242 27.9051 116.13 28.4019 117.284 28.7403C118.437 29.0786 119.808 29.2499 121.401 29.2499C122.993 29.2499 124.356 29.0786 125.517 28.7403C126.679 28.4019 127.567 27.9094 128.187 27.2584C128.806 26.6074 129.118 25.8322 129.118 24.92C129.118 24.0078 128.806 23.2112 128.187 22.5559C127.567 21.9006 126.675 21.3995 125.517 21.0612ZM125.774 26.1063C125.394 26.4361 124.834 26.6845 124.091 26.8516C123.348 27.0186 122.451 27.1085 121.401 27.1171C120.35 27.1085 119.453 27.0229 118.719 26.8516C117.984 26.6802 117.42 26.4361 117.036 26.1063C116.651 25.7766 116.459 25.3825 116.459 24.92C116.459 24.436 116.651 24.0292 117.036 23.6951C117.42 23.3611 117.98 23.1127 118.714 22.9413C119.449 22.77 120.346 22.6844 121.405 22.6844C122.464 22.6844 123.361 22.77 124.1 22.9413C124.838 23.1127 125.398 23.3653 125.778 23.6951C126.158 24.0249 126.346 24.4318 126.346 24.92C126.346 25.3783 126.158 25.7766 125.778 26.1063H125.774Z" fill="#101010"/>
<path d="M140.093 22.1404C137.676 22.2346 135.092 22.286 132.35 22.286L132.701 24.5687C134.46 24.5687 136.083 24.5473 137.561 24.5045C139.038 24.4617 140.623 24.3674 142.31 24.2218C143.997 24.0762 145.615 23.8578 147.178 23.5623L146.965 21.5279C144.804 21.8363 142.515 22.0419 140.097 22.1361L140.093 22.1404Z" fill="#101010"/>
<path d="M136.408 18.4486C137.356 18.9155 138.415 19.151 139.594 19.151C140.772 19.151 141.831 18.9155 142.78 18.4486C143.728 17.9818 144.466 17.3308 145 16.4957C145.534 15.6605 145.803 14.714 145.803 13.6519C145.803 12.5897 145.538 11.6518 145 10.8166C144.462 9.98149 143.728 9.32622 142.78 8.8594C141.831 8.39257 140.772 8.15701 139.594 8.15701C138.415 8.15701 137.356 8.39257 136.408 8.8594C135.46 9.32622 134.716 9.98149 134.183 10.8166C133.649 11.6518 133.375 12.5983 133.375 13.6519C133.375 14.7054 133.645 15.6605 134.183 16.4957C134.721 17.3308 135.464 17.9775 136.408 18.4486ZM136.579 12.0372C136.877 11.5704 137.292 11.2107 137.817 10.9665C138.342 10.7224 138.936 10.5939 139.594 10.5854C140.26 10.5939 140.858 10.7224 141.387 10.9665C141.917 11.2107 142.331 11.5704 142.626 12.0372C142.921 12.5041 143.07 13.0437 143.07 13.6562C143.07 14.2686 142.921 14.8168 142.626 15.2751C142.331 15.7333 141.917 16.0888 141.387 16.3415C140.858 16.5942 140.26 16.7227 139.594 16.7312C138.936 16.7227 138.342 16.5942 137.817 16.3415C137.292 16.0888 136.877 15.7333 136.579 15.2751C136.28 14.8168 136.13 14.2772 136.13 13.6562C136.13 13.0351 136.28 12.5041 136.579 12.0372Z" fill="#101010"/>
<path d="M152.147 6.40253H149.392V29.1272H152.147V6.40253Z" fill="#101010"/>
<path d="M175.002 19.0482V16.8254H154.408V19.0482H163.304V21.1554H156.633V23.3653H159.849V26.6759H156.446V28.9201H172.999V26.6759H169.582V23.3653H172.772V21.1554H166.055V19.0482H175.002ZM166.866 26.6802H162.6V23.3696H166.866V26.6802Z" fill="#101010"/>
<path d="M161.246 14.0245C162.634 13.2921 163.723 12.3799 164.504 11.2878C164.577 11.185 164.645 11.0822 164.709 10.9794C164.773 11.0779 164.833 11.1764 164.906 11.2749C165.683 12.3671 166.764 13.2793 168.152 14.0159C169.539 14.7526 171.137 15.2408 172.939 15.485L173.925 13.3136C172.401 13.1294 171.047 12.7525 169.864 12.1786C168.681 11.6047 167.767 10.9237 167.118 10.1314C166.469 9.3391 166.14 8.52537 166.14 7.69022V6.82509H163.274V7.69022C163.266 8.55107 162.941 9.37337 162.296 10.1571C161.651 10.9409 160.738 11.6133 159.542 12.1786C158.346 12.7439 156.984 13.1208 155.45 13.3136L156.475 15.485C158.261 15.2408 159.849 14.7569 161.237 14.0245H161.246Z" fill="#101010"/>
<path d="M92.1631 40.4538H93.4101V37.4944H96.3014V36.4493H93.4101V34.5435H96.6089V33.4899H92.1631V40.4538Z" fill="#101010"/>
<path d="M102.315 33.824C101.832 33.537 101.285 33.3957 100.675 33.3957C100.064 33.3957 99.5131 33.537 99.0348 33.824C98.5564 34.1109 98.1764 34.5221 97.903 35.0617C97.6297 35.6013 97.4888 36.2395 97.4888 36.9718C97.4888 37.7042 97.6254 38.3381 97.903 38.8777C98.1764 39.4173 98.5564 39.8328 99.0348 40.1197C99.5131 40.4067 100.06 40.548 100.675 40.548C101.29 40.548 101.832 40.4067 102.315 40.1197C102.797 39.8328 103.177 39.4216 103.451 38.882C103.724 38.3423 103.861 37.7085 103.861 36.9718C103.861 36.2352 103.724 35.6013 103.451 35.0617C103.177 34.5221 102.797 34.1066 102.315 33.824ZM102.366 38.2995C102.204 38.6636 101.977 38.9419 101.687 39.1347C101.396 39.3274 101.059 39.4216 100.675 39.4216C100.29 39.4216 99.9572 39.3274 99.6668 39.1347C99.3764 38.9419 99.1501 38.6636 98.9878 38.2995C98.8255 37.9355 98.7444 37.4901 98.7444 36.9718C98.7444 36.4536 98.8255 36.0082 98.9878 35.6399C99.1501 35.2716 99.3764 34.9932 99.6668 34.8047C99.9572 34.6163 100.295 34.5221 100.675 34.5221C101.055 34.5221 101.396 34.6163 101.687 34.8047C101.977 34.9932 102.204 35.2716 102.366 35.6399C102.528 36.0082 102.609 36.4536 102.609 36.9718C102.609 37.4901 102.528 37.9355 102.366 38.2995Z" fill="#101010"/>
<path d="M108.904 37.6357C109.276 37.4558 109.554 37.2031 109.746 36.8776C109.934 36.5521 110.028 36.1667 110.028 35.717C110.028 35.2673 109.934 34.8818 109.746 34.5435C109.558 34.2051 109.28 33.9482 108.909 33.764C108.541 33.5799 108.097 33.4899 107.576 33.4899H104.975V40.4538H106.222V37.9055H107.512L108.874 40.4538H110.275L108.768 37.6914C108.81 37.6742 108.862 37.6571 108.904 37.6357ZM106.227 34.5392H107.388C107.696 34.5392 107.956 34.582 108.157 34.672C108.362 34.7619 108.511 34.8947 108.605 35.0746C108.699 35.2544 108.751 35.4686 108.755 35.717C108.755 35.9654 108.704 36.1752 108.605 36.3423C108.511 36.5093 108.362 36.6378 108.161 36.7234C107.961 36.8134 107.704 36.8562 107.393 36.8562H106.227V34.5392Z" fill="#101010"/>
<path d="M112.355 37.4944H115.387V36.4493H112.355V34.5435H115.622V33.4899H111.108V40.4538H115.639V39.4045H112.355V37.4944Z" fill="#101010"/>
<path d="M119.85 36.4965L119.201 36.3337C118.846 36.2481 118.56 36.1324 118.338 35.9868C118.116 35.8412 118.009 35.6356 118.009 35.3744C118.009 35.1988 118.061 35.0403 118.167 34.899C118.27 34.7577 118.419 34.6506 118.607 34.5735C118.795 34.4964 119.021 34.4579 119.278 34.4579C119.534 34.4579 119.747 34.4921 119.94 34.5649C120.132 34.6377 120.281 34.7448 120.392 34.8904C120.503 35.036 120.567 35.2031 120.589 35.4001H121.797C121.789 35.0103 121.682 34.6677 121.473 34.3594C121.264 34.0553 120.969 33.8154 120.589 33.6484C120.213 33.4771 119.782 33.3914 119.299 33.3914C118.816 33.3914 118.377 33.4771 117.988 33.6441C117.599 33.8111 117.296 34.051 117.078 34.3636C116.86 34.6763 116.749 35.036 116.749 35.4386C116.749 35.9226 116.903 36.3166 117.223 36.6207C117.544 36.9248 118.001 37.156 118.594 37.3145L119.384 37.5158C119.658 37.5886 119.888 37.6614 120.068 37.7385C120.247 37.8156 120.388 37.9184 120.486 38.0383C120.585 38.1625 120.636 38.3081 120.636 38.4794C120.636 38.6764 120.572 38.8477 120.456 39.0019C120.341 39.1561 120.179 39.2717 119.97 39.3574C119.76 39.4388 119.517 39.4816 119.239 39.4816C118.962 39.4816 118.735 39.4431 118.522 39.3617C118.308 39.2803 118.137 39.1604 118.005 38.9976C117.873 38.8349 117.8 38.6336 117.783 38.3981H116.553C116.57 38.852 116.694 39.2418 116.916 39.563C117.138 39.8842 117.45 40.1326 117.843 40.3039C118.24 40.4752 118.705 40.5609 119.244 40.5566C119.794 40.5566 120.268 40.4709 120.661 40.2996C121.059 40.1283 121.362 39.8885 121.567 39.5758C121.772 39.2632 121.879 38.9034 121.879 38.4923C121.879 37.9312 121.686 37.4944 121.315 37.1774C120.943 36.8605 120.448 36.6335 119.837 36.4879L119.85 36.4965Z" fill="#101010"/>
<path d="M122.622 34.5435H124.778V40.4538H126.021V34.5435H128.165V33.4899H122.622V34.5435Z" fill="#101010"/>
<path d="M131.483 40.4538H132.73V37.4944H135.622V36.4493H132.73V34.5435H135.929V33.4899H131.483V40.4538Z" fill="#101010"/>
<path d="M141.635 33.824C141.152 33.537 140.606 33.3957 139.995 33.3957C139.384 33.3957 138.833 33.537 138.355 33.824C137.877 34.1109 137.497 34.5221 137.223 35.0617C136.95 35.6013 136.809 36.2395 136.809 36.9718C136.809 37.7042 136.946 38.3381 137.223 38.8777C137.501 39.4173 137.877 39.8328 138.355 40.1197C138.833 40.4067 139.38 40.548 139.995 40.548C140.61 40.548 141.152 40.4067 141.635 40.1197C142.118 39.8328 142.498 39.4216 142.771 38.882C143.044 38.3423 143.181 37.7085 143.181 36.9718C143.181 36.2352 143.044 35.6013 142.771 35.0617C142.498 34.5221 142.118 34.1066 141.635 33.824ZM141.686 38.2995C141.524 38.6636 141.298 38.9419 141.007 39.1347C140.717 39.3274 140.379 39.4216 139.995 39.4216C139.611 39.4216 139.278 39.3274 138.987 39.1347C138.697 38.9419 138.47 38.6636 138.308 38.2995C138.146 37.9355 138.065 37.4901 138.065 36.9718C138.065 36.4536 138.146 36.0082 138.308 35.6399C138.47 35.2716 138.697 34.9932 138.987 34.8047C139.278 34.6163 139.615 34.5221 139.995 34.5221C140.375 34.5221 140.717 34.6163 141.007 34.8047C141.298 34.9932 141.524 35.2716 141.686 35.6399C141.849 36.0082 141.93 36.4536 141.93 36.9718C141.93 37.4901 141.849 37.9355 141.686 38.2995Z" fill="#101010"/>
<path d="M148.225 37.6357C148.596 37.4558 148.874 37.2031 149.066 36.8776C149.254 36.5521 149.348 36.1667 149.348 35.717C149.348 35.2673 149.254 34.8818 149.066 34.5435C148.878 34.2051 148.601 33.9482 148.229 33.764C147.862 33.5799 147.418 33.4899 146.897 33.4899H144.296V40.4538H145.543V37.9055H146.832L148.195 40.4538H149.596L148.088 37.6914C148.131 37.6742 148.182 37.6571 148.225 37.6357ZM145.543 34.5392H146.704C147.016 34.5392 147.272 34.582 147.473 34.672C147.674 34.7619 147.828 34.8947 147.921 35.0746C148.015 35.2544 148.067 35.4686 148.071 35.717C148.071 35.9654 148.02 36.1752 147.921 36.3423C147.828 36.5093 147.678 36.6378 147.477 36.7234C147.277 36.8091 147.02 36.8562 146.709 36.8562H145.543V34.5392Z" fill="#101010"/>
<path d="M154.011 33.4899H152.764V40.4538H157.078V39.4045H154.011V33.4899Z" fill="#101010"/>
<path d="M159.328 33.4899H158.081V40.4538H159.328V33.4899Z" fill="#101010"/>
<path d="M160.622 40.4538H161.869V37.4944H164.761V36.4493H161.869V34.5435H165.068V33.4899H160.622V40.4538Z" fill="#101010"/>
<path d="M167.374 39.4045V37.4944H170.406V36.4493H167.374V34.5435H170.641V33.4899H166.127V40.4538H170.663V39.4045H167.374Z" fill="#101010"/>
</svg>
